STARTFONT 2.1
COMMENT knj10B.bdf Ver.1.1 (1999.5.30)
COMMENT Copyright 1998, 1999 (c) NAGAO, Sadakazu.  All rights reserved.
COMMENT E-mail: snagao@tkb.att.ne.jp
FONT -Misc-Fixed-Bold-R-Normal--10-90-75-75-C-100-jisx0208.1983-0
SIZE 10 75 75
FONTBOUNDINGBOX 10 10 0 -2
STARTPROPERTIES 20
FONTNAME_REGISTRY ""
FOUNDRY "Misc"
FAMILY_NAME "Fixed"
WEIGHT_NAME "Bold"
SLANT "R"
SETWIDTH_NAME "Normal"
ADD_STYLE_NAME ""
PIXEL_SIZE 10
POINT_SIZE 90
RESOLUTION_X 75
RESOLUTION_Y 75
SPACING "C"
AVERAGE_WIDTH 100
CHARSET_REGISTRY "jisx0208.1983"
CHARSET_ENCODING "0"
DEFAULT_CHAR 8481
FONT_DESCENT 2
FONT_ASCENT 8
COPYRIGHT "Copyright 1998, 1999 (c) NAGAO, Sadakazu.  All rights reserved."
_XMBDFED_INFO "Edited with xmbdfed 3.4."
ENDPROPERTIES
CHARS 6877
STARTCHAR 2121
ENCODING 8481
SWIDTH 960 0
DWIDTH 10 0
BBX 10 10 0 -2
BITMAP
0000
0000
0000
0000
0000
0000
0000
0000
0000
0000
ENDCHAR
STARTCHAR 2122
ENCODING 8482
SWIDTH 960 0
DWIDTH 10 0
BBX 10 10 0 -2
BITMAP
0000
0000
0000
0000
0000
0000
c000
6000
3000
0000
ENDCHAR
STARTCHAR 2123
ENCODING 8483
SWIDTH 960 0
DWIDTH 10 0
BBX 10 10 0 -2
BITMAP
0000
0000
0000
0000
0000
7000
d800
d800
7000
0000
ENDCHAR
STARTCHAR 2124
ENCODING 8484
SWIDTH 960 0
DWIDTH 10 0
BBX 10 10 0 -2
BITMAP
0000
0000
0000
0000
0000
0000
e000
e000
6000
c000
ENDCHAR
STARTCHAR 2125
ENCODING 8485
SWIDTH 960 0
DWIDTH 10 0
BBX 10 10 0 -2
BITMAP
0000
0000
0000
0000
0000
0000
0000
e000
e000
0000
ENDCHAR
STARTCHAR 2126
ENCODING 8486
SWIDTH 960 0
DWIDTH 10 0
BBX 10 10 0 -2
BITMAP
0000
0000
0000
0000
1c00
1c00
0000
0000
0000
0000
ENDCHAR
STARTCHAR 2127
ENCODING 8487
SWIDTH 960 0
DWIDTH 10 0
BBX 10 10 0 -2
BITMAP
0000
0000
1c00
1c00
0000
0000
1c00
1c00
0000
0000
ENDCHAR
STARTCHAR 2128
ENCODING 8488
SWIDTH 960 0
DWIDTH 10 0
BBX 10 10 0 -2
BITMAP
0000
0000
1c00
1c00
0000
0000
1c00
1c00
0c00
1800
ENDCHAR
STARTCHAR 2129
ENCODING 8489
SWIDTH 960 0
DWIDTH 10 0
BBX 10 10 0 -2
BITMAP
0000
1e00
3300
0300
0600
0c00
0000
0c00
0000
0000
ENDCHAR
STARTCHAR 212a
ENCODING 8490
SWIDTH 960 0
DWIDTH 10 0
BBX 10 10 0 -2
BITMAP
0000
0c00
0c00
0c00
0c00
0000
0000
0c00
0000
0000
ENDCHAR
STARTCHAR 212b
ENCODING 8491
SWIDTH 960 0
DWIDTH 10 0
BBX 10 10 0 -2
BITMAP
6000
3000
c000
6000
0000
0000
0000
0000
0000
0000
ENDCHAR
STARTCHAR 212c
ENCODING 8492
SWIDTH 960 0
DWIDTH 10 0
BBX 10 10 0 -2
BITMAP
6000
d000
d000
6000
0000
0000
0000
0000
0000
0000
ENDCHAR
STARTCHAR 212d
ENCODING 8493
SWIDTH 960 0
DWIDTH 10 0
BBX 10 10 0 -2
BITMAP
0c00
1800
0000
0000
0000
0000
0000
0000
0000
0000
ENDCHAR
STARTCHAR 212e
ENCODING 8494
SWIDTH 960 0
DWIDTH 10 0
BBX 10 10 0 -2
BITMAP
1800
0c00
0000
0000
0000
0000
0000
0000
0000
0000
ENDCHAR
STARTCHAR 212f
ENCODING 8495
SWIDTH 960 0
DWIDTH 10 0
BBX 10 10 0 -2
BITMAP
7700
7700
0000
0000
0000
0000
0000
0000
0000
0000
ENDCHAR
STARTCHAR 2130
ENCODING 8496
SWIDTH 960 0
DWIDTH 10 0
BBX 10 10 0 -2
BITMAP
1c00
3600
0000
0000
0000
0000
0000
0000
0000
0000
ENDCHAR
STARTCHAR 2131
ENCODING 8497
SWIDTH 960 0
DWIDTH 10 0
BBX 10 10 0 -2
BITMAP
ffc0
0000
0000
0000
0000
0000
0000
0000
0000
0000
ENDCHAR
STARTCHAR 2132
ENCODING 8498
SWIDTH 960 0
DWIDTH 10 0
BBX 10 10 0 -2
BITMAP
0000
0000
0000
0000
0000
0000
0000
0000
0000
ffc0
ENDCHAR
STARTCHAR 2133
ENCODING 8499
SWIDTH 960 0
DWIDTH 10 0
BBX 10 10 0 -2
BITMAP
0000
0000
3000
1800
0c00
0600
0600
0000
0000
0000
ENDCHAR
STARTCHAR 2134
ENCODING 8500
SWIDTH 960 0
DWIDTH 10 0
BBX 10 10 0 -2
BITMAP
0180
06c0
3300
1800
0c00
0600
0600
0000
0000
0000
ENDCHAR
STARTCHAR 2135
ENCODING 8501
SWIDTH 960 0
DWIDTH 10 0
BBX 10 10 0 -2
BITMAP
0000
0000
3000
3000
1800
0c00
0600
1c00
0000
0000
ENDCHAR
STARTCHAR 2136
ENCODING 8502
SWIDTH 960 0
DWIDTH 10 0
BBX 10 10 0 -2
BITMAP
0180
06c0
3300
3000
1800
0c00
0600
1c00
0000
0000
ENDCHAR
STARTCHAR 2137
ENCODING 8503
SWIDTH 960 0
DWIDTH 10 0
BBX 10 10 0 -2
BITMAP
0000
0000
1b00
1b00
1b00
3600
3600
0000
0000
0000
ENDCHAR
STARTCHAR 2138
ENCODING 8504
SWIDTH 960 0
DWIDTH 10 0
BBX 10 10 0 -2
BITMAP
0c00
1a00
3300
6180
df40
0c00
0c00
0c00
7f80
0000
ENDCHAR
STARTCHAR 2139
ENCODING 8505
SWIDTH 960 0
DWIDTH 10 0
BBX 10 10 0 -2
BITMAP
0000
0000
1800
1f00
3300
6600
1c00
0600
0000
0000
ENDCHAR
STARTCHAR 213a
ENCODING 8506
SWIDTH 960 0
DWIDTH 10 0
BBX 10 10 0 -2
BITMAP
0000
0180
0300
7a00
cc00
da00
d300
e000
c000
0000
ENDCHAR
STARTCHAR 213b
ENCODING 8507
SWIDTH 960 0
DWIDTH 10 0
BBX 10 10 0 -2
BITMAP
0000
1e00
7380
c0c0
c0c0
c0c0
7380
1e00
0000
0000
ENDCHAR
STARTCHAR 213c
ENCODING 8508
SWIDTH 960 0
DWIDTH 10 0
BBX 10 10 0 -2
BITMAP
0000
0000
0000
c000
7f80
0000
0000
0000
0000
0000
ENDCHAR
STARTCHAR 213d
ENCODING 8509
SWIDTH 960 0
DWIDTH 10 0
BBX 10 10 0 -2
BITMAP
0000
0000
0000
0000
ffc0
0000
0000
0000
0000
0000
ENDCHAR
STARTCHAR 213e
ENCODING 8510
SWIDTH 960 0
DWIDTH 10 0
BBX 10 10 0 -2
BITMAP
0000
0000
0000
0000
1e00
0000
0000
0000
0000
0000
ENDCHAR
STARTCHAR 213f
ENCODING 8511
SWIDTH 960 0
DWIDTH 10 0
BBX 10 10 0 -2
BITMAP
00c0
0180
0300
0600
0c00
1800
3000
6000
c000
0000
ENDCHAR
STARTCHAR 2140
ENCODING 8512
SWIDTH 960 0
DWIDTH 10 0
BBX 10 10 0 -2
BITMAP
c000
6000
3000
1800
0c00
0600
0300
0180
00c0
0000
ENDCHAR
STARTCHAR 2141
ENCODING 8513
SWIDTH 960 0
DWIDTH 10 0
BBX 10 10 0 -2
BITMAP
0000
0000
0000
7800
ccc0
0780
0000
0000
0000
0000
ENDCHAR
STARTCHAR 2142
ENCODING 8514
SWIDTH 960 0
DWIDTH 10 0
BBX 10 10 0 -2
BITMAP
3600
3600
3600
3600
3600
3600
3600
3600
3600
3600
ENDCHAR
STARTCHAR 2143
ENCODING 8515
SWIDTH 960 0
DWIDTH 10 0
BBX 10 10 0 -2
BITMAP
0c00
0c00
0c00
0c00
0c00
0c00
0c00
0c00
0c00
0c00
ENDCHAR
STARTCHAR 2144
ENCODING 8516
SWIDTH 960 0
DWIDTH 10 0
BBX 10 10 0 -2
BITMAP
0000
0000
0000
0000
ed80
ed80
0000
0000
0000
0000
ENDCHAR
STARTCHAR 2145
ENCODING 8517
SWIDTH 960 0
DWIDTH 10 0
BBX 10 10 0 -2
BITMAP
0000
0000
0000
0000
7380
7380
0000
0000
0000
0000
ENDCHAR
STARTCHAR 2146
ENCODING 8518
SWIDTH 960 0
DWIDTH 10 0
BBX 10 10 0 -2
BITMAP
0180
0300
0380
0380
0000
0000
0000
0000
0000
0000
ENDCHAR
STARTCHAR 2147
ENCODING 8519
SWIDTH 960 0
DWIDTH 10 0
BBX 10 10 0 -2
BITMAP
e000
e000
6000
c000
0000
0000
0000
0000
0000
0000
ENDCHAR
STARTCHAR 2148
ENCODING 8520
SWIDTH 960 0
DWIDTH 10 0
BBX 10 10 0 -2
BITMAP
06c0
0d80
0ec0
0ec0
0000
0000
0000
0000
0000
0000
ENDCHAR
STARTCHAR 2149
ENCODING 8521
SWIDTH 960 0
DWIDTH 10 0
BBX 10 10 0 -2
BITMAP
ec00
ec00
6c00
d800
0000
0000
0000
0000
0000
0000
ENDCHAR
STARTCHAR 214a
ENCODING 8522
SWIDTH 960 0
DWIDTH 10 0
BBX 10 10 0 -2
BITMAP
0180
0300
0600
0600
0600
0600
0600
0300
0180
0000
ENDCHAR
STARTCHAR 214b
ENCODING 8523
SWIDTH 960 0
DWIDTH 10 0
BBX 10 10 0 -2
BITMAP
6000
3000
1800
1800
1800
1800
1800
3000
6000
0000
ENDCHAR
STARTCHAR 214c
ENCODING 8524
SWIDTH 960 0
DWIDTH 10 0
BBX 10 10 0 -2
BITMAP
0380
0e00
0c00
0c00
0c00
0c00
0c00
0e00
0380
0000
ENDCHAR
STARTCHAR 214d
ENCODING 8525
SWIDTH 960 0
DWIDTH 10 0
BBX 10 10 0 -2
BITMAP
7000
1c00
0c00
0c00
0c00
0c00
0c00
1c00
7000
0000
ENDCHAR
STARTCHAR 214e
ENCODING 8526
SWIDTH 960 0
DWIDTH 10 0
BBX 10 10 0 -2
BITMAP
0780
0600
0600
0600
0600
0600
0600
0600
0780
0000
ENDCHAR
STARTCHAR 214f
ENCODING 8527
SWIDTH 960 0
DWIDTH 10 0
BBX 10 10 0 -2
BITMAP
7800
1800
1800
1800
1800
1800
1800
1800
7800
0000
ENDCHAR
STARTCHAR 2150
ENCODING 8528
SWIDTH 960 0
DWIDTH 10 0
BBX 10 10 0 -2
BITMAP
0380
0600
0600
0600
0c00
0600
0600
0600
0380
0000
ENDCHAR
STARTCHAR 2151
ENCODING 8529
SWIDTH 960 0
DWIDTH 10 0
BBX 10 10 0 -2
BITMAP
7000
1800
1800
1800
0c00
1800
1800
1800
7000
0000
ENDCHAR
STARTCHAR 2152
ENCODING 8530
SWIDTH 960 0
DWIDTH 10 0
BBX 10 10 0 -2
BITMAP
0180
0180
0300
0300
0600
0300
0300
0180
0180
0000
ENDCHAR
STARTCHAR 2153
ENCODING 8531
SWIDTH 960 0
DWIDTH 10 0
BBX 10 10 0 -2
BITMAP
6000
6000
3000
3000
1800
3000
3000
6000
6000
0000
ENDCHAR
STARTCHAR 2154
ENCODING 8532
SWIDTH 960 0
DWIDTH 10 0
BBX 10 10 0 -2
BITMAP
0340
0340
0680
0680
0d00
0680
0680
0340
0340
0000
ENDCHAR
STARTCHAR 2155
ENCODING 8533
SWIDTH 960 0
DWIDTH 10 0
BBX 10 10 0 -2
BITMAP
6800
6800
3400
3400
1a00
3400
3400
6800
6800
0000
ENDCHAR
STARTCHAR 2156
ENCODING 8534
SWIDTH 960 0
DWIDTH 10 0
BBX 10 10 0 -2
BITMAP
07c0
0600
0600
0600
0600
0600
0600
0000
0000
0000
ENDCHAR
STARTCHAR 2157
ENCODING 8535
SWIDTH 960 0
DWIDTH 10 0
BBX 10 10 0 -2
BITMAP
0000
0000
1800
1800
1800
1800
1800
1800
f800
0000
ENDCHAR
STARTCHAR 2158
ENCODING 8536
SWIDTH 960 0
DWIDTH 10 0
BBX 10 10 0 -2
BITMAP
0fc0
0cc0
0dc0
0d00
0d00
0d00
0d00
0f00
0000
0000
ENDCHAR
STARTCHAR 2159
ENCODING 8537
SWIDTH 960 0
DWIDTH 10 0
BBX 10 10 0 -2
BITMAP
0000
3c00
3400
3400
3400
3400
f400
cc00
fc00
0000
ENDCHAR
STARTCHAR 215a
ENCODING 8538
SWIDTH 960 0
DWIDTH 10 0
BBX 10 10 0 -2
BITMAP
07c0
0780
0700
0600
0600
0600
0700
0780
07c0
0000
ENDCHAR
STARTCHAR 215b
ENCODING 8539
SWIDTH 960 0
DWIDTH 10 0
BBX 10 10 0 -2
BITMAP
f800
7800
3800
1800
1800
1800
3800
7800
f800
0000
ENDCHAR
STARTCHAR 215c
ENCODING 8540
SWIDTH 960 0
DWIDTH 10 0
BBX 10 10 0 -2
BITMAP
0000
0c00
0c00
0c00
7f80
0c00
0c00
0c00
0000
0000
ENDCHAR
STARTCHAR 215d
ENCODING 8541
SWIDTH 960 0
DWIDTH 10 0
BBX 10 10 0 -2
BITMAP
0000
0000
0000
0000
7f80
0000
0000
0000
0000
0000
ENDCHAR
STARTCHAR 215e
ENCODING 8542
SWIDTH 960 0
DWIDTH 10 0
BBX 10 10 0 -2
BITMAP
0000
0c00
0c00
0c00
7f80
0c00
0c00
0c00
7f80
0000
ENDCHAR
STARTCHAR 215f
ENCODING 8543
SWIDTH 960 0
DWIDTH 10 0
BBX 10 10 0 -2
BITMAP
0000
6180
3300
1a00
0c00
1a00
3300
6180
0000
0000
ENDCHAR
STARTCHAR 2160
ENCODING 8544
SWIDTH 960 0
DWIDTH 10 0
BBX 10 10 0 -2
BITMAP
0000
1c00
1c00
0000
ff80
0000
1c00
1c00
0000
0000
ENDCHAR
STARTCHAR 2161
ENCODING 8545
SWIDTH 960 0
DWIDTH 10 0
BBX 10 10 0 -2
BITMAP
0000
0000
0000
7f80
0000
7f80
0000
0000
0000
0000
ENDCHAR
STARTCHAR 2162
ENCODING 8546
SWIDTH 960 0
DWIDTH 10 0
BBX 10 10 0 -2
BITMAP
0000
0300
0600
7f80
0c00
7f80
1800
3000
0000
0000
ENDCHAR
STARTCHAR 2163
ENCODING 8547
SWIDTH 960 0
DWIDTH 10 0
BBX 10 10 0 -2
BITMAP
0000
0380
0e00
3800
e000
3800
0e00
0380
0000
0000
ENDCHAR
STARTCHAR 2164
ENCODING 8548
SWIDTH 960 0
DWIDTH 10 0
BBX 10 10 0 -2
BITMAP
0000
e000
3800
0e00
0380
0e00
3800
e000
0000
0000
ENDCHAR
STARTCHAR 2165
ENCODING 8549
SWIDTH 960 0
DWIDTH 10 0
BBX 10 10 0 -2
BITMAP
0780
3c00
e000
3c00
0780
0000
ff80
0000
ff80
0000
ENDCHAR
STARTCHAR 2166
ENCODING 8550
SWIDTH 960 0
DWIDTH 10 0
BBX 10 10 0 -2
BITMAP
f000
1e00
0380
1e00
f000
0000
ff80
0000
ff80
0000
ENDCHAR
STARTCHAR 2167
ENCODING 8551
SWIDTH 960 0
DWIDTH 10 0
BBX 10 10 0 -2
BITMAP
0000
0000
7380
dac0
ccc0
dac0
7380
0000
0000
0000
ENDCHAR
STARTCHAR 2168
ENCODING 8552
SWIDTH 960 0
DWIDTH 10 0
BBX 10 10 0 -2
BITMAP
0000
0000
1c00
1c00
0000
0000
7700
7700
0000
0000
ENDCHAR
STARTCHAR 2169
ENCODING 8553
SWIDTH 960 0
DWIDTH 10 0
BBX 10 10 0 -2
BITMAP
0000
0f80
0380
0680
7d80
cc00
cc00
cc00
7800
0000
ENDCHAR
STARTCHAR 216a
ENCODING 8554
SWIDTH 960 0
DWIDTH 10 0
BBX 10 10 0 -2
BITMAP
1e00
3300
3300
3300
1e00
0c00
7f80
0c00
0c00
0000
ENDCHAR
STARTCHAR 216b
ENCODING 8555
SWIDTH 960 0
DWIDTH 10 0
BBX 10 10 0 -2
BITMAP
f000
d000
f000
0000
0000
0000
0000
0000
0000
0000
ENDCHAR
STARTCHAR 216c
ENCODING 8556
SWIDTH 960 0
DWIDTH 10 0
BBX 10 10 0 -2
BITMAP
6000
6000
c000
0000
0000
0000
0000
0000
0000
0000
ENDCHAR
STARTCHAR 216d
ENCODING 8557
SWIDTH 960 0
DWIDTH 10 0
BBX 10 10 0 -2
BITMAP
6800
6800
d000
0000
0000
0000
0000
0000
0000
0000
ENDCHAR
STARTCHAR 216e
ENCODING 8558
SWIDTH 960 0
DWIDTH 10 0
BBX 10 10 0 -2
BITMAP
f000
d000
f680
1b80
3000
3000
3000
1980
0f00
0000
ENDCHAR
STARTCHAR 216f
ENCODING 8559
SWIDTH 960 0
DWIDTH 10 0
BBX 10 10 0 -2
BITMAP
0000
7b80
3300
1a00
7f80
0c00
7f80
0c00
1e00
0000
ENDCHAR
STARTCHAR 2170
ENCODING 8560
SWIDTH 960 0
DWIDTH 10 0
BBX 10 10 0 -2
BITMAP
0c00
3e80
6d80
6c00
3f00
0d80
7580
6f00
0c00
0000
ENDCHAR
STARTCHAR 2171
ENCODING 8561
SWIDTH 960 0
DWIDTH 10 0
BBX 10 10 0 -2
BITMAP
0600
0600
3e00
6d00
6c00
6b00
3e00
3000
3000
0000
ENDCHAR
STARTCHAR 2172
ENCODING 8562
SWIDTH 960 0
DWIDTH 10 0
BBX 10 10 0 -2
BITMAP
0000
1e00
3300
1800
7e00
1800
7000
d980
7700
0000
ENDCHAR
STARTCHAR 2173
ENCODING 8563
SWIDTH 960 0
DWIDTH 10 0
BBX 10 10 0 -2
BITMAP
0000
6180
d300
d600
6c00
1b00
3680
6680
c300
0000
ENDCHAR
STARTCHAR 2174
ENCODING 8564
SWIDTH 960 0
DWIDTH 10 0
BBX 10 10 0 -2
BITMAP
1980
1980
7fc0
3300
3300
3300
ff80
6600
6600
0000
ENDCHAR
STARTCHAR 2175
ENCODING 8565
SWIDTH 960 0
DWIDTH 10 0
BBX 10 10 0 -2
BITMAP
0000
1c00
3600
3400
1980
3500
6600
6d00
3980
0000
ENDCHAR
STARTCHAR 2176
ENCODING 8566
SWIDTH 960 0
DWIDTH 10 0
BBX 10 10 0 -2
BITMAP
0000
0c00
6d80
3500
1e00
3500
6d80
0c00
0000
0000
ENDCHAR
STARTCHAR 2177
ENCODING 8567
SWIDTH 960 0
DWIDTH 10 0
BBX 10 10 0 -2
BITMAP
0000
3e00
6300
dd80
d680
d580
db00
6000
3e00
0000
ENDCHAR
STARTCHAR 2178
ENCODING 8568
SWIDTH 960 0
DWIDTH 10 0
BBX 10 10 0 -2
BITMAP
1c00
3600
1800
3400
3600
1a00
0c00
3600
1c00
0000
ENDCHAR
STARTCHAR 2179
ENCODING 8569
SWIDTH 960 0
DWIDTH 10 0
BBX 10 10 0 -2
BITMAP
0c00
0c00
1a00
fbc0
6180
3300
3500
7b80
6180
0000
ENDCHAR
STARTCHAR 217a
ENCODING 8570
SWIDTH 960 0
DWIDTH 10 0
BBX 10 10 0 -2
BITMAP
0c00
0c00
1e00
ffc0
7f80
3f00
3f00
7b80
6180
0000
ENDCHAR
STARTCHAR 217b
ENCODING 8571
SWIDTH 960 0
DWIDTH 10 0
BBX 10 10 0 -2
BITMAP
3f00
6180
c0c0
c0c0
c0c0
c0c0
c0c0
6180
3f00
0000
ENDCHAR
STARTCHAR 217c
ENCODING 8572
SWIDTH 960 0
DWIDTH 10 0
BBX 10 10 0 -2
BITMAP
3f00
7f80
ffc0
ffc0
ffc0
ffc0
ffc0
7f80
3f00
0000
ENDCHAR
STARTCHAR 217d
ENCODING 8573
SWIDTH 960 0
DWIDTH 10 0
BBX 10 10 0 -2
BITMAP
3f00
6180
dec0
d340
d340
d340
dec0
6180
3f00
0000
ENDCHAR
STARTCHAR 217e
ENCODING 8574
SWIDTH 960 0
DWIDTH 10 0
BBX 10 10 0 -2
BITMAP
0c00
1a00
3300
6180
c0c0
6180
3300
1a00
0c00
0000
ENDCHAR
STARTCHAR 2221
ENCODING 8737
SWIDTH 960 0
DWIDTH 10 0
BBX 10 10 0 -2
BITMAP
0c00
1e00
3f00
7f80
ffc0
7f80
3f00
1e00
0c00
0000
ENDCHAR
STARTCHAR 2222
ENCODING 8738
SWIDTH 960 0
DWIDTH 10 0
BBX 10 10 0 -2
BITMAP
0000
ff80
c180
c180
c180
c180
c180
c180
ff80
0000
ENDCHAR
STARTCHAR 2223
ENCODING 8739
SWIDTH 960 0
DWIDTH 10 0
BBX 10 10 0 -2
BITMAP
0000
ff80
ff80
ff80
ff80
ff80
ff80
ff80
ff80
0000
ENDCHAR
STARTCHAR 2224
ENCODING 8740
SWIDTH 960 0
DWIDTH 10 0
BBX 10 10 0 -2
BITMAP
0c00
0c00
1a00
1a00
3300
3300
6180
6180
ffc0
0000
ENDCHAR
STARTCHAR 2225
ENCODING 8741
SWIDTH 960 0
DWIDTH 10 0
BBX 10 10 0 -2
BITMAP
0c00
0c00
1e00
1e00
3f00
3f00
7f80
7f80
ffc0
0000
ENDCHAR
STARTCHAR 2226
ENCODING 8742
SWIDTH 960 0
DWIDTH 10 0
BBX 10 10 0 -2
BITMAP
ffc0
6180
6180
3300
3300
1a00
1a00
0c00
0c00
0000
ENDCHAR
STARTCHAR 2227
ENCODING 8743
SWIDTH 960 0
DWIDTH 10 0
BBX 10 10 0 -2
BITMAP
ffc0
7f80
7f80
3f00
3f00
1e00
1e00
0c00
0c00
0000
ENDCHAR
STARTCHAR 2228
ENCODING 8744
SWIDTH 960 0
DWIDTH 10 0
BBX 10 10 0 -2
BITMAP
ccc0
6180
3300
1a00
ccc0
1a00
3300
6180
ccc0
0000
ENDCHAR
STARTCHAR 2229
ENCODING 8745
SWIDTH 960 0
DWIDTH 10 0
BBX 10 10 0 -2
BITMAP
0000
7f80
0000
7f80
0c00
0c00
0c00
0c00
0000
0000
ENDCHAR
STARTCHAR 222a
ENCODING 8746
SWIDTH 960 0
DWIDTH 10 0
BBX 10 10 0 -2
BITMAP
0000
0000
0300
0180
ffc0
0180
0300
0000
0000
0000
ENDCHAR
STARTCHAR 222b
ENCODING 8747
SWIDTH 960 0
DWIDTH 10 0
BBX 10 10 0 -2
BITMAP
0000
0000
3000
6000
ffc0
6000
3000
0000
0000
0000
ENDCHAR
STARTCHAR 222c
ENCODING 8748
SWIDTH 960 0
DWIDTH 10 0
BBX 10 10 0 -2
BITMAP
0c00
1e00
3500
0c00
0c00
0c00
0c00
0c00
0c00
0000
ENDCHAR
STARTCHAR 222d
ENCODING 8749
SWIDTH 960 0
DWIDTH 10 0
BBX 10 10 0 -2
BITMAP
0c00
0c00
0c00
0c00
0c00
0c00
3500
1e00
0c00
0000
ENDCHAR
STARTCHAR 222e
ENCODING 8750
SWIDTH 960 0
DWIDTH 10 0
BBX 10 10 0 -2
BITMAP
0000
0000
ff80
ff80
0000
0000
ff80
ff80
0000
0000
ENDCHAR
STARTCHAR 223a
ENCODING 8762
SWIDTH 960 0
DWIDTH 10 0
BBX 10 10 0 -2
BITMAP
0000
3f00
6000
c000
ff00
c000
6000
3f00
0000
0000
ENDCHAR
STARTCHAR 223b
ENCODING 8763
SWIDTH 960 0
DWIDTH 10 0
BBX 10 10 0 -2
BITMAP
0000
7e00
0300
0180
7f80
0180
0300
7e00
0000
0000
ENDCHAR
STARTCHAR 223c
ENCODING 8764
SWIDTH 960 0
DWIDTH 10 0
BBX 10 10 0 -2
BITMAP
0000
3f80
6000
c000
c000
6000
3f80
0000
ff80
0000
ENDCHAR
STARTCHAR 223d
ENCODING 8765
SWIDTH 960 0
DWIDTH 10 0
BBX 10 10 0 -2
BITMAP
0000
fe00
0300
0180
0180
0300
fe00
0000
ff80
0000
ENDCHAR
STARTCHAR 223e
ENCODING 8766
SWIDTH 960 0
DWIDTH 10 0
BBX 10 10 0 -2
BITMAP
0000
3f80
6000
c000
c000
c000
6000
3f80
0000
0000
ENDCHAR
STARTCHAR 223f
ENCODING 8767
SWIDTH 960 0
DWIDTH 10 0
BBX 10 10 0 -2
BITMAP
0000
fe00
0300
0180
0180
0180
0300
fe00
0000
0000
ENDCHAR
STARTCHAR 2240
ENCODING 8768
SWIDTH 960 0
DWIDTH 10 0
BBX 10 10 0 -2
BITMAP
0000
6180
6180
6180
6180
6180
6180
3f00
0000
0000
ENDCHAR
STARTCHAR 2241
ENCODING 8769
SWIDTH 960 0
DWIDTH 10 0
BBX 10 10 0 -2
BITMAP
0000
3f00
6180
6180
6180
6180
6180
6180
0000
0000
ENDCHAR
STARTCHAR 224a
ENCODING 8778
SWIDTH 960 0
DWIDTH 10 0
BBX 10 10 0 -2
BITMAP
0000
0c00
0c00
1a00
1a00
3300
3300
6180
6180
0000
ENDCHAR
STARTCHAR 224b
ENCODING 8779
SWIDTH 960 0
DWIDTH 10 0
BBX 10 10 0 -2
BITMAP
0000
6180
6180
3300
3300
1a00
1a00
0c00
0c00
0000
ENDCHAR
STARTCHAR 224c
ENCODING 8780
SWIDTH 960 0
DWIDTH 10 0
BBX 10 10 0 -2
BITMAP
0000
0000
0000
7f80
0180
0180
0180
0000
0000
0000
ENDCHAR
STARTCHAR 224d
ENCODING 8781
SWIDTH 960 0
DWIDTH 10 0
BBX 10 10 0 -2
BITMAP
0000
0600
0300
ff80
00c0
ff80
0300
0600
0000
0000
ENDCHAR
STARTCHAR 224e
ENCODING 8782
SWIDTH 960 0
DWIDTH 10 0
BBX 10 10 0 -2
BITMAP
0000
1a00
3300
7f80
c0c0
7f80
3300
1a00
0000
0000
ENDCHAR
STARTCHAR 224f
ENCODING 8783
SWIDTH 960 0
DWIDTH 10 0
BBX 10 10 0 -2
BITMAP
0000
6180
6180
3f00
3300
1a00
1a00
0c00
0000
0000
ENDCHAR
STARTCHAR 2250
ENCODING 8784
SWIDTH 960 0
DWIDTH 10 0
BBX 10 10 0 -2
BITMAP
0000
3f00
0300
0300
3f00
0300
0300
3f00
0000
0000
ENDCHAR
STARTCHAR 225c
ENCODING 8796
SWIDTH 960 0
DWIDTH 10 0
BBX 10 10 0 -2
BITMAP
0000
0300
0600
0c00
1800
3000
6000
ff00
0000
0000
ENDCHAR
STARTCHAR 225d
ENCODING 8797
SWIDTH 960 0
DWIDTH 10 0
BBX 10 10 0 -2
BITMAP
0000
0c00
0c00
0c00
0c00
0c00
0c00
7f80
0000
0000
ENDCHAR
STARTCHAR 225e
ENCODING 8798
SWIDTH 960 0
DWIDTH 10 0
BBX 10 10 0 -2
BITMAP
3f00
e1c0
0000
0000
0000
0000
0000
0000
0000
0000
ENDCHAR
STARTCHAR 225f
ENCODING 8799
SWIDTH 960 0
DWIDTH 10 0
BBX 10 10 0 -2
BITMAP
0e00
1b00
0300
0f00
1b00
3300
3600
3600
1c00
0000
ENDCHAR
STARTCHAR 2260
ENCODING 8800
SWIDTH 960 0
DWIDTH 10 0
BBX 10 10 0 -2
BITMAP
ffc0
6180
7180
3300
3b00
1a00
1e00
0c00
0c00
0000
ENDCHAR
STARTCHAR 2261
ENCODING 8801
SWIDTH 960 0
DWIDTH 10 0
BBX 10 10 0 -2
BITMAP
0000
0000
7f80
0000
7f80
0000
7f80
0000
0000
0000
ENDCHAR
STARTCHAR 2262
ENCODING 8802
SWIDTH 960 0
DWIDTH 10 0
BBX 10 10 0 -2
BITMAP
0000
3000
0000
7f80
0000
7f80
0000
0300
0000
0000
ENDCHAR
STARTCHAR 2263
ENCODING 8803
SWIDTH 960 0
DWIDTH 10 0
BBX 10 10 0 -2
BITMAP
0d80
1b00
3600
6c00
d800
6c00
3600
1b00
0d80
0000
ENDCHAR
STARTCHAR 2264
ENCODING 8804
SWIDTH 960 0
DWIDTH 10 0
BBX 10 10 0 -2
BITMAP
d800
6c00
3600
1b00
0d80
1b00
3600
6c00
d800
0000
ENDCHAR
STARTCHAR 2265
ENCODING 8805
SWIDTH 960 0
DWIDTH 10 0
BBX 10 10 0 -2
BITMAP
0fc0
0c00
0c00
1800
e800
6800
7000
3000
3000
0000
ENDCHAR
STARTCHAR 2266
ENCODING 8806
SWIDTH 960 0
DWIDTH 10 0
BBX 10 10 0 -2
BITMAP
0000
0000
7380
c6c0
ccc0
d8c0
7380
0000
0000
0000
ENDCHAR
STARTCHAR 2267
ENCODING 8807
SWIDTH 960 0
DWIDTH 10 0
BBX 10 10 0 -2
BITMAP
0000
0000
7380
dac0
cc00
dac0
7380
0000
0000
0000
ENDCHAR
STARTCHAR 2268
ENCODING 8808
SWIDTH 960 0
DWIDTH 10 0
BBX 10 10 0 -2
BITMAP
0000
0000
7700
7700
0000
0000
1c00
1c00
0000
0000
ENDCHAR
STARTCHAR 2269
ENCODING 8809
SWIDTH 960 0
DWIDTH 10 0
BBX 10 10 0 -2
BITMAP
0c00
1a00
1800
0c00
0c00
0c00
0600
1a00
0c00
0000
ENDCHAR
STARTCHAR 226a
ENCODING 8810
SWIDTH 960 0
DWIDTH 10 0
BBX 10 10 0 -2
BITMAP
3300
6a80
6600
3300
3300
3300
1980
6a80
3300
0000
ENDCHAR
STARTCHAR 2272
ENCODING 8818
SWIDTH 960 0
DWIDTH 10 0
BBX 10 10 0 -2
BITMAP
1c00
3600
1c00
0000
1c00
3600
3e00
6300
6300
0000
ENDCHAR
STARTCHAR 2273
ENCODING 8819
SWIDTH 960 0
DWIDTH 10 0
BBX 10 10 0 -2
BITMAP
0000
6600
d400
d400
6800
3580
6b40
6b40
cd80
0000
ENDCHAR
STARTCHAR 2274
ENCODING 8820
SWIDTH 960 0
DWIDTH 10 0
BBX 10 10 0 -2
BITMAP
0600
3600
3700
3e00
7600
3700
3e00
7600
3600
3000
ENDCHAR
STARTCHAR 2275
ENCODING 8821
SWIDTH 960 0
DWIDTH 10 0
BBX 10 10 0 -2
BITMAP
1800
1800
1800
1800
1e00
1b00
1b00
1a00
1c00
0000
ENDCHAR
STARTCHAR 2276
ENCODING 8822
SWIDTH 960 0
DWIDTH 10 0
BBX 10 10 0 -2
BITMAP
0c00
0e00
0f00
0d80
0d80
0d80
3d00
7c00
3800
0000
ENDCHAR
STARTCHAR 2277
ENCODING 8823
SWIDTH 960 0
DWIDTH 10 0
BBX 10 10 0 -2
BITMAP
0c00
0c00
3b00
0c00
0c00
0c00
0c00
0c00
0c00
0000
ENDCHAR
STARTCHAR 2278
ENCODING 8824
SWIDTH 960 0
DWIDTH 10 0
BBX 10 10 0 -2
BITMAP
0c00
0c00
3b00
0c00
0c00
0c00
3b00
0c00
0c00
0000
ENDCHAR
STARTCHAR 2279
ENCODING 8825
SWIDTH 960 0
DWIDTH 10 0
BBX 10 10 0 -2
BITMAP
3e00
7a00
7a00
3a00
1a00
1a00
1a00
1a00
1a00
0000
ENDCHAR
STARTCHAR 227e
ENCODING 8830
SWIDTH 960 0
DWIDTH 10 0
BBX 10 10 0 -2
BITMAP
3e00
6300
c180
80c0
80c0
80c0
80c0
c180
6300
3e00
ENDCHAR
STARTCHAR 2330
ENCODING 9008
SWIDTH 960 0
DWIDTH 10 0
BBX 10 10 0 -2
BITMAP
0000
3e00
6300
6300
6300
6300
6300
3e00
0000
0000
ENDCHAR
STARTCHAR 2331
ENCODING 9009
SWIDTH 960 0
DWIDTH 10 0
BBX 10 10 0 -2
BITMAP
0000
0c00
1c00
3400
0c00
0c00
0c00
3f00
0000
0000
ENDCHAR
STARTCHAR 2332
ENCODING 9010
SWIDTH 960 0
DWIDTH 10 0
BBX 10 10 0 -2
BITMAP
0000
3e00
6300
0300
0e00
3800
6000
7f00
0000
0000
ENDCHAR
STARTCHAR 2333
ENCODING 9011
SWIDTH 960 0
DWIDTH 10 0
BBX 10 10 0 -2
BITMAP
0000
3e00
6300
0300
1e00
0300
6300
3e00
0000
0000
ENDCHAR
STARTCHAR 2334
ENCODING 9012
SWIDTH 960 0
DWIDTH 10 0
BBX 10 10 0 -2
BITMAP
0000
0600
0e00
1a00
3600
7f00
0600
0f00
0000
0000
ENDCHAR
STARTCHAR 2335
ENCODING 9013
SWIDTH 960 0
DWIDTH 10 0
BBX 10 10 0 -2
BITMAP
0000
7f00
6000
7e00
0300
0300
6300
3e00
0000
0000
ENDCHAR
STARTCHAR 2336
ENCODING 9014
SWIDTH 960 0
DWIDTH 10 0
BBX 10 10 0 -2
BITMAP
0000
1e00
3000
6000
7e00
6300
6300
3e00
0000
0000
ENDCHAR
STARTCHAR 2337
ENCODING 9015
SWIDTH 960 0
DWIDTH 10 0
BBX 10 10 0 -2
BITMAP
0000
7f00
6300
0600
0c00
1800
1800
1800
0000
0000
ENDCHAR
STARTCHAR 2338
ENCODING 9016
SWIDTH 960 0
DWIDTH 10 0
BBX 10 10 0 -2
BITMAP
0000
3e00
6300
6300
3e00
6300
6300
3e00
0000
0000
ENDCHAR
STARTCHAR 2339
ENCODING 9017
SWIDTH 960 0
DWIDTH 10 0
BBX 10 10 0 -2
BITMAP
0000
3e00
6300
6300
3f00
0300
0600
3c00
0000
0000
ENDCHAR
STARTCHAR 2341
ENCODING 9025
SWIDTH 960 0
DWIDTH 10 0
BBX 10 10 0 -2
BITMAP
0000
0c00
0c00
1a00
1a00
3f00
3300
7b80
0000
0000
ENDCHAR
STARTCHAR 2342
ENCODING 9026
SWIDTH 960 0
DWIDTH 10 0
BBX 10 10 0 -2
BITMAP
0000
7e00
3300
3300
3e00
3300
3300
7e00
0000
0000
ENDCHAR
STARTCHAR 2343
ENCODING 9027
SWIDTH 960 0
DWIDTH 10 0
BBX 10 10 0 -2
BITMAP
0000
1d00
3700
6000
6000
6000
3300
1e00
0000
0000
ENDCHAR
STARTCHAR 2344
ENCODING 9028
SWIDTH 960 0
DWIDTH 10 0
BBX 10 10 0 -2
BITMAP
0000
7c00
3600
3300
3300
3300
3600
7c00
0000
0000
ENDCHAR
STARTCHAR 2345
ENCODING 9029
SWIDTH 960 0
DWIDTH 10 0
BBX 10 10 0 -2
BITMAP
0000
7f00
3300
3400
3c00
3400
3300
7f00
0000
0000
ENDCHAR
STARTCHAR 2346
ENCODING 9030
SWIDTH 960 0
DWIDTH 10 0
BBX 10 10 0 -2
BITMAP
0000
7f00
3300
3400
3c00
3400
3000
7800
0000
0000
ENDCHAR
STARTCHAR 2347
ENCODING 9031
SWIDTH 960 0
DWIDTH 10 0
BBX 10 10 0 -2
BITMAP
0000
1d00
3700
6000
6f00
6300
3700
1d00
0000
0000
ENDCHAR
STARTCHAR 2348
ENCODING 9032
SWIDTH 960 0
DWIDTH 10 0
BBX 10 10 0 -2
BITMAP
0000
7b80
3300
3300
3f00
3300
3300
7b80
0000
0000
ENDCHAR
STARTCHAR 2349
ENCODING 9033
SWIDTH 960 0
DWIDTH 10 0
BBX 10 10 0 -2
BITMAP
0000
1e00
0c00
0c00
0c00
0c00
0c00
1e00
0000
0000
ENDCHAR
STARTCHAR 234a
ENCODING 9034
SWIDTH 960 0
DWIDTH 10 0
BBX 10 10 0 -2
BITMAP
0000
0f00
0600
0600
0600
6600
6600
3c00
0000
0000
ENDCHAR
STARTCHAR 234b
ENCODING 9035
SWIDTH 960 0
DWIDTH 10 0
BBX 10 10 0 -2
BITMAP
0000
7b80
3600
3400
3c00
3600
3300
7b80
0000
0000
ENDCHAR
STARTCHAR 234c
ENCODING 9036
SWIDTH 960 0
DWIDTH 10 0
BBX 10 10 0 -2
BITMAP
0000
7800
3000
3000
3000
3000
3300
7f00
0000
0000
ENDCHAR
STARTCHAR 234d
ENCODING 9037
SWIDTH 960 0
DWIDTH 10 0
BBX 10 10 0 -2
BITMAP
0000
f3c0
7380
6a80
6a80
6a80
6d80
f5c0
0000
0000
ENDCHAR
STARTCHAR 234e
ENCODING 9038
SWIDTH 960 0
DWIDTH 10 0
BBX 10 10 0 -2
BITMAP
0000
7b80
3b00
3500
3500
3700
3700
7b00
0000
0000
ENDCHAR
STARTCHAR 234f
ENCODING 9039
SWIDTH 960 0
DWIDTH 10 0
BBX 10 10 0 -2
BITMAP
0000
1e00
3300
6180
6180
6180
3300
1e00
0000
0000
ENDCHAR
STARTCHAR 2350
ENCODING 9040
SWIDTH 960 0
DWIDTH 10 0
BBX 10 10 0 -2
BITMAP
0000
7e00
3300
3300
3e00
3000
3000
7800
0000
0000
ENDCHAR
STARTCHAR 2351
ENCODING 9041
SWIDTH 960 0
DWIDTH 10 0
BBX 10 10 0 -2
BITMAP
0000
1e00
3300
6180
6180
6d80
3700
1e00
0380
0000
ENDCHAR
STARTCHAR 2352
ENCODING 9042
SWIDTH 960 0
DWIDTH 10 0
BBX 10 10 0 -2
BITMAP
0000
7e00
3300
3300
3e00
3600
3300
7b80
0000
0000
ENDCHAR
STARTCHAR 2353
ENCODING 9043
SWIDTH 960 0
DWIDTH 10 0
BBX 10 10 0 -2
BITMAP
0000
3d00
6700
6000
3e00
0300
7300
6e00
0000
0000
ENDCHAR
STARTCHAR 2354
ENCODING 9044
SWIDTH 960 0
DWIDTH 10 0
BBX 10 10 0 -2
BITMAP
0000
7f80
6d80
0c00
0c00
0c00
0c00
1e00
0000
0000
ENDCHAR
STARTCHAR 2355
ENCODING 9045
SWIDTH 960 0
DWIDTH 10 0
BBX 10 10 0 -2
BITMAP
0000
7b80
3300
3300
3300
3300
3300
1e00
0000
0000
ENDCHAR
STARTCHAR 2356
ENCODING 9046
SWIDTH 960 0
DWIDTH 10 0
BBX 10 10 0 -2
BITMAP
0000
7b80
3300
3300
1a00
1a00
0c00
0c00
0000
0000
ENDCHAR
STARTCHAR 2357
ENCODING 9047
SWIDTH 960 0
DWIDTH 10 0
BBX 10 10 0 -2
BITMAP
0000
f3c0
6d80
6d80
6a80
6a80
3300
3300
0000
0000
ENDCHAR
STARTCHAR 2358
ENCODING 9048
SWIDTH 960 0
DWIDTH 10 0
BBX 10 10 0 -2
BITMAP
0000
7b80
3300
1a00
0c00
1a00
3300
7b80
0000
0000
ENDCHAR
STARTCHAR 2359
ENCODING 9049
SWIDTH 960 0
DWIDTH 10 0
BBX 10 10 0 -2
BITMAP
0000
7b80
3300
1a00
0c00
0c00
0c00
1e00
0000
0000
ENDCHAR
STARTCHAR 235a
ENCODING 9050
SWIDTH 960 0
DWIDTH 10 0
BBX 10 10 0 -2
BITMAP
0000
7f00
6600
0c00
1800
1800
3300
7f00
0000
0000
ENDCHAR
STARTCHAR 2361
ENCODING 9057
SWIDTH 960 0
DWIDTH 10 0
BBX 10 10 0 -2
BITMAP
0000
0000
0000
1e00
0300
1f00
3300
1f00
0000
0000
ENDCHAR
STARTCHAR 2362
ENCODING 9058
SWIDTH 960 0
DWIDTH 10 0
BBX 10 10 0 -2
BITMAP
0000
7000
3000
3600
3b00
3300
3b00
3600
0000
0000
ENDCHAR
STARTCHAR 2363
ENCODING 9059
SWIDTH 960 0
DWIDTH 10 0
BBX 10 10 0 -2
BITMAP
0000
0000
0000
1e00
3300
3000
3300
1e00
0000
0000
ENDCHAR
STARTCHAR 2364
ENCODING 9060
SWIDTH 960 0
DWIDTH 10 0
BBX 10 10 0 -2
BITMAP
0000
0700
0300
1d00
3700
3300
3700
1d00
0000
0000
ENDCHAR
STARTCHAR 2365
ENCODING 9061
SWIDTH 960 0
DWIDTH 10 0
BBX 10 10 0 -2
BITMAP
0000
0000
0000
1e00
3300
3f00
3000
1e00
0000
0000
ENDCHAR
STARTCHAR 2366
ENCODING 9062
SWIDTH 960 0
DWIDTH 10 0
BBX 10 10 0 -2
BITMAP
0000
0e00
1b00
1800
3e00
1800
1800
3c00
0000
0000
ENDCHAR
STARTCHAR 2367
ENCODING 9063
SWIDTH 960 0
DWIDTH 10 0
BBX 10 10 0 -2
BITMAP
0000
0000
0000
1d00
3600
1c00
3000
1e00
3300
1e00
ENDCHAR
STARTCHAR 2368
ENCODING 9064
SWIDTH 960 0
DWIDTH 10 0
BBX 10 10 0 -2
BITMAP
0000
7000
3000
3600
3b00
3300
3300
7b80
0000
0000
ENDCHAR
STARTCHAR 2369
ENCODING 9065
SWIDTH 960 0
DWIDTH 10 0
BBX 10 10 0 -2
BITMAP
0000
0c00
0000
1c00
0c00
0c00
0c00
1e00
0000
0000
ENDCHAR
STARTCHAR 236a
ENCODING 9066
SWIDTH 960 0
DWIDTH 10 0
BBX 10 10 0 -2
BITMAP
0000
0600
0000
0e00
0600
0600
0600
0600
3600
1c00
ENDCHAR
STARTCHAR 236b
ENCODING 9067
SWIDTH 960 0
DWIDTH 10 0
BBX 10 10 0 -2
BITMAP
0000
7000
3000
3700
3600
3c00
3600
7b80
0000
0000
ENDCHAR
STARTCHAR 236c
ENCODING 9068
SWIDTH 960 0
DWIDTH 10 0
BBX 10 10 0 -2
BITMAP
0000
1c00
0c00
0c00
0c00
0c00
0c00
1e00
0000
0000
ENDCHAR
STARTCHAR 236d
ENCODING 9069
SWIDTH 960 0
DWIDTH 10 0
BBX 10 10 0 -2
BITMAP
0000
0000
0000
eb00
7680
6d80
6d80
f6c0
0000
0000
ENDCHAR
STARTCHAR 236e
ENCODING 9070
SWIDTH 960 0
DWIDTH 10 0
BBX 10 10 0 -2
BITMAP
0000
0000
0000
7600
3b00
3300
3300
7b80
0000
0000
ENDCHAR
STARTCHAR 236f
ENCODING 9071
SWIDTH 960 0
DWIDTH 10 0
BBX 10 10 0 -2
BITMAP
0000
0000
0000
1e00
3300
3300
3300
1e00
0000
0000
ENDCHAR
STARTCHAR 2370
ENCODING 9072
SWIDTH 960 0
DWIDTH 10 0
BBX 10 10 0 -2
BITMAP
0000
0000
0000
7600
3b00
3300
3b00
3600
3000
7800
ENDCHAR
STARTCHAR 2371
ENCODING 9073
SWIDTH 960 0
DWIDTH 10 0
BBX 10 10 0 -2
BITMAP
0000
0000
0000
1d80
3700
3300
3700
1d00
0300
0780
ENDCHAR
STARTCHAR 2372
ENCODING 9074
SWIDTH 960 0
DWIDTH 10 0
BBX 10 10 0 -2
BITMAP
0000
0000
0000
3b00
1c00
1800
1800
3c00
0000
0000
ENDCHAR
STARTCHAR 2373
ENCODING 9075
SWIDTH 960 0
DWIDTH 10 0
BBX 10 10 0 -2
BITMAP
0000
0000
0000
1f00
3000
1e00
0300
3e00
0000
0000
ENDCHAR
STARTCHAR 2374
ENCODING 9076
SWIDTH 960 0
DWIDTH 10 0
BBX 10 10 0 -2
BITMAP
0000
1800
1800
3e00
1800
1800
1b00
0e00
0000
0000
ENDCHAR
STARTCHAR 2375
ENCODING 9077
SWIDTH 960 0
DWIDTH 10 0
BBX 10 10 0 -2
BITMAP
0000
0000
0000
7700
3300
3300
3700
1d80
0000
0000
ENDCHAR
STARTCHAR 2376
ENCODING 9078
SWIDTH 960 0
DWIDTH 10 0
BBX 10 10 0 -2
BITMAP
0000
0000
0000
7b80
3300
1a00
1a00
0c00
0000
0000
ENDCHAR
STARTCHAR 2377
ENCODING 9079
SWIDTH 960 0
DWIDTH 10 0
BBX 10 10 0 -2
BITMAP
0000
0000
0000
f5c0
6d80
6a80
3300
3300
0000
0000
ENDCHAR
STARTCHAR 2378
ENCODING 9080
SWIDTH 960 0
DWIDTH 10 0
BBX 10 10 0 -2
BITMAP
0000
0000
0000
7700
3600
1c00
3600
7700
0000
0000
ENDCHAR
STARTCHAR 2379
ENCODING 9081
SWIDTH 960 0
DWIDTH 10 0
BBX 10 10 0 -2
BITMAP
0000
0000
0000
7b80
3300
1a00
1a00
0c00
6c00
3800
ENDCHAR
STARTCHAR 237a
ENCODING 9082
SWIDTH 960 0
DWIDTH 10 0
BBX 10 10 0 -2
BITMAP
0000
0000
0000
3f00
3600
0c00
1b00
3f00
0000
0000
ENDCHAR
STARTCHAR 2421
ENCODING 9249
SWIDTH 960 0
DWIDTH 10 0
BBX 10 10 0 -2
BITMAP
0000
0000
3000
7e00
3000
7e00
d500
db00
7600
0000
ENDCHAR
STARTCHAR 2422
ENCODING 9250
SWIDTH 960 0
DWIDTH 10 0
BBX 10 10 0 -2
BITMAP
1800
ff00
3000
3f00
7680
d580
d580
d980
7700
0000
ENDCHAR
STARTCHAR 2423
ENCODING 9251
SWIDTH 960 0
DWIDTH 10 0
BBX 10 10 0 -2
BITMAP
0000
0000
0000
6300
6300
6180
6180
6d80
3800
0000
ENDCHAR
STARTCHAR 2424
ENCODING 9252
SWIDTH 960 0
DWIDTH 10 0
BBX 10 10 0 -2
BITMAP
0000
c300
c300
c180
c180
c180
d980
d000
6000
0000
ENDCHAR
STARTCHAR 2425
ENCODING 9253
SWIDTH 960 0
DWIDTH 10 0
BBX 10 10 0 -2
BITMAP
0000
0000
3e00
0000
1e00
7300
0300
0600
1c00
0000
ENDCHAR
STARTCHAR 2426
ENCODING 9254
SWIDTH 960 0
DWIDTH 10 0
BBX 10 10 0 -2
BITMAP
3800
0e00
0000
3f00
e180
0180
0180
0300
1e00
0000
ENDCHAR
STARTCHAR 2427
ENCODING 9255
SWIDTH 960 0
DWIDTH 10 0
BBX 10 10 0 -2
BITMAP
0000
0000
1e00
0000
3f00
0600
0e00
1a00
3380
0000
ENDCHAR
STARTCHAR 2428
ENCODING 9256
SWIDTH 960 0
DWIDTH 10 0
BBX 10 10 0 -2
BITMAP
3e00
0000
7f00
0600
0c00
1c00
3600
6600
c380
0000
ENDCHAR
STARTCHAR 2429
ENCODING 9257
SWIDTH 960 0
DWIDTH 10 0
BBX 10 10 0 -2
BITMAP
0000
0000
3000
fd00
3180
3e00
7300
d300
7600
0000
ENDCHAR
STARTCHAR 242a
ENCODING 9258
SWIDTH 960 0
DWIDTH 10 0
BBX 10 10 0 -2
BITMAP
3000
3180
fe80
3000
3f00
7180
d180
d180
7700
0000
ENDCHAR
STARTCHAR 242b
ENCODING 9259
SWIDTH 960 0
DWIDTH 10 0
BBX 10 10 0 -2
BITMAP
3000
3000
fb00
3500
6d80
6d80
6d80
d400
d800
0000
ENDCHAR
STARTCHAR 242c
ENCODING 9260
SWIDTH 960 0
DWIDTH 10 0
BBX 10 10 0 -2
BITMAP
3340
3340
f800
3500
6d80
6d80
6d80
d400
d800
0000
ENDCHAR
STARTCHAR 242d
ENCODING 9261
SWIDTH 960 0
DWIDTH 10 0
BBX 10 10 0 -2
BITMAP
1800
7f00
0c00
ff80
0600
3f00
6300
6000
3e00
0000
ENDCHAR
STARTCHAR 242e
ENCODING 9262
SWIDTH 960 0
DWIDTH 10 0
BBX 10 10 0 -2
BITMAP
1b40
7d40
0c00
ff80
0600
3f00
6300
6000
3e00
0000
ENDCHAR
STARTCHAR 242f
ENCODING 9263
SWIDTH 960 0
DWIDTH 10 0
BBX 10 10 0 -2
BITMAP
0600
0c00
3800
6000
6000
3000
1800
0c00
0600
0000
ENDCHAR
STARTCHAR 2430
ENCODING 9264
SWIDTH 960 0
DWIDTH 10 0
BBX 10 10 0 -2
BITMAP
0600
0d40
3b40
6000
6000
3000
1800
0c00
0600
0000
ENDCHAR
STARTCHAR 2431
ENCODING 9265
SWIDTH 960 0
DWIDTH 10 0
BBX 10 10 0 -2
BITMAP
0300
c300
df80
c300
c300
c300
c300
c600
1c00
0000
ENDCHAR
STARTCHAR 2432
ENCODING 9266
SWIDTH 960 0
DWIDTH 10 0
BBX 10 10 0 -2
BITMAP
0340
c340
de80
c300
c300
c300
c300
c600
1c00
0000
ENDCHAR
STARTCHAR 2433
ENCODING 9267
SWIDTH 960 0
DWIDTH 10 0
BBX 10 10 0 -2
BITMAP
0000
7f00
0000
0000
0000
0000
c000
c000
7f80
0000
ENDCHAR
STARTCHAR 2434
ENCODING 9268
SWIDTH 960 0
DWIDTH 10 0
BBX 10 10 0 -2
BITMAP
0340
7d40
0000
0000
0000
0000
c000
c000
7f80
0000
ENDCHAR
STARTCHAR 2435
ENCODING 9269
SWIDTH 960 0
DWIDTH 10 0
BBX 10 10 0 -2
BITMAP
0c00
0c00
ff80
0600
0600
3f00
6300
6000
3e00
0000
ENDCHAR
STARTCHAR 2436
ENCODING 9270
SWIDTH 960 0
DWIDTH 10 0
BBX 10 10 0 -2
BITMAP
0d40
0d40
fe00
0600
0600
3f00
6300
6000
3e00
0000
ENDCHAR
STARTCHAR 2437
ENCODING 9271
SWIDTH 960 0
DWIDTH 10 0
BBX 10 10 0 -2
BITMAP
6000
6000
6000
6000
6000
6180
6180
3300
1e00
0000
ENDCHAR
STARTCHAR 2438
ENCODING 9272
SWIDTH 960 0
DWIDTH 10 0
BBX 10 10 0 -2
BITMAP
6680
6680
6000
6000
6000
6180
6180
3300
1e00
0000
ENDCHAR
STARTCHAR 2439
ENCODING 9273
SWIDTH 960 0
DWIDTH 10 0
BBX 10 10 0 -2
BITMAP
0600
ff80
0600
1e00
3600
3600
1e00
0600
1c00
0000
ENDCHAR
STARTCHAR 243a
ENCODING 9274
SWIDTH 960 0
DWIDTH 10 0
BBX 10 10 0 -2
BITMAP
0340
fd40
0600
1e00
3600
3600
1e00
0600
1c00
0000
ENDCHAR
STARTCHAR 243b
ENCODING 9275
SWIDTH 960 0
DWIDTH 10 0
BBX 10 10 0 -2
BITMAP
3300
3300
ffc0
3300
3300
3600
3000
3000
1f00
0000
ENDCHAR
STARTCHAR 243c
ENCODING 9276
SWIDTH 960 0
DWIDTH 10 0
BBX 10 10 0 -2
BITMAP
3340
3340
fe80
3300
3300
3600
3000
3000
1f00
0000
ENDCHAR
STARTCHAR 243d
ENCODING 9277
SWIDTH 960 0
DWIDTH 10 0
BBX 10 10 0 -2
BITMAP
0000
7f00
0600
0c00
ff80
1800
3000
3000
1e00
0000
ENDCHAR
STARTCHAR 243e
ENCODING 9278
SWIDTH 960 0
DWIDTH 10 0
BBX 10 10 0 -2
BITMAP
0340
7d40
0600
0c00
ff80
1800
3000
3000
1e00
0000
ENDCHAR
STARTCHAR 243f
ENCODING 9279
SWIDTH 960 0
DWIDTH 10 0
BBX 10 10 0 -2
BITMAP
3000
3000
fc00
3000
6f80
6000
6000
d800
cf80
0000
ENDCHAR
STARTCHAR 2440
ENCODING 9280
SWIDTH 960 0
DWIDTH 10 0
BBX 10 10 0 -2
BITMAP
3000
3340
fd40
3000
6f80
6000
6000
d800
cf80
0000
ENDCHAR
STARTCHAR 2441
ENCODING 9281
SWIDTH 960 0
DWIDTH 10 0
BBX 10 10 0 -2
BITMAP
1800
1800
ff80
3000
3f00
6180
0180
0300
1e00
0000
ENDCHAR
STARTCHAR 2442
ENCODING 9282
SWIDTH 960 0
DWIDTH 10 0
BBX 10 10 0 -2
BITMAP
1b40
1b40
fe00
3000
3f00
6180
0180
0300
1e00
0000
ENDCHAR
STARTCHAR 2443
ENCODING 9283
SWIDTH 960 0
DWIDTH 10 0
BBX 10 10 0 -2
BITMAP
0000
0000
0000
1e00
7300
0180
0180
0700
1c00
0000
ENDCHAR
STARTCHAR 2444
ENCODING 9284
SWIDTH 960 0
DWIDTH 10 0
BBX 10 10 0 -2
BITMAP
0000
1f00
f180
00c0
00c0
00c0
0380
1e00
0000
0000
ENDCHAR
STARTCHAR 2445
ENCODING 9285
SWIDTH 960 0
DWIDTH 10 0
BBX 10 10 0 -2
BITMAP
0340
1f40
f180
00c0
00c0
00c0
0380
1e00
0000
0000
ENDCHAR
STARTCHAR 2446
ENCODING 9286
SWIDTH 960 0
DWIDTH 10 0
BBX 10 10 0 -2
BITMAP
0000
ffc0
0600
0c00
1800
1800
1800
0c00
0700
0000
ENDCHAR
STARTCHAR 2447
ENCODING 9287
SWIDTH 960 0
DWIDTH 10 0
BBX 10 10 0 -2
BITMAP
0000
ffc0
0600
0d40
1b40
1800
1800
0c00
0700
0000
ENDCHAR
STARTCHAR 2448
ENCODING 9288
SWIDTH 960 0
DWIDTH 10 0
BBX 10 10 0 -2
BITMAP
1800
1800
1800
1b80
1c00
3000
6000
6000
3f80
0000
ENDCHAR
STARTCHAR 2449
ENCODING 9289
SWIDTH 960 0
DWIDTH 10 0
BBX 10 10 0 -2
BITMAP
1b40
1b40
1800
1b80
1c00
3000
6000
6000
3f80
0000
ENDCHAR
STARTCHAR 244a
ENCODING 9290
SWIDTH 960 0
DWIDTH 10 0
BBX 10 10 0 -2
BITMAP
1800
1b80
fcc0
3000
6300
6300
cf80
1b40
0e00
0000
ENDCHAR
STARTCHAR 244b
ENCODING 9291
SWIDTH 960 0
DWIDTH 10 0
BBX 10 10 0 -2
BITMAP
0000
c000
df80
c000
c000
c000
d800
d800
cf80
0000
ENDCHAR
STARTCHAR 244c
ENCODING 9292
SWIDTH 960 0
DWIDTH 10 0
BBX 10 10 0 -2
BITMAP
0600
6600
6f00
7680
6cc0
d4c0
db40
d580
6740
0000
ENDCHAR
STARTCHAR 244d
ENCODING 9293
SWIDTH 960 0
DWIDTH 10 0
BBX 10 10 0 -2
BITMAP
3000
3000
f700
3980
3180
3180
7780
d5c0
3700
0000
ENDCHAR
STARTCHAR 244e
ENCODING 9294
SWIDTH 960 0
DWIDTH 10 0
BBX 10 10 0 -2
BITMAP
0000
3f00
6d80
ccc0
ccc0
d8c0
d8c0
7180
0700
0000
ENDCHAR
STARTCHAR 244f
ENCODING 9295
SWIDTH 960 0
DWIDTH 10 0
BBX 10 10 0 -2
BITMAP
0300
c300
dfc0
c300
c300
c300
cf80
db40
ce00
0000
ENDCHAR
STARTCHAR 2450
ENCODING 9296
SWIDTH 960 0
DWIDTH 10 0
BBX 10 10 0 -2
BITMAP
0340
c340
de80
c300
c300
c300
cf80
db40
ce00
0000
ENDCHAR
STARTCHAR 2451
ENCODING 9297
SWIDTH 960 0
DWIDTH 10 0
BBX 10 10 0 -2
BITMAP
0680
c740
df40
c680
c600
c600
df00
d680
dc00
0000
ENDCHAR
STARTCHAR 2452
ENCODING 9298
SWIDTH 960 0
DWIDTH 10 0
BBX 10 10 0 -2
BITMAP
0000
3b00
f300
3380
6340
6300
6300
6600
3c00
0000
ENDCHAR
STARTCHAR 2453
ENCODING 9299
SWIDTH 960 0
DWIDTH 10 0
BBX 10 10 0 -2
BITMAP
0340
3b40
f000
3300
6380
6340
6300
6600
3c00
0000
ENDCHAR
STARTCHAR 2454
ENCODING 9300
SWIDTH 960 0
DWIDTH 10 0
BBX 10 10 0 -2
BITMAP
0180
3b40
f340
3180
6300
6380
6340
6600
3c00
0000
ENDCHAR
STARTCHAR 2455
ENCODING 9301
SWIDTH 960 0
DWIDTH 10 0
BBX 10 10 0 -2
BITMAP
1c00
0600
0c00
1800
6d80
66c0
c6c0
d6c0
1c00
0000
ENDCHAR
STARTCHAR 2456
ENCODING 9302
SWIDTH 960 0
DWIDTH 10 0
BBX 10 10 0 -2
BITMAP
1d40
0740
0c00
1800
6d80
66c0
c6c0
d6c0
1c00
0000
ENDCHAR
STARTCHAR 2457
ENCODING 9303
SWIDTH 960 0
DWIDTH 10 0
BBX 10 10 0 -2
BITMAP
1d80
0740
0d40
1980
6c00
66c0
c6c0
d6c0
1c00
0000
ENDCHAR
STARTCHAR 2458
ENCODING 9304
SWIDTH 960 0
DWIDTH 10 0
BBX 10 10 0 -2
BITMAP
0000
0000
3800
6c00
6600
c300
0180
00c0
0000
0000
ENDCHAR
STARTCHAR 2459
ENCODING 9305
SWIDTH 960 0
DWIDTH 10 0
BBX 10 10 0 -2
BITMAP
0000
0340
3b40
6c00
6600
c300
0180
00c0
0000
0000
ENDCHAR
STARTCHAR 245a
ENCODING 9306
SWIDTH 960 0
DWIDTH 10 0
BBX 10 10 0 -2
BITMAP
0180
0340
3b40
6d80
6600
c300
0180
00c0
0000
0000
ENDCHAR
STARTCHAR 245b
ENCODING 9307
SWIDTH 960 0
DWIDTH 10 0
BBX 10 10 0 -2
BITMAP
0000
dfc0
c300
dfc0
c300
c300
cf80
db40
ce00
0000
ENDCHAR
STARTCHAR 245c
ENCODING 9308
SWIDTH 960 0
DWIDTH 10 0
BBX 10 10 0 -2
BITMAP
0340
dd40
c600
df80
c600
c600
df00
d680
dc00
0000
ENDCHAR
STARTCHAR 245d
ENCODING 9309
SWIDTH 960 0
DWIDTH 10 0
BBX 10 10 0 -2
BITMAP
0180
df40
c740
de80
c600
c600
df00
d680
dc00
0000
ENDCHAR
STARTCHAR 245e
ENCODING 9310
SWIDTH 960 0
DWIDTH 10 0
BBX 10 10 0 -2
BITMAP
0600
7f80
0600
3f00
0600
0600
3f00
6680
3c00
0000
ENDCHAR
STARTCHAR 245f
ENCODING 9311
SWIDTH 960 0
DWIDTH 10 0
BBX 10 10 0 -2
BITMAP
0000
7c00
0d00
0d00
7f80
db40
d300
e300
0e00
0000
ENDCHAR
STARTCHAR 2460
ENCODING 9312
SWIDTH 960 0
DWIDTH 10 0
BBX 10 10 0 -2
BITMAP
3000
3000
fd80
30c0
7000
d000
d180
7180
1f00
0000
ENDCHAR
STARTCHAR 2461
ENCODING 9313
SWIDTH 960 0
DWIDTH 10 0
BBX 10 10 0 -2
BITMAP
0600
6600
6f00
7680
6cc0
d4c0
d8c0
d180
6700
0000
ENDCHAR
STARTCHAR 2462
ENCODING 9314
SWIDTH 960 0
DWIDTH 10 0
BBX 10 10 0 -2
BITMAP
1800
1800
7e00
3000
ff00
3000
3180
3180
1f00
0000
ENDCHAR
STARTCHAR 2463
ENCODING 9315
SWIDTH 960 0
DWIDTH 10 0
BBX 10 10 0 -2
BITMAP
0000
0000
0000
3400
3e00
f300
3600
1800
1800
0000
ENDCHAR
STARTCHAR 2464
ENCODING 9316
SWIDTH 960 0
DWIDTH 10 0
BBX 10 10 0 -2
BITMAP
6600
6c00
3f00
f180
3180
3700
1800
1800
1800
0000
ENDCHAR
STARTCHAR 2465
ENCODING 9317
SWIDTH 960 0
DWIDTH 10 0
BBX 10 10 0 -2
BITMAP
0000
0000
0c00
6e00
7500
6d00
6e00
0c00
1800
0000
ENDCHAR
STARTCHAR 2466
ENCODING 9318
SWIDTH 960 0
DWIDTH 10 0
BBX 10 10 0 -2
BITMAP
0c00
cc00
df00
ed80
cd80
d580
df00
0c00
1800
0000
ENDCHAR
STARTCHAR 2467
ENCODING 9319
SWIDTH 960 0
DWIDTH 10 0
BBX 10 10 0 -2
BITMAP
0000
0000
0c00
0c00
0f00
0c00
3c00
6e00
3b00
0000
ENDCHAR
STARTCHAR 2468
ENCODING 9320
SWIDTH 960 0
DWIDTH 10 0
BBX 10 10 0 -2
BITMAP
0c00
0c00
0f80
0c00
0c00
0c00
7e00
cd00
7980
0000
ENDCHAR
STARTCHAR 2469
ENCODING 9321
SWIDTH 960 0
DWIDTH 10 0
BBX 10 10 0 -2
BITMAP
3c00
0700
3000
3000
7f00
6180
0180
0300
1e00
0000
ENDCHAR
STARTCHAR 246a
ENCODING 9322
SWIDTH 960 0
DWIDTH 10 0
BBX 10 10 0 -2
BITMAP
6300
6300
6300
6300
6b00
3300
0300
0600
1c00
0000
ENDCHAR
STARTCHAR 246b
ENCODING 9323
SWIDTH 960 0
DWIDTH 10 0
BBX 10 10 0 -2
BITMAP
7e00
0c00
1800
3e00
6300
c180
1d80
3700
1e00
0000
ENDCHAR
STARTCHAR 246c
ENCODING 9324
SWIDTH 960 0
DWIDTH 10 0
BBX 10 10 0 -2
BITMAP
3000
3000
f600
3b00
3300
3300
7300
d340
3180
0000
ENDCHAR
STARTCHAR 246d
ENCODING 9325
SWIDTH 960 0
DWIDTH 10 0
BBX 10 10 0 -2
BITMAP
7e00
0c00
1800
3e00
6300
c180
0180
0300
1e00
0000
ENDCHAR
STARTCHAR 246e
ENCODING 9326
SWIDTH 960 0
DWIDTH 10 0
BBX 10 10 0 -2
BITMAP
0000
0000
3000
3000
7600
3b00
3300
7300
3600
0000
ENDCHAR
STARTCHAR 246f
ENCODING 9327
SWIDTH 960 0
DWIDTH 10 0
BBX 10 10 0 -2
BITMAP
3000
3000
f700
3980
30c0
30c0
70c0
d180
3700
0000
ENDCHAR
STARTCHAR 2470
ENCODING 9328
SWIDTH 960 0
DWIDTH 10 0
BBX 10 10 0 -2
BITMAP
0000
7e00
0c00
3e00
6b00
d980
d780
d580
6700
0000
ENDCHAR
STARTCHAR 2471
ENCODING 9329
SWIDTH 960 0
DWIDTH 10 0
BBX 10 10 0 -2
BITMAP
3e00
0c00
1e00
3300
6d00
1e00
3000
7b80
cdc0
0000
ENDCHAR
STARTCHAR 2472
ENCODING 9330
SWIDTH 960 0
DWIDTH 10 0
BBX 10 10 0 -2
BITMAP
1800
ff00
3000
3b80
6e00
da00
3600
3000
1f00
0000
ENDCHAR
STARTCHAR 2473
ENCODING 9331
SWIDTH 960 0
DWIDTH 10 0
BBX 10 10 0 -2
BITMAP
0c00
1800
1800
3000
3800
6c00
6d80
cd80
c700
0000
ENDCHAR
STARTCHAR 2521
ENCODING 9505
SWIDTH 960 0
DWIDTH 10 0
BBX 10 10 0 -2
BITMAP
0000
0000
0000
3f80
0180
0d00
0c00
0c00
1800
0000
ENDCHAR
STARTCHAR 2522
ENCODING 9506
SWIDTH 960 0
DWIDTH 10 0
BBX 10 10 0 -2
BITMAP
0000
ff80
0180
1b00
1a00
1800
1800
3000
6000
0000
ENDCHAR
STARTCHAR 2523
ENCODING 9507
SWIDTH 960 0
DWIDTH 10 0
BBX 10 10 0 -2
BITMAP
0000
0000
0300
0600
0c00
3c00
6c00
0c00
0c00
0000
ENDCHAR
STARTCHAR 2524
ENCODING 9508
SWIDTH 960 0
DWIDTH 10 0
BBX 10 10 0 -2
BITMAP
0180
0300
0600
0c00
3c00
ec00
0c00
0c00
0c00
0000
ENDCHAR
STARTCHAR 2525
ENCODING 9509
SWIDTH 960 0
DWIDTH 10 0
BBX 10 10 0 -2
BITMAP
0000
0000
0c00
0c00
7f00
6300
0300
0600
1c00
0000
ENDCHAR
STARTCHAR 2526
ENCODING 9510
SWIDTH 960 0
DWIDTH 10 0
BBX 10 10 0 -2
BITMAP
0c00
0c00
7f80
6180
6180
0180
0300
0600
1c00
0000
ENDCHAR
STARTCHAR 2527
ENCODING 9511
SWIDTH 960 0
DWIDTH 10 0
BBX 10 10 0 -2
BITMAP
0000
0000
0000
0000
3f00
0c00
0c00
0c00
7f80
0000
ENDCHAR
STARTCHAR 2528
ENCODING 9512
SWIDTH 960 0
DWIDTH 10 0
BBX 10 10 0 -2
BITMAP
0000
0000
7f80
0c00
0c00
0c00
0c00
ffc0
0000
0000
ENDCHAR
STARTCHAR 2529
ENCODING 9513
SWIDTH 960 0
DWIDTH 10 0
BBX 10 10 0 -2
BITMAP
0000
0000
0600
0600
7f00
0e00
1a00
3600
6e00
0000
ENDCHAR
STARTCHAR 252a
ENCODING 9514
SWIDTH 960 0
DWIDTH 10 0
BBX 10 10 0 -2
BITMAP
0600
0600
ff80
0e00
1a00
3600
6600
c600
0e00
0000
ENDCHAR
STARTCHAR 252b
ENCODING 9515
SWIDTH 960 0
DWIDTH 10 0
BBX 10 10 0 -2
BITMAP
1800
1800
ff80
1980
1980
3180
3180
6180
c700
0000
ENDCHAR
STARTCHAR 252c
ENCODING 9516
SWIDTH 960 0
DWIDTH 10 0
BBX 10 10 0 -2
BITMAP
1b40
1b40
ff80
1980
1980
3180
3180
6180
c700
0000
ENDCHAR
STARTCHAR 252d
ENCODING 9517
SWIDTH 960 0
DWIDTH 10 0
BBX 10 10 0 -2
BITMAP
1800
1800
7f80
0c00
0c00
ffc0
0600
0600
0600
0000
ENDCHAR
STARTCHAR 252e
ENCODING 9518
SWIDTH 960 0
DWIDTH 10 0
BBX 10 10 0 -2
BITMAP
1b40
1b40
7f80
0c00
0c00
ffc0
0600
0600
0600
0000
ENDCHAR
STARTCHAR 252f
ENCODING 9519
SWIDTH 960 0
DWIDTH 10 0
BBX 10 10 0 -2
BITMAP
1800
1f80
1980
3180
6180
0300
0300
0e00
3800
0000
ENDCHAR
STARTCHAR 2530
ENCODING 9520
SWIDTH 960 0
DWIDTH 10 0
BBX 10 10 0 -2
BITMAP
1b40
1f40
1980
3180
6180
0300
0300
0e00
3800
0000
ENDCHAR
STARTCHAR 2531
ENCODING 9521
SWIDTH 960 0
DWIDTH 10 0
BBX 10 10 0 -2
BITMAP
3000
3000
3f80
6600
c600
0600
0600
0c00
3800
0000
ENDCHAR
STARTCHAR 2532
ENCODING 9522
SWIDTH 960 0
DWIDTH 10 0
BBX 10 10 0 -2
BITMAP
3340
3340
3f80
6600
c600
0600
0600
0c00
3800
0000
ENDCHAR
STARTCHAR 2533
ENCODING 9523
SWIDTH 960 0
DWIDTH 10 0
BBX 10 10 0 -2
BITMAP
0000
0000
7f80
0180
0180
0180
0180
7f80
0180
0000
ENDCHAR
STARTCHAR 2534
ENCODING 9524
SWIDTH 960 0
DWIDTH 10 0
BBX 10 10 0 -2
BITMAP
0340
0340
7f80
0180
0180
0180
0180
7f80
0180
0000
ENDCHAR
STARTCHAR 2535
ENCODING 9525
SWIDTH 960 0
DWIDTH 10 0
BBX 10 10 0 -2
BITMAP
3300
3300
ffc0
3300
3300
3300
0300
0600
1c00
0000
ENDCHAR
STARTCHAR 2536
ENCODING 9526
SWIDTH 960 0
DWIDTH 10 0
BBX 10 10 0 -2
BITMAP
3340
3340
fe80
3300
3300
3300
0300
0600
1c00
0000
ENDCHAR
STARTCHAR 2537
ENCODING 9527
SWIDTH 960 0
DWIDTH 10 0
BBX 10 10 0 -2
BITMAP
0000
7000
1980
0180
7180
1b00
0300
0e00
7800
0000
ENDCHAR
STARTCHAR 2538
ENCODING 9528
SWIDTH 960 0
DWIDTH 10 0
BBX 10 10 0 -2
BITMAP
0340
7340
1980
0180
7180
1b00
0300
0e00
7800
0000
ENDCHAR
STARTCHAR 2539
ENCODING 9529
SWIDTH 960 0
DWIDTH 10 0
BBX 10 10 0 -2
BITMAP
0000
7f00
0300
0600
0600
0c00
1a00
3300
e180
0000
ENDCHAR
STARTCHAR 253a
ENCODING 9530
SWIDTH 960 0
DWIDTH 10 0
BBX 10 10 0 -2
BITMAP
0340
7f40
0300
0600
0600
0c00
1a00
3300
e180
0000
ENDCHAR
STARTCHAR 253b
ENCODING 9531
SWIDTH 960 0
DWIDTH 10 0
BBX 10 10 0 -2
BITMAP
6000
6000
6f80
f980
6300
6600
6000
6000
3f00
0000
ENDCHAR
STARTCHAR 253c
ENCODING 9532
SWIDTH 960 0
DWIDTH 10 0
BBX 10 10 0 -2
BITMAP
6340
6340
6f80
f980
6300
6600
6000
6000
3f00
0000
ENDCHAR
STARTCHAR 253d
ENCODING 9533
SWIDTH 960 0
DWIDTH 10 0
BBX 10 10 0 -2
BITMAP
0000
6180
3180
1980
0300
0300
0600
0c00
3800
0000
ENDCHAR
STARTCHAR 253e
ENCODING 9534
SWIDTH 960 0
DWIDTH 10 0
BBX 10 10 0 -2
BITMAP
0340
6340
3180
1980
0300
0300
0600
0c00
3800
0000
ENDCHAR
STARTCHAR 253f
ENCODING 9535
SWIDTH 960 0
DWIDTH 10 0
BBX 10 10 0 -2
BITMAP
1800
1f80
1980
3980
6d80
0700
0300
0e00
3800
0000
ENDCHAR
STARTCHAR 2540
ENCODING 9536
SWIDTH 960 0
DWIDTH 10 0
BBX 10 10 0 -2
BITMAP
1b40
1f40
1980
3980
6d80
0700
0300
0e00
3800
0000
ENDCHAR
STARTCHAR 2541
ENCODING 9537
SWIDTH 960 0
DWIDTH 10 0
BBX 10 10 0 -2
BITMAP
0000
0700
7c00
0c00
ff80
0c00
0c00
1800
7000
0000
ENDCHAR
STARTCHAR 2542
ENCODING 9538
SWIDTH 960 0
DWIDTH 10 0
BBX 10 10 0 -2
BITMAP
0340
0740
7c00
0c00
ff80
0c00
0c00
1800
7000
0000
ENDCHAR
STARTCHAR 2543
ENCODING 9539
SWIDTH 960 0
DWIDTH 10 0
BBX 10 10 0 -2
BITMAP
0000
0000
0000
0000
6b00
6b00
0300
0600
1c00
0000
ENDCHAR
STARTCHAR 2544
ENCODING 9540
SWIDTH 960 0
DWIDTH 10 0
BBX 10 10 0 -2
BITMAP
0000
1800
6d80
3580
3180
0300
0300
0e00
3800
0000
ENDCHAR
STARTCHAR 2545
ENCODING 9541
SWIDTH 960 0
DWIDTH 10 0
BBX 10 10 0 -2
BITMAP
0340
1b40
6c00
3580
3180
0300
0300
0e00
3800
0000
ENDCHAR
STARTCHAR 2546
ENCODING 9542
SWIDTH 960 0
DWIDTH 10 0
BBX 10 10 0 -2
BITMAP
0000
7f00
0000
ff80
0c00
0c00
0c00
1800
7000
0000
ENDCHAR
STARTCHAR 2547
ENCODING 9543
SWIDTH 960 0
DWIDTH 10 0
BBX 10 10 0 -2
BITMAP
0340
7d40
0000
ff80
0c00
0c00
0c00
1800
7000
0000
ENDCHAR
STARTCHAR 2548
ENCODING 9544
SWIDTH 960 0
DWIDTH 10 0
BBX 10 10 0 -2
BITMAP
3000
3000
3000
3800
3600
3300
3000
3000
3000
0000
ENDCHAR
STARTCHAR 2549
ENCODING 9545
SWIDTH 960 0
DWIDTH 10 0
BBX 10 10 0 -2
BITMAP
3680
3680
3000
3800
3600
3300
3000
3000
3000
0000
ENDCHAR
STARTCHAR 254a
ENCODING 9546
SWIDTH 960 0
DWIDTH 10 0
BBX 10 10 0 -2
BITMAP
0c00
0c00
ff80
0c00
0c00
0c00
0c00
1800
7000
0000
ENDCHAR
STARTCHAR 254b
ENCODING 9547
SWIDTH 960 0
DWIDTH 10 0
BBX 10 10 0 -2
BITMAP
0000
0000
7f00
0000
0000
0000
0000
ff80
0000
0000
ENDCHAR
STARTCHAR 254c
ENCODING 9548
SWIDTH 960 0
DWIDTH 10 0
BBX 10 10 0 -2
BITMAP
0000
7f80
0180
0300
1d00
0600
0d00
1980
7000
0000
ENDCHAR
STARTCHAR 254d
ENCODING 9549
SWIDTH 960 0
DWIDTH 10 0
BBX 10 10 0 -2
BITMAP
0c00
0c00
7f80
0300
0600
1e00
7580
0c00
0c00
0000
ENDCHAR
STARTCHAR 254e
ENCODING 9550
SWIDTH 960 0
DWIDTH 10 0
BBX 10 10 0 -2
BITMAP
0000
0180
0180
0300
0300
0600
0c00
1800
7000
0000
ENDCHAR
STARTCHAR 254f
ENCODING 9551
SWIDTH 960 0
DWIDTH 10 0
BBX 10 10 0 -2
BITMAP
0000
3600
3600
3300
3300
6300
6180
6180
c180
0000
ENDCHAR
STARTCHAR 2550
ENCODING 9552
SWIDTH 960 0
DWIDTH 10 0
BBX 10 10 0 -2
BITMAP
0340
3340
3600
3300
3300
6300
6180
6180
c180
0000
ENDCHAR
STARTCHAR 2551
ENCODING 9553
SWIDTH 960 0
DWIDTH 10 0
BBX 10 10 0 -2
BITMAP
0180
0340
3340
3680
3300
6300
6180
6180
c180
0000
ENDCHAR
STARTCHAR 2552
ENCODING 9554
SWIDTH 960 0
DWIDTH 10 0
BBX 10 10 0 -2
BITMAP
6000
6000
6380
6e00
7800
6000
6000
6000
3f80
0000
ENDCHAR
STARTCHAR 2553
ENCODING 9555
SWIDTH 960 0
DWIDTH 10 0
BBX 10 10 0 -2
BITMAP
6340
6340
6300
6e00
7800
6000
6000
6000
3f80
0000
ENDCHAR
STARTCHAR 2554
ENCODING 9556
SWIDTH 960 0
DWIDTH 10 0
BBX 10 10 0 -2
BITMAP
6180
6340
6340
6e80
7800
6000
6000
6000
3f80
0000
ENDCHAR
STARTCHAR 2555
ENCODING 9557
SWIDTH 960 0
DWIDTH 10 0
BBX 10 10 0 -2
BITMAP
0000
7f80
0180
0180
0180
0300
0300
0e00
3800
0000
ENDCHAR
STARTCHAR 2556
ENCODING 9558
SWIDTH 960 0
DWIDTH 10 0
BBX 10 10 0 -2
BITMAP
0340
0340
7f80
0180
0180
0300
0300
0e00
3800
0000
ENDCHAR
STARTCHAR 2557
ENCODING 9559
SWIDTH 960 0
DWIDTH 10 0
BBX 10 10 0 -2
BITMAP
0180
0340
7f40
0180
0180
0300
0300
0e00
3800
0000
ENDCHAR
STARTCHAR 2558
ENCODING 9560
SWIDTH 960 0
DWIDTH 10 0
BBX 10 10 0 -2
BITMAP
0000
0000
3000
6800
cc00
0600
0300
0180
0000
0000
ENDCHAR
STARTCHAR 2559
ENCODING 9561
SWIDTH 960 0
DWIDTH 10 0
BBX 10 10 0 -2
BITMAP
0000
0680
3680
6800
cc00
0600
0300
0180
0000
0000
ENDCHAR
STARTCHAR 255a
ENCODING 9562
SWIDTH 960 0
DWIDTH 10 0
BBX 10 10 0 -2
BITMAP
0180
0340
3340
6980
cc00
0600
0300
0180
0000
0000
ENDCHAR
STARTCHAR 255b
ENCODING 9563
SWIDTH 960 0
DWIDTH 10 0
BBX 10 10 0 -2
BITMAP
0c00
0c00
ffc0
0c00
0c00
6d80
6cc0
ccc0
1c00
0000
ENDCHAR
STARTCHAR 255c
ENCODING 9564
SWIDTH 960 0
DWIDTH 10 0
BBX 10 10 0 -2
BITMAP
0d40
0d40
ff80
0c00
0c00
6d80
6cc0
ccc0
1c00
0000
ENDCHAR
STARTCHAR 255d
ENCODING 9565
SWIDTH 960 0
DWIDTH 10 0
BBX 10 10 0 -2
BITMAP
0d80
0d40
ff40
0d80
0c00
6d80
6cc0
ccc0
1c00
0000
ENDCHAR
STARTCHAR 255e
ENCODING 9566
SWIDTH 960 0
DWIDTH 10 0
BBX 10 10 0 -2
BITMAP
0000
0000
ff80
0300
0600
3400
1800
0c00
0c00
0000
ENDCHAR
STARTCHAR 255f
ENCODING 9567
SWIDTH 960 0
DWIDTH 10 0
BBX 10 10 0 -2
BITMAP
0000
3c00
0700
0000
3c00
0700
0000
7c00
0700
0000
ENDCHAR
STARTCHAR 2560
ENCODING 9568
SWIDTH 960 0
DWIDTH 10 0
BBX 10 10 0 -2
BITMAP
0000
1800
1800
1800
3000
3600
6300
6f00
f980
0000
ENDCHAR
STARTCHAR 2561
ENCODING 9569
SWIDTH 960 0
DWIDTH 10 0
BBX 10 10 0 -2
BITMAP
0000
0180
0180
3b00
0d00
0600
0d00
1980
7000
0000
ENDCHAR
STARTCHAR 2562
ENCODING 9570
SWIDTH 960 0
DWIDTH 10 0
BBX 10 10 0 -2
BITMAP
0000
7f00
1800
1800
ff80
1800
1800
1800
0f80
0000
ENDCHAR
STARTCHAR 2563
ENCODING 9571
SWIDTH 960 0
DWIDTH 10 0
BBX 10 10 0 -2
BITMAP
0000
0000
1800
1800
7f00
1b00
1a00
1800
1800
0000
ENDCHAR
STARTCHAR 2564
ENCODING 9572
SWIDTH 960 0
DWIDTH 10 0
BBX 10 10 0 -2
BITMAP
3000
3000
1fc0
f980
1b00
1800
0c00
0c00
0c00
0000
ENDCHAR
STARTCHAR 2565
ENCODING 9573
SWIDTH 960 0
DWIDTH 10 0
BBX 10 10 0 -2
BITMAP
0000
0000
0000
0000
3e00
0600
0600
7f80
0000
0000
ENDCHAR
STARTCHAR 2566
ENCODING 9574
SWIDTH 960 0
DWIDTH 10 0
BBX 10 10 0 -2
BITMAP
0000
0000
7f00
0300
0300
0600
0600
ff80
0000
0000
ENDCHAR
STARTCHAR 2567
ENCODING 9575
SWIDTH 960 0
DWIDTH 10 0
BBX 10 10 0 -2
BITMAP
0000
0000
0000
0000
7e00
0600
7e00
0600
7e00
0000
ENDCHAR
STARTCHAR 2568
ENCODING 9576
SWIDTH 960 0
DWIDTH 10 0
BBX 10 10 0 -2
BITMAP
0000
7f80
0180
0180
7f80
0180
0180
7f80
0180
0000
ENDCHAR
STARTCHAR 2569
ENCODING 9577
SWIDTH 960 0
DWIDTH 10 0
BBX 10 10 0 -2
BITMAP
0000
3f00
0000
7f80
0180
0180
0300
0600
1c00
0000
ENDCHAR
STARTCHAR 256a
ENCODING 9578
SWIDTH 960 0
DWIDTH 10 0
BBX 10 10 0 -2
BITMAP
6300
6300
6300
6300
6300
0300
0600
0c00
3800
0000
ENDCHAR
STARTCHAR 256b
ENCODING 9579
SWIDTH 960 0
DWIDTH 10 0
BBX 10 10 0 -2
BITMAP
0000
6c00
6c00
6c00
6c00
6d80
6d80
cd00
ce00
0000
ENDCHAR
STARTCHAR 256c
ENCODING 9580
SWIDTH 960 0
DWIDTH 10 0
BBX 10 10 0 -2
BITMAP
0000
6000
6000
6000
6000
6180
6300
6e00
7800
0000
ENDCHAR
STARTCHAR 256d
ENCODING 9581
SWIDTH 960 0
DWIDTH 10 0
BBX 10 10 0 -2
BITMAP
0000
0000
7f80
6180
6180
6180
6180
7f80
6180
0000
ENDCHAR
STARTCHAR 256e
ENCODING 9582
SWIDTH 960 0
DWIDTH 10 0
BBX 10 10 0 -2
BITMAP
0000
0000
0000
7f00
6300
0300
0300
0600
1c00
0000
ENDCHAR
STARTCHAR 256f
ENCODING 9583
SWIDTH 960 0
DWIDTH 10 0
BBX 10 10 0 -2
BITMAP
0000
7f80
6180
6180
0180
0180
0300
0600
1c00
0000
ENDCHAR
STARTCHAR 2570
ENCODING 9584
SWIDTH 960 0
DWIDTH 10 0
BBX 10 10 0 -2
BITMAP
0600
0600
ff80
6600
6600
ff80
0600
0600
0600
0000
ENDCHAR
STARTCHAR 2571
ENCODING 9585
SWIDTH 960 0
DWIDTH 10 0
BBX 10 10 0 -2
BITMAP
0000
7f00
0300
1a00
1800
1800
1800
ff80
0000
0000
ENDCHAR
STARTCHAR 2572
ENCODING 9586
SWIDTH 960 0
DWIDTH 10 0
BBX 10 10 0 -2
BITMAP
0000
7f80
0180
0180
7f80
0300
0300
0e00
3800
0000
ENDCHAR
STARTCHAR 2573
ENCODING 9587
SWIDTH 960 0
DWIDTH 10 0
BBX 10 10 0 -2
BITMAP
0000
7000
1980
0180
0180
0300
0300
0e00
7800
0000
ENDCHAR
STARTCHAR 2574
ENCODING 9588
SWIDTH 960 0
DWIDTH 10 0
BBX 10 10 0 -2
BITMAP
0d40
0d40
7f80
6180
6180
0180
0300
0600
1c00
0000
ENDCHAR
STARTCHAR 2575
ENCODING 9589
SWIDTH 960 0
DWIDTH 10 0
BBX 10 10 0 -2
BITMAP
0000
0000
1800
1800
7f00
1b00
1b00
3300
6700
0000
ENDCHAR
STARTCHAR 2576
ENCODING 9590
SWIDTH 960 0
DWIDTH 10 0
BBX 10 10 0 -2
BITMAP
0000
0000
1800
1800
3f80
6600
0600
0c00
3800
0000
ENDCHAR
STARTCHAR 2621
ENCODING 9761
SWIDTH 960 0
DWIDTH 10 0
BBX 10 10 0 -2
BITMAP
0000
0c00
0c00
1a00
1a00
3f00
3300
7b80
0000
0000
ENDCHAR
STARTCHAR 2622
ENCODING 9762
SWIDTH 960 0
DWIDTH 10 0
BBX 10 10 0 -2
BITMAP
0000
7e00
3300
3300
3e00
3300
3300
7e00
0000
0000
ENDCHAR
STARTCHAR 2623
ENCODING 9763
SWIDTH 960 0
DWIDTH 10 0
BBX 10 10 0 -2
BITMAP
0000
7f00
3300
3000
3000
3000
3000
7800
0000
0000
ENDCHAR
STARTCHAR 2624
ENCODING 9764
SWIDTH 960 0
DWIDTH 10 0
BBX 10 10 0 -2
BITMAP
0000
0c00
0c00
1a00
1a00
3300
3300
7f80
0000
0000
ENDCHAR
STARTCHAR 2625
ENCODING 9765
SWIDTH 960 0
DWIDTH 10 0
BBX 10 10 0 -2
BITMAP
0000
7f00
3300
3400
3c00
3400
3300
7f00
0000
0000
ENDCHAR
STARTCHAR 2626
ENCODING 9766
SWIDTH 960 0
DWIDTH 10 0
BBX 10 10 0 -2
BITMAP
0000
7f00
6600
0c00
1800
1800
3300
7f00
0000
0000
ENDCHAR
STARTCHAR 2627
ENCODING 9767
SWIDTH 960 0
DWIDTH 10 0
BBX 10 10 0 -2
BITMAP
0000
7b80
3300
3300
3f00
3300
3300
7b80
0000
0000
ENDCHAR
STARTCHAR 2628
ENCODING 9768
SWIDTH 960 0
DWIDTH 10 0
BBX 10 10 0 -2
BITMAP
0000
1e00
3300
6180
6e80
6180
3300
1e00
0000
0000
ENDCHAR
STARTCHAR 2629
ENCODING 9769
SWIDTH 960 0
DWIDTH 10 0
BBX 10 10 0 -2
BITMAP
0000
1e00
0c00
0c00
0c00
0c00
0c00
1e00
0000
0000
ENDCHAR
STARTCHAR 262a
ENCODING 9770
SWIDTH 960 0
DWIDTH 10 0
BBX 10 10 0 -2
BITMAP
0000
7b80
3600
3400
3800
3400
3600
7b80
0000
0000
ENDCHAR
STARTCHAR 262b
ENCODING 9771
SWIDTH 960 0
DWIDTH 10 0
BBX 10 10 0 -2
BITMAP
0000
0c00
0c00
1a00
1a00
3300
3300
7b80
0000
0000
ENDCHAR
STARTCHAR 262c
ENCODING 9772
SWIDTH 960 0
DWIDTH 10 0
BBX 10 10 0 -2
BITMAP
0000
e1c0
7380
7380
6a80
6a80
6d80
f5c0
0000
0000
ENDCHAR
STARTCHAR 262d
ENCODING 9773
SWIDTH 960 0
DWIDTH 10 0
BBX 10 10 0 -2
BITMAP
0000
e780
7300
6b00
6d00
6700
6300
f780
0000
0000
ENDCHAR
STARTCHAR 262e
ENCODING 9774
SWIDTH 960 0
DWIDTH 10 0
BBX 10 10 0 -2
BITMAP
0000
7f00
6300
0000
3e00
0000
6300
7f00
0000
0000
ENDCHAR
STARTCHAR 262f
ENCODING 9775
SWIDTH 960 0
DWIDTH 10 0
BBX 10 10 0 -2
BITMAP
0000
1e00
3300
6180
6180
6180
3300
1e00
0000
0000
ENDCHAR
STARTCHAR 2630
ENCODING 9776
SWIDTH 960 0
DWIDTH 10 0
BBX 10 10 0 -2
BITMAP
0000
7f80
3300
3300
3300
3300
3300
7b80
0000
0000
ENDCHAR
STARTCHAR 2631
ENCODING 9777
SWIDTH 960 0
DWIDTH 10 0
BBX 10 10 0 -2
BITMAP
0000
7e00
3300
3300
3e00
3000
3000
7800
0000
0000
ENDCHAR
STARTCHAR 2632
ENCODING 9778
SWIDTH 960 0
DWIDTH 10 0
BBX 10 10 0 -2
BITMAP
0000
7f00
3300
1800
0c00
1800
3300
7f00
0000
0000
ENDCHAR
STARTCHAR 2633
ENCODING 9779
SWIDTH 960 0
DWIDTH 10 0
BBX 10 10 0 -2
BITMAP
0000
7f80
6d80
0c00
0c00
0c00
0c00
1e00
0000
0000
ENDCHAR
STARTCHAR 2634
ENCODING 9780
SWIDTH 960 0
DWIDTH 10 0
BBX 10 10 0 -2
BITMAP
0000
3300
6a80
6d80
0c00
0c00
0c00
1e00
0000
0000
ENDCHAR
STARTCHAR 2635
ENCODING 9781
SWIDTH 960 0
DWIDTH 10 0
BBX 10 10 0 -2
BITMAP
0000
0c00
3f00
6d80
6d80
6d80
3f00
0c00
0000
0000
ENDCHAR
STARTCHAR 2636
ENCODING 9782
SWIDTH 960 0
DWIDTH 10 0
BBX 10 10 0 -2
BITMAP
0000
7b80
3300
1a00
0c00
1a00
3300
7b80
0000
0000
ENDCHAR
STARTCHAR 2637
ENCODING 9783
SWIDTH 960 0
DWIDTH 10 0
BBX 10 10 0 -2
BITMAP
0000
1e00
6d80
d540
3500
1e00
0c00
1e00
0000
0000
ENDCHAR
STARTCHAR 2638
ENCODING 9784
SWIDTH 960 0
DWIDTH 10 0
BBX 10 10 0 -2
BITMAP
0000
1e00
3300
6180
6180
3300
6a80
7b80
0000
0000
ENDCHAR
STARTCHAR 2641
ENCODING 9793
SWIDTH 960 0
DWIDTH 10 0
BBX 10 10 0 -2
BITMAP
0000
0000
0000
1d00
3700
6600
6c00
3b00
0000
0000
ENDCHAR
STARTCHAR 2642
ENCODING 9794
SWIDTH 960 0
DWIDTH 10 0
BBX 10 10 0 -2
BITMAP
0000
0e00
1b00
1b00
1a00
3300
3b00
3600
3000
3000
ENDCHAR
STARTCHAR 2643
ENCODING 9795
SWIDTH 960 0
DWIDTH 10 0
BBX 10 10 0 -2
BITMAP
0000
0000
0000
3b00
6e00
0c00
0c00
1800
1800
0000
ENDCHAR
STARTCHAR 2644
ENCODING 9796
SWIDTH 960 0
DWIDTH 10 0
BBX 10 10 0 -2
BITMAP
0000
0e00
1b00
0c00
1a00
3600
3600
1c00
0000
0000
ENDCHAR
STARTCHAR 2645
ENCODING 9797
SWIDTH 960 0
DWIDTH 10 0
BBX 10 10 0 -2
BITMAP
0000
0000
0000
0e00
1b00
1c00
3300
1e00
0000
0000
ENDCHAR
STARTCHAR 2646
ENCODING 9798
SWIDTH 960 0
DWIDTH 10 0
BBX 10 10 0 -2
BITMAP
0000
0c00
1f00
0c00
1800
3000
3000
1c00
0600
1c00
ENDCHAR
STARTCHAR 2647
ENCODING 9799
SWIDTH 960 0
DWIDTH 10 0
BBX 10 10 0 -2
BITMAP
0000
0000
0000
3a00
6d00
1b00
3300
3600
0600
0600
ENDCHAR
STARTCHAR 2648
ENCODING 9800
SWIDTH 960 0
DWIDTH 10 0
BBX 10 10 0 -2
BITMAP
0000
0e00
1b00
1b00
3f00
3600
3600
1c00
0000
0000
ENDCHAR
STARTCHAR 2649
ENCODING 9801
SWIDTH 960 0
DWIDTH 10 0
BBX 10 10 0 -2
BITMAP
0000
0000
0000
0c00
0c00
1800
1a00
0c00
0000
0000
ENDCHAR
STARTCHAR 264a
ENCODING 9802
SWIDTH 960 0
DWIDTH 10 0
BBX 10 10 0 -2
BITMAP
0000
0000
0000
1b00
1a00
1c00
3500
3600
0000
0000
ENDCHAR
STARTCHAR 264b
ENCODING 9803
SWIDTH 960 0
DWIDTH 10 0
BBX 10 10 0 -2
BITMAP
0000
1c00
0600
0600
0e00
1a00
1b00
3300
0000
0000
ENDCHAR
STARTCHAR 264c
ENCODING 9804
SWIDTH 960 0
DWIDTH 10 0
BBX 10 10 0 -2
BITMAP
0000
0000
0000
1b00
1b00
3600
3600
6d80
6000
6000
ENDCHAR
STARTCHAR 264d
ENCODING 9805
SWIDTH 960 0
DWIDTH 10 0
BBX 10 10 0 -2
BITMAP
0000
0000
0000
3300
6b00
1a00
1a00
3c00
0000
0000
ENDCHAR
STARTCHAR 264e
ENCODING 9806
SWIDTH 960 0
DWIDTH 10 0
BBX 10 10 0 -2
BITMAP
0000
0600
0f00
1800
1e00
3000
3000
1e00
0600
1c00
ENDCHAR
STARTCHAR 264f
ENCODING 9807
SWIDTH 960 0
DWIDTH 10 0
BBX 10 10 0 -2
BITMAP
0000
0000
0000
0e00
1b00
3300
3600
1c00
0000
0000
ENDCHAR
STARTCHAR 2650
ENCODING 9808
SWIDTH 960 0
DWIDTH 10 0
BBX 10 10 0 -2
BITMAP
0000
0000
0000
3f80
6a00
1a00
3600
6380
0000
0000
ENDCHAR
STARTCHAR 2651
ENCODING 9809
SWIDTH 960 0
DWIDTH 10 0
BBX 10 10 0 -2
BITMAP
0000
0000
0000
0e00
1b00
1b00
3b00
3600
3000
3000
ENDCHAR
STARTCHAR 2652
ENCODING 9810
SWIDTH 960 0
DWIDTH 10 0
BBX 10 10 0 -2
BITMAP
0000
0000
0000
1f00
3600
6600
6c00
3800
0000
0000
ENDCHAR
STARTCHAR 2653
ENCODING 9811
SWIDTH 960 0
DWIDTH 10 0
BBX 10 10 0 -2
BITMAP
0000
0000
0000
3f00
6c00
1800
1800
0e00
0000
0000
ENDCHAR
STARTCHAR 2654
ENCODING 9812
SWIDTH 960 0
DWIDTH 10 0
BBX 10 10 0 -2
BITMAP
0000
0000
0000
3600
6b00
3300
3600
1c00
0000
0000
ENDCHAR
STARTCHAR 2655
ENCODING 9813
SWIDTH 960 0
DWIDTH 10 0
BBX 10 10 0 -2
BITMAP
0000
0600
0600
1e00
3500
3500
3500
1e00
1800
1800
ENDCHAR
STARTCHAR 2656
ENCODING 9814
SWIDTH 960 0
DWIDTH 10 0
BBX 10 10 0 -2
BITMAP
0000
0000
3980
0d00
0e00
0c00
0c00
1c00
3400
6700
ENDCHAR
STARTCHAR 2657
ENCODING 9815
SWIDTH 960 0
DWIDTH 10 0
BBX 10 10 0 -2
BITMAP
0000
0600
0600
3680
6a80
3580
3500
1e00
0c00
0c00
ENDCHAR
STARTCHAR 2658
ENCODING 9816
SWIDTH 960 0
DWIDTH 10 0
BBX 10 10 0 -2
BITMAP
0000
0000
0000
3300
6d80
6d80
6d80
3700
0000
0000
ENDCHAR
STARTCHAR 2721
ENCODING 10017
SWIDTH 960 0
DWIDTH 10 0
BBX 10 10 0 -2
BITMAP
0000
0c00
0c00
1a00
1a00
3f00
3300
7b80
0000
0000
ENDCHAR
STARTCHAR 2722
ENCODING 10018
SWIDTH 960 0
DWIDTH 10 0
BBX 10 10 0 -2
BITMAP
0000
7f00
3300
3000
3e00
3300
3300
7e00
0000
0000
ENDCHAR
STARTCHAR 2723
ENCODING 10019
SWIDTH 960 0
DWIDTH 10 0
BBX 10 10 0 -2
BITMAP
0000
7e00
3300
3300
3e00
3300
3300
7e00
0000
0000
ENDCHAR
STARTCHAR 2724
ENCODING 10020
SWIDTH 960 0
DWIDTH 10 0
BBX 10 10 0 -2
BITMAP
0000
7f00
3300
3000
3000
3000
3000
7800
0000
0000
ENDCHAR
STARTCHAR 2725
ENCODING 10021
SWIDTH 960 0
DWIDTH 10 0
BBX 10 10 0 -2
BITMAP
0000
3f80
1b00
1b00
1b00
3300
3300
7f80
6180
0000
ENDCHAR
STARTCHAR 2726
ENCODING 10022
SWIDTH 960 0
DWIDTH 10 0
BBX 10 10 0 -2
BITMAP
0000
7f00
3300
3400
3c00
3400
3300
7f00
0000
0000
ENDCHAR
STARTCHAR 2727
ENCODING 10023
SWIDTH 960 0
DWIDTH 10 0
BBX 10 10 0 -2
BITMAP
3600
0000
7f00
3300
3c00
3000
3300
7f00
0000
0000
ENDCHAR
STARTCHAR 2728
ENCODING 10024
SWIDTH 960 0
DWIDTH 10 0
BBX 10 10 0 -2
BITMAP
0000
eec0
d540
3500
1e00
3500
6d80
eec0
0000
0000
ENDCHAR
STARTCHAR 2729
ENCODING 10025
SWIDTH 960 0
DWIDTH 10 0
BBX 10 10 0 -2
BITMAP
0000
3e00
6300
0600
1c00
0600
6300
3e00
0000
0000
ENDCHAR
STARTCHAR 272a
ENCODING 10026
SWIDTH 960 0
DWIDTH 10 0
BBX 10 10 0 -2
BITMAP
0000
7b80
3300
3700
3500
3b00
3300
7b80
0000
0000
ENDCHAR
STARTCHAR 272b
ENCODING 10027
SWIDTH 960 0
DWIDTH 10 0
BBX 10 10 0 -2
BITMAP
3300
1e00
7380
3700
3500
3b00
3300
7b80
0000
0000
ENDCHAR
STARTCHAR 272c
ENCODING 10028
SWIDTH 960 0
DWIDTH 10 0
BBX 10 10 0 -2
BITMAP
0000
7b80
3680
3600
3c00
3600
3300
7b80
0000
0000
ENDCHAR
STARTCHAR 272d
ENCODING 10029
SWIDTH 960 0
DWIDTH 10 0
BBX 10 10 0 -2
BITMAP
0000
3f80
1b00
1b00
1b00
1b00
6b00
7780
0000
0000
ENDCHAR
STARTCHAR 272e
ENCODING 10030
SWIDTH 960 0
DWIDTH 10 0
BBX 10 10 0 -2
BITMAP
0000
f3c0
7380
6a80
6a80
6d80
6d80
f3c0
0000
0000
ENDCHAR
STARTCHAR 272f
ENCODING 10031
SWIDTH 960 0
DWIDTH 10 0
BBX 10 10 0 -2
BITMAP
0000
7b80
3300
3300
3f00
3300
3300
7b80
0000
0000
ENDCHAR
STARTCHAR 2730
ENCODING 10032
SWIDTH 960 0
DWIDTH 10 0
BBX 10 10 0 -2
BITMAP
0000
1e00
3300
6180
6180
6180
3300
1e00
0000
0000
ENDCHAR
STARTCHAR 2731
ENCODING 10033
SWIDTH 960 0
DWIDTH 10 0
BBX 10 10 0 -2
BITMAP
0000
7f80
3300
3300
3300
3300
3300
7b80
0000
0000
ENDCHAR
STARTCHAR 2732
ENCODING 10034
SWIDTH 960 0
DWIDTH 10 0
BBX 10 10 0 -2
BITMAP
0000
7e00
3300
3300
3e00
3000
3000
7800
0000
0000
ENDCHAR
STARTCHAR 2733
ENCODING 10035
SWIDTH 960 0
DWIDTH 10 0
BBX 10 10 0 -2
BITMAP
0000
1f00
3300
6000
6000
6000
3300
1e00
0000
0000
ENDCHAR
STARTCHAR 2734
ENCODING 10036
SWIDTH 960 0
DWIDTH 10 0
BBX 10 10 0 -2
BITMAP
0000
7f80
6d80
0c00
0c00
0c00
0c00
1e00
0000
0000
ENDCHAR
STARTCHAR 2735
ENCODING 10037
SWIDTH 960 0
DWIDTH 10 0
BBX 10 10 0 -2
BITMAP
0000
7b80
3300
3300
1a00
1a00
6c00
3800
0000
0000
ENDCHAR
STARTCHAR 2736
ENCODING 10038
SWIDTH 960 0
DWIDTH 10 0
BBX 10 10 0 -2
BITMAP
0000
0c00
3f00
6d80
6d80
6d80
3f00
0c00
0000
0000
ENDCHAR
STARTCHAR 2737
ENCODING 10039
SWIDTH 960 0
DWIDTH 10 0
BBX 10 10 0 -2
BITMAP
0000
7b80
3300
1a00
0c00
1a00
3300
7b80
0000
0000
ENDCHAR
STARTCHAR 2738
ENCODING 10040
SWIDTH 960 0
DWIDTH 10 0
BBX 10 10 0 -2
BITMAP
0000
7b80
3300
3300
3300
3300
3300
7f80
0180
0000
ENDCHAR
STARTCHAR 2739
ENCODING 10041
SWIDTH 960 0
DWIDTH 10 0
BBX 10 10 0 -2
BITMAP
0000
7b80
3300
3300
3700
1d00
0300
0780
0000
0000
ENDCHAR
STARTCHAR 273a
ENCODING 10042
SWIDTH 960 0
DWIDTH 10 0
BBX 10 10 0 -2
BITMAP
0000
edc0
6d80
6d80
6d80
6d80
6d80
ffc0
0000
0000
ENDCHAR
STARTCHAR 273b
ENCODING 10043
SWIDTH 960 0
DWIDTH 10 0
BBX 10 10 0 -2
BITMAP
0000
edc0
6d80
6d80
6d80
6d80
6d80
ffc0
00c0
0000
ENDCHAR
STARTCHAR 273c
ENCODING 10044
SWIDTH 960 0
DWIDTH 10 0
BBX 10 10 0 -2
BITMAP
0000
7800
6800
1800
1f00
1980
1980
3f00
0000
0000
ENDCHAR
STARTCHAR 273d
ENCODING 10045
SWIDTH 960 0
DWIDTH 10 0
BBX 10 10 0 -2
BITMAP
0000
f3c0
6180
6180
7d80
6680
6680
fdc0
0000
0000
ENDCHAR
STARTCHAR 273e
ENCODING 10046
SWIDTH 960 0
DWIDTH 10 0
BBX 10 10 0 -2
BITMAP
0000
7800
3000
3000
3e00
3300
3300
7e00
0000
0000
ENDCHAR
STARTCHAR 273f
ENCODING 10047
SWIDTH 960 0
DWIDTH 10 0
BBX 10 10 0 -2
BITMAP
0000
3c00
6600
0300
1f00
0300
6600
3c00
0000
0000
ENDCHAR
STARTCHAR 2740
ENCODING 10048
SWIDTH 960 0
DWIDTH 10 0
BBX 10 10 0 -2
BITMAP
0000
f780
6cc0
6cc0
7cc0
6cc0
6cc0
f780
0000
0000
ENDCHAR
STARTCHAR 2741
ENCODING 10049
SWIDTH 960 0
DWIDTH 10 0
BBX 10 10 0 -2
BITMAP
0000
3f00
6600
6600
3e00
1a00
3600
6f00
0000
0000
ENDCHAR
STARTCHAR 2751
ENCODING 10065
SWIDTH 960 0
DWIDTH 10 0
BBX 10 10 0 -2
BITMAP
0000
0000
0000
3c00
0600
3e00
6600
3d00
0000
0000
ENDCHAR
STARTCHAR 2752
ENCODING 10066
SWIDTH 960 0
DWIDTH 10 0
BBX 10 10 0 -2
BITMAP
0300
1e00
3000
3e00
3300
3300
3300
1e00
0000
0000
ENDCHAR
STARTCHAR 2753
ENCODING 10067
SWIDTH 960 0
DWIDTH 10 0
BBX 10 10 0 -2
BITMAP
0000
0000
0000
3e00
1b00
1e00
1b00
3e00
0000
0000
ENDCHAR
STARTCHAR 2754
ENCODING 10068
SWIDTH 960 0
DWIDTH 10 0
BBX 10 10 0 -2
BITMAP
0000
0000
0000
3f00
1b00
1800
1800
3c00
0000
0000
ENDCHAR
STARTCHAR 2755
ENCODING 10069
SWIDTH 960 0
DWIDTH 10 0
BBX 10 10 0 -2
BITMAP
0000
0000
0000
3f00
1a00
1a00
3600
7f00
6300
0000
ENDCHAR
STARTCHAR 2756
ENCODING 10070
SWIDTH 960 0
DWIDTH 10 0
BBX 10 10 0 -2
BITMAP
0000
0000
0000
1e00
3300
3f00
3000
1e00
0000
0000
ENDCHAR
STARTCHAR 2757
ENCODING 10071
SWIDTH 960 0
DWIDTH 10 0
BBX 10 10 0 -2
BITMAP
0000
1a00
0000
1e00
3300
3f00
3000
1e00
0000
0000
ENDCHAR
STARTCHAR 2758
ENCODING 10072
SWIDTH 960 0
DWIDTH 10 0
BBX 10 10 0 -2
BITMAP
0000
0000
0000
7580
3500
1e00
3500
7580
0000
0000
ENDCHAR
STARTCHAR 2759
ENCODING 10073
SWIDTH 960 0
DWIDTH 10 0
BBX 10 10 0 -2
BITMAP
0000
0000
0000
1e00
3300
0e00
3300
1e00
0000
0000
ENDCHAR
STARTCHAR 275a
ENCODING 10074
SWIDTH 960 0
DWIDTH 10 0
BBX 10 10 0 -2
BITMAP
0000
0000
0000
7b80
3700
3500
3b00
7780
0000
0000
ENDCHAR
STARTCHAR 275b
ENCODING 10075
SWIDTH 960 0
DWIDTH 10 0
BBX 10 10 0 -2
BITMAP
0000
1a00
0c00
7380
3700
3500
3b00
7780
0000
0000
ENDCHAR
STARTCHAR 275c
ENCODING 10076
SWIDTH 960 0
DWIDTH 10 0
BBX 10 10 0 -2
BITMAP
0000
0000
0000
7b00
3500
3c00
3600
7b00
0000
0000
ENDCHAR
STARTCHAR 275d
ENCODING 10077
SWIDTH 960 0
DWIDTH 10 0
BBX 10 10 0 -2
BITMAP
0000
0000
0000
3f00
1a00
1a00
6a00
7600
0000
0000
ENDCHAR
STARTCHAR 275e
ENCODING 10078
SWIDTH 960 0
DWIDTH 10 0
BBX 10 10 0 -2
BITMAP
0000
0000
0000
7380
3b00
3500
3500
7380
0000
0000
ENDCHAR
STARTCHAR 275f
ENCODING 10079
SWIDTH 960 0
DWIDTH 10 0
BBX 10 10 0 -2
BITMAP
0000
0000
0000
7b80
3300
3f00
3300
7b80
0000
0000
ENDCHAR
STARTCHAR 2760
ENCODING 10080
SWIDTH 960 0
DWIDTH 10 0
BBX 10 10 0 -2
BITMAP
0000
0000
0000
1e00
3300
3300
3300
1e00
0000
0000
ENDCHAR
STARTCHAR 2761
ENCODING 10081
SWIDTH 960 0
DWIDTH 10 0
BBX 10 10 0 -2
BITMAP
0000
0000
0000
7f80
3300
3300
3300
7b80
0000
0000
ENDCHAR
STARTCHAR 2762
ENCODING 10082
SWIDTH 960 0
DWIDTH 10 0
BBX 10 10 0 -2
BITMAP
0000
0000
0000
7600
3b00
3300
3b00
3600
3000
7800
ENDCHAR
STARTCHAR 2763
ENCODING 10083
SWIDTH 960 0
DWIDTH 10 0
BBX 10 10 0 -2
BITMAP
0000
0000
0000
1e00
3300
3000
3300
1e00
0000
0000
ENDCHAR
STARTCHAR 2764
ENCODING 10084
SWIDTH 960 0
DWIDTH 10 0
BBX 10 10 0 -2
BITMAP
0000
0000
0000
3f00
3500
0c00
0c00
1e00
0000
0000
ENDCHAR
STARTCHAR 2765
ENCODING 10085
SWIDTH 960 0
DWIDTH 10 0
BBX 10 10 0 -2
BITMAP
0000
0000
0000
7b80
3300
1a00
1a00
0c00
6c00
3800
ENDCHAR
STARTCHAR 2766
ENCODING 10086
SWIDTH 960 0
DWIDTH 10 0
BBX 10 10 0 -2
BITMAP
0000
1e00
0c00
3500
6e80
6d80
6e80
3500
0c00
1e00
ENDCHAR
STARTCHAR 2767
ENCODING 10087
SWIDTH 960 0
DWIDTH 10 0
BBX 10 10 0 -2
BITMAP
0000
0000
0000
7b80
1a00
0c00
1a00
7b80
0000
0000
ENDCHAR
STARTCHAR 2768
ENCODING 10088
SWIDTH 960 0
DWIDTH 10 0
BBX 10 10 0 -2
BITMAP
0000
0000
0000
7b80
3300
3300
3300
7f80
0180
0000
ENDCHAR
STARTCHAR 2769
ENCODING 10089
SWIDTH 960 0
DWIDTH 10 0
BBX 10 10 0 -2
BITMAP
0000
0000
0000
7b80
3300
3700
1d00
0780
0000
0000
ENDCHAR
STARTCHAR 276a
ENCODING 10090
SWIDTH 960 0
DWIDTH 10 0
BBX 10 10 0 -2
BITMAP
0000
0000
0000
edc0
6d80
6d80
6d80
ffc0
0000
0000
ENDCHAR
STARTCHAR 276b
ENCODING 10091
SWIDTH 960 0
DWIDTH 10 0
BBX 10 10 0 -2
BITMAP
0000
0000
0000
edc0
6d80
6d80
6d80
ffc0
00c0
0000
ENDCHAR
STARTCHAR 276c
ENCODING 10092
SWIDTH 960 0
DWIDTH 10 0
BBX 10 10 0 -2
BITMAP
0000
0000
0000
7800
1800
1e00
1b00
1e00
0000
0000
ENDCHAR
STARTCHAR 276d
ENCODING 10093
SWIDTH 960 0
DWIDTH 10 0
BBX 10 10 0 -2
BITMAP
0000
0000
0000
6300
6300
7b00
6d00
7b00
0000
0000
ENDCHAR
STARTCHAR 276e
ENCODING 10094
SWIDTH 960 0
DWIDTH 10 0
BBX 10 10 0 -2
BITMAP
0000
0000
0000
3000
3000
3c00
3600
3c00
0000
0000
ENDCHAR
STARTCHAR 276f
ENCODING 10095
SWIDTH 960 0
DWIDTH 10 0
BBX 10 10 0 -2
BITMAP
0000
0000
0000
1e00
3300
0f00
3300
1e00
0000
0000
ENDCHAR
STARTCHAR 2770
ENCODING 10096
SWIDTH 960 0
DWIDTH 10 0
BBX 10 10 0 -2
BITMAP
0000
0000
0000
6e00
6b00
7b00
6b00
6e00
0000
0000
ENDCHAR
STARTCHAR 2771
ENCODING 10097
SWIDTH 960 0
DWIDTH 10 0
BBX 10 10 0 -2
BITMAP
0000
0000
0000
3f00
6600
3e00
1a00
7700
0000
0000
ENDCHAR
STARTCHAR 2821
ENCODING 10273
SWIDTH 960 0
DWIDTH 10 0
BBX 10 10 0 -2
BITMAP
0000
0000
0000
0000
ffc0
0000
0000
0000
0000
0000
ENDCHAR
STARTCHAR 2822
ENCODING 10274
SWIDTH 960 0
DWIDTH 10 0
BBX 10 10 0 -2
BITMAP
0c00
0c00
0c00
0c00
0c00
0c00
0c00
0c00
0c00
0c00
ENDCHAR
STARTCHAR 2823
ENCODING 10275
SWIDTH 960 0
DWIDTH 10 0
BBX 10 10 0 -2
BITMAP
0000
0000
0000
0000
0fc0
0c00
0c00
0c00
0c00
0c00
ENDCHAR
STARTCHAR 2824
ENCODING 10276
SWIDTH 960 0
DWIDTH 10 0
BBX 10 10 0 -2
BITMAP
0000
0000
0000
0000
fc00
0c00
0c00
0c00
0c00
0c00
ENDCHAR
STARTCHAR 2825
ENCODING 10277
SWIDTH 960 0
DWIDTH 10 0
BBX 10 10 0 -2
BITMAP
0c00
0c00
0c00
0c00
fc00
0000
0000
0000
0000
0000
ENDCHAR
STARTCHAR 2826
ENCODING 10278
SWIDTH 960 0
DWIDTH 10 0
BBX 10 10 0 -2
BITMAP
0c00
0c00
0c00
0c00
0fc0
0000
0000
0000
0000
0000
ENDCHAR
STARTCHAR 2827
ENCODING 10279
SWIDTH 960 0
DWIDTH 10 0
BBX 10 10 0 -2
BITMAP
0c00
0c00
0c00
0c00
0fc0
0c00
0c00
0c00
0c00
0c00
ENDCHAR
STARTCHAR 2828
ENCODING 10280
SWIDTH 960 0
DWIDTH 10 0
BBX 10 10 0 -2
BITMAP
0000
0000
0000
0000
ffc0
0c00
0c00
0c00
0c00
0c00
ENDCHAR
STARTCHAR 2829
ENCODING 10281
SWIDTH 960 0
DWIDTH 10 0
BBX 10 10 0 -2
BITMAP
0c00
0c00
0c00
0c00
fc00
0c00
0c00
0c00
0c00
0c00
ENDCHAR
STARTCHAR 282a
ENCODING 10282
SWIDTH 960 0
DWIDTH 10 0
BBX 10 10 0 -2
BITMAP
0c00
0c00
0c00
0c00
ffc0
0000
0000
0000
0000
0000
ENDCHAR
STARTCHAR 282b
ENCODING 10283
SWIDTH 960 0
DWIDTH 10 0
BBX 10 10 0 -2
BITMAP
0c00
0c00
0c00
0c00
ffc0
0c00
0c00
0c00
0c00
0c00
ENDCHAR
STARTCHAR 282c
ENCODING 10284
SWIDTH 960 0
DWIDTH 10 0
BBX 10 10 0 -2
BITMAP
0000
0000
0000
0000
ffc0
ffc0
0000
0000
0000
0000
ENDCHAR
STARTCHAR 282d
ENCODING 10285
SWIDTH 960 0
DWIDTH 10 0
BBX 10 10 0 -2
BITMAP
1c00
1c00
1c00
1c00
1c00
1c00
1c00
1c00
1c00
1c00
ENDCHAR
STARTCHAR 282e
ENCODING 10286
SWIDTH 960 0
DWIDTH 10 0
BBX 10 10 0 -2
BITMAP
0000
0000
0000
0000
1fc0
1fc0
1c00
1c00
1c00
1c00
ENDCHAR
STARTCHAR 282f
ENCODING 10287
SWIDTH 960 0
DWIDTH 10 0
BBX 10 10 0 -2
BITMAP
0000
0000
0000
0000
fc00
fc00
1c00
1c00
1c00
1c00
ENDCHAR
STARTCHAR 2830
ENCODING 10288
SWIDTH 960 0
DWIDTH 10 0
BBX 10 10 0 -2
BITMAP
1c00
1c00
1c00
1c00
fc00
fc00
0000
0000
0000
0000
ENDCHAR
STARTCHAR 2831
ENCODING 10289
SWIDTH 960 0
DWIDTH 10 0
BBX 10 10 0 -2
BITMAP
1c00
1c00
1c00
1c00
1fc0
1fc0
0000
0000
0000
0000
ENDCHAR
STARTCHAR 2832
ENCODING 10290
SWIDTH 960 0
DWIDTH 10 0
BBX 10 10 0 -2
BITMAP
1c00
1c00
1c00
1c00
1fc0
1fc0
1c00
1c00
1c00
1c00
ENDCHAR
STARTCHAR 2833
ENCODING 10291
SWIDTH 960 0
DWIDTH 10 0
BBX 10 10 0 -2
BITMAP
0000
0000
0000
0000
ffc0
ffc0
1c00
1c00
1c00
1c00
ENDCHAR
STARTCHAR 2834
ENCODING 10292
SWIDTH 960 0
DWIDTH 10 0
BBX 10 10 0 -2
BITMAP
1c00
1c00
1c00
1c00
fc00
fc00
1c00
1c00
1c00
1c00
ENDCHAR
STARTCHAR 2835
ENCODING 10293
SWIDTH 960 0
DWIDTH 10 0
BBX 10 10 0 -2
BITMAP
1c00
1c00
1c00
1c00
ffc0
ffc0
0000
0000
0000
0000
ENDCHAR
STARTCHAR 2836
ENCODING 10294
SWIDTH 960 0
DWIDTH 10 0
BBX 10 10 0 -2
BITMAP
1c00
1c00
1c00
1c00
ffc0
ffc0
1c00
1c00
1c00
1c00
ENDCHAR
STARTCHAR 2837
ENCODING 10295
SWIDTH 960 0
DWIDTH 10 0
BBX 10 10 0 -2
BITMAP
1c00
1c00
1c00
1c00
1fc0
1c00
1c00
1c00
1c00
1c00
ENDCHAR
STARTCHAR 2838
ENCODING 10296
SWIDTH 960 0
DWIDTH 10 0
BBX 10 10 0 -2
BITMAP
0000
0000
0000
0000
ffc0
ffc0
0c00
0c00
0c00
0c00
ENDCHAR
STARTCHAR 2839
ENCODING 10297
SWIDTH 960 0
DWIDTH 10 0
BBX 10 10 0 -2
BITMAP
1c00
1c00
1c00
1c00
fc00
1c00
1c00
1c00
1c00
1c00
ENDCHAR
STARTCHAR 283a
ENCODING 10298
SWIDTH 960 0
DWIDTH 10 0
BBX 10 10 0 -2
BITMAP
0c00
0c00
0c00
0c00
ffc0
ffc0
0000
0000
0000
0000
ENDCHAR
STARTCHAR 283b
ENCODING 10299
SWIDTH 960 0
DWIDTH 10 0
BBX 10 10 0 -2
BITMAP
0c00
0c00
0c00
0c00
ffc0
ffc0
0c00
0c00
0c00
0c00
ENDCHAR
STARTCHAR 283c
ENCODING 10300
SWIDTH 960 0
DWIDTH 10 0
BBX 10 10 0 -2
BITMAP
0c00
0c00
0c00
0c00
0fc0
0fc0
0c00
0c00
0c00
0c00
ENDCHAR
STARTCHAR 283d
ENCODING 10301
SWIDTH 960 0
DWIDTH 10 0
BBX 10 10 0 -2
BITMAP
0000
0000
0000
0000
ffc0
1c00
1c00
1c00
1c00
1c00
ENDCHAR
STARTCHAR 283e
ENCODING 10302
SWIDTH 960 0
DWIDTH 10 0
BBX 10 10 0 -2
BITMAP
0c00
0c00
0c00
0c00
fc00
fc00
0c00
0c00
0c00
0c00
ENDCHAR
STARTCHAR 283f
ENCODING 10303
SWIDTH 960 0
DWIDTH 10 0
BBX 10 10 0 -2
BITMAP
1c00
1c00
1c00
1c00
ffc0
0000
0000
0000
0000
0000
ENDCHAR
STARTCHAR 2840
ENCODING 10304
SWIDTH 960 0
DWIDTH 10 0
BBX 10 10 0 -2
BITMAP
1c00
1c00
1c00
1c00
ffc0
1c00
1c00
1c00
1c00
1c00
ENDCHAR
STARTCHAR 3021
ENCODING 12321
SWIDTH 960 0
DWIDTH 10 0
BBX 10 10 0 -2
BITMAP
ffc0
1a00
1a00
7f80
6a80
7f80
1a00
1a00
ffc0
0000
ENDCHAR
STARTCHAR 3022
ENCODING 12322
SWIDTH 960 0
DWIDTH 10 0
BBX 10 10 0 -2
BITMAP
3fc0
0d00
f500
dfc0
d540
dfc0
f500
0d00
3fc0
0000
ENDCHAR
STARTCHAR 3023
ENCODING 12323
SWIDTH 960 0
DWIDTH 10 0
BBX 10 10 0 -2
BITMAP
6300
6fc0
f300
d7c0
d000
d300
6fc0
7300
d7c0
0000
ENDCHAR
STARTCHAR 3024
ENCODING 12324
SWIDTH 960 0
DWIDTH 10 0
BBX 10 10 0 -2
BITMAP
ffc0
d180
ee80
da80
da80
de80
e180
c180
c380
0000
ENDCHAR
STARTCHAR 3025
ENCODING 12325
SWIDTH 960 0
DWIDTH 10 0
BBX 10 10 0 -2
BITMAP
0c00
ffc0
0000
3f00
3300
3f00
1a80
7300
ddc0
0000
ENDCHAR
STARTCHAR 3026
ENCODING 12326
SWIDTH 960 0
DWIDTH 10 0
BBX 10 10 0 -2
BITMAP
7f80
3500
ffc0
d540
1a00
3f00
7300
1e00
f7c0
0000
ENDCHAR
STARTCHAR 3027
ENCODING 12327
SWIDTH 960 0
DWIDTH 10 0
BBX 10 10 0 -2
BITMAP
6300
66c0
f7c0
6600
77c0
e300
6fc0
6680
ecc0
0000
ENDCHAR
STARTCHAR 3028
ENCODING 12328
SWIDTH 960 0
DWIDTH 10 0
BBX 10 10 0 -2
BITMAP
6700
6d80
f8c0
d780
d000
d780
6d80
7580
d780
0000
ENDCHAR
STARTCHAR 3029
ENCODING 12329
SWIDTH 960 0
DWIDTH 10 0
BBX 10 10 0 -2
BITMAP
c780
6d80
0700
edc0
6f80
6600
6fc0
6600
dfc0
0000
ENDCHAR
STARTCHAR 302a
ENCODING 12330
SWIDTH 960 0
DWIDTH 10 0
BBX 10 10 0 -2
BITMAP
3300
ffc0
3500
3b00
eec0
0c00
7f80
1a00
f3c0
0000
ENDCHAR
STARTCHAR 302b
ENCODING 12331
SWIDTH 960 0
DWIDTH 10 0
BBX 10 10 0 -2
BITMAP
3300
ffc0
3300
ffc0
1a00
7f80
7780
6180
7f80
0000
ENDCHAR
STARTCHAR 302c
ENCODING 12332
SWIDTH 960 0
DWIDTH 10 0
BBX 10 10 0 -2
BITMAP
3700
ed00
6f80
fa80
6fc0
fac0
efc0
6600
67c0
0000
ENDCHAR
STARTCHAR 302d
ENCODING 12333
SWIDTH 960 0
DWIDTH 10 0
BBX 10 10 0 -2
BITMAP
ffc0
1a00
7f80
7f80
1a00
ffc0
0c00
d6c0
df40
0000
ENDCHAR
STARTCHAR 302e
ENCODING 12334
SWIDTH 960 0
DWIDTH 10 0
BBX 10 10 0 -2
BITMAP
6fc0
68c0
ffc0
6a80
7fc0
eb40
6b80
6b00
f7c0
0000
ENDCHAR
STARTCHAR 302f
ENCODING 12335
SWIDTH 960 0
DWIDTH 10 0
BBX 10 10 0 -2
BITMAP
dfc0
68c0
1fc0
da80
6fc0
1b40
6b80
6b00
d7c0
0000
ENDCHAR
STARTCHAR 3030
ENCODING 12336
SWIDTH 960 0
DWIDTH 10 0
BBX 10 10 0 -2
BITMAP
6000
6780
fa80
6b80
6a80
6a80
6b80
d8c0
dfc0
0000
ENDCHAR
STARTCHAR 3031
ENCODING 12337
SWIDTH 960 0
DWIDTH 10 0
BBX 10 10 0 -2
BITMAP
3300
ffc0
7f00
1b00
ffc0
3300
7f80
ffc0
0600
0000
ENDCHAR
STARTCHAR 3032
ENCODING 12338
SWIDTH 960 0
DWIDTH 10 0
BBX 10 10 0 -2
BITMAP
3300
ffc0
3300
7f80
0000
7f80
6180
7f80
c000
0000
ENDCHAR
STARTCHAR 3033
ENCODING 12339
SWIDTH 960 0
DWIDTH 10 0
BBX 10 10 0 -2
BITMAP
7680
d780
6600
ffc0
d700
f580
1b40
d180
d700
0000
ENDCHAR
STARTCHAR 3034
ENCODING 12340
SWIDTH 960 0
DWIDTH 10 0
BBX 10 10 0 -2
BITMAP
3300
37c0
fa80
3680
77c0
7b00
d7c0
3300
3300
0000
ENDCHAR
STARTCHAR 3035
ENCODING 12341
SWIDTH 960 0
DWIDTH 10 0
BBX 10 10 0 -2
BITMAP
7fc0
6000
6600
6600
6f80
6600
6600
c600
dfc0
0000
ENDCHAR
STARTCHAR 3036
ENCODING 12342
SWIDTH 960 0
DWIDTH 10 0
BBX 10 10 0 -2
BITMAP
6300
f680
6cc0
f680
d180
f680
6180
f7c0
6180
0000
ENDCHAR
STARTCHAR 3037
ENCODING 12343
SWIDTH 960 0
DWIDTH 10 0
BBX 10 10 0 -2
BITMAP
6f80
6d80
f580
6dc0
74c0
ecc0
6e80
6b00
eac0
0000
ENDCHAR
STARTCHAR 3038
ENCODING 12344
SWIDTH 960 0
DWIDTH 10 0
BBX 10 10 0 -2
BITMAP
0c00
ffc0
c0c0
7b80
6a80
da80
1b80
36c0
e7c0
0000
ENDCHAR
STARTCHAR 3039
ENCODING 12345
SWIDTH 960 0
DWIDTH 10 0
BBX 10 10 0 -2
BITMAP
6000
6f80
f580
d780
d580
d780
6d80
7580
dfc0
0000
ENDCHAR
STARTCHAR 303a
ENCODING 12346
SWIDTH 960 0
DWIDTH 10 0
BBX 10 10 0 -2
BITMAP
6300
6300
f7c0
d600
d600
f600
6600
7600
d7c0
0000
ENDCHAR
STARTCHAR 303b
ENCODING 12347
SWIDTH 960 0
DWIDTH 10 0
BBX 10 10 0 -2
BITMAP
3180
6b00
fac0
6bc0
7800
7bc0
66c0
7ac0
67c0
0000
ENDCHAR
STARTCHAR 303c
ENCODING 12348
SWIDTH 960 0
DWIDTH 10 0
BBX 10 10 0 -2
BITMAP
3600
67c0
d4c0
6f40
f540
3740
dd40
d740
3380
0000
ENDCHAR
STARTCHAR 303d
ENCODING 12349
SWIDTH 960 0
DWIDTH 10 0
BBX 10 10 0 -2
BITMAP
3300
6fc0
d300
6fc0
f6c0
3780
d680
d300
36c0
0000
ENDCHAR
STARTCHAR 303e
ENCODING 12350
SWIDTH 960 0
DWIDTH 10 0
BBX 10 10 0 -2
BITMAP
7300
d300
63c0
f300
d300
f7c0
0cc0
d4c0
d7c0
0000
ENDCHAR
STARTCHAR 303f
ENCODING 12351
SWIDTH 960 0
DWIDTH 10 0
BBX 10 10 0 -2
BITMAP
0680
06c0
ffc0
0600
7a80
6a80
7b00
0740
f5c0
0000
ENDCHAR
STARTCHAR 3040
ENCODING 12352
SWIDTH 960 0
DWIDTH 10 0
BBX 10 10 0 -2
BITMAP
ffc0
1a00
7f80
6a80
7f80
3500
ffc0
3500
edc0
0000
ENDCHAR
STARTCHAR 3041
ENCODING 12353
SWIDTH 960 0
DWIDTH 10 0
BBX 10 10 0 -2
BITMAP
6700
6d80
f8c0
3780
6800
f780
6d80
6d80
6f80
0000
ENDCHAR
STARTCHAR 3042
ENCODING 12354
SWIDTH 960 0
DWIDTH 10 0
BBX 10 10 0 -2
BITMAP
0c00
ffc0
c0c0
1800
ffc0
3300
7600
1e00
f3c0
0000
ENDCHAR
STARTCHAR 3043
ENCODING 12355
SWIDTH 960 0
DWIDTH 10 0
BBX 10 10 0 -2
BITMAP
0600
7fc0
6600
7fc0
6f80
7ac0
6f80
66c0
c7c0
0000
ENDCHAR
STARTCHAR 3044
ENCODING 12356
SWIDTH 960 0
DWIDTH 10 0
BBX 10 10 0 -2
BITMAP
6600
6fc0
f8c0
6600
7fc0
ed80
6d00
6780
ecc0
0000
ENDCHAR
STARTCHAR 3045
ENCODING 12357
SWIDTH 960 0
DWIDTH 10 0
BBX 10 10 0 -2
BITMAP
0300
f7c0
d680
d7c0
f000
d780
d680
f780
0780
0000
ENDCHAR
STARTCHAR 3046
ENCODING 12358
SWIDTH 960 0
DWIDTH 10 0
BBX 10 10 0 -2
BITMAP
0c00
ffc0
d8c0
7f80
1a00
3d00
ffc0
3500
edc0
0000
ENDCHAR
STARTCHAR 3047
ENCODING 12359
SWIDTH 960 0
DWIDTH 10 0
BBX 10 10 0 -2
BITMAP
fbc0
dac0
fbc0
ccc0
df40
dac0
df40
dac0
dec0
0000
ENDCHAR
STARTCHAR 3048
ENCODING 12360
SWIDTH 960 0
DWIDTH 10 0
BBX 10 10 0 -2
BITMAP
d300
ffc0
d4c0
f600
d7c0
f680
6680
f380
6ec0
0000
ENDCHAR
STARTCHAR 3049
ENCODING 12361
SWIDTH 960 0
DWIDTH 10 0
BBX 10 10 0 -2
BITMAP
0c00
ffc0
1e00
3500
edc0
0000
7f80
6180
7f80
0000
ENDCHAR
STARTCHAR 304a
ENCODING 12362
SWIDTH 960 0
DWIDTH 10 0
BBX 10 10 0 -2
BITMAP
6180
6980
6d80
6180
6180
6b00
7300
e680
1cc0
0000
ENDCHAR
STARTCHAR 304b
ENCODING 12363
SWIDTH 960 0
DWIDTH 10 0
BBX 10 10 0 -2
BITMAP
3780
3680
6fc0
6680
e680
6f80
6600
6600
6c00
0000
ENDCHAR
STARTCHAR 304c
ENCODING 12364
SWIDTH 960 0
DWIDTH 10 0
BBX 10 10 0 -2
BITMAP
3600
3600
6fc0
6d80
ed80
6d80
6d80
6d80
6fc0
0000
ENDCHAR
STARTCHAR 304d
ENCODING 12365
SWIDTH 960 0
DWIDTH 10 0
BBX 10 10 0 -2
BITMAP
3600
3600
6fc0
6c00
eec0
6d80
7500
6e80
6cc0
0000
ENDCHAR
STARTCHAR 304e
ENCODING 12366
SWIDTH 960 0
DWIDTH 10 0
BBX 10 10 0 -2
BITMAP
3400
3f80
6d80
7fc0
ed00
6f80
6a00
7fc0
6600
0000
ENDCHAR
STARTCHAR 304f
ENCODING 12367
SWIDTH 960 0
DWIDTH 10 0
BBX 10 10 0 -2
BITMAP
ffc0
c0c0
dac0
df40
dac0
df40
dac0
d6c0
ffc0
0000
ENDCHAR
STARTCHAR 3050
ENCODING 12368
SWIDTH 960 0
DWIDTH 10 0
BBX 10 10 0 -2
BITMAP
0c00
ffc0
0d80
7f80
6c00
7fc0
0cc0
1a80
f3c0
0000
ENDCHAR
STARTCHAR 3051
ENCODING 12369
SWIDTH 960 0
DWIDTH 10 0
BBX 10 10 0 -2
BITMAP
7f80
0c00
ffc0
3500
edc0
1800
ffc0
3600
fdc0
0000
ENDCHAR
STARTCHAR 3052
ENCODING 12370
SWIDTH 960 0
DWIDTH 10 0
BBX 10 10 0 -2
BITMAP
0680
7fc0
6600
7ec0
6ac0
7d40
7580
6980
d540
0000
ENDCHAR
STARTCHAR 3053
ENCODING 12371
SWIDTH 960 0
DWIDTH 10 0
BBX 10 10 0 -2
BITMAP
f980
f980
cfc0
f980
c680
fa80
d180
f980
d380
0000
ENDCHAR
STARTCHAR 3054
ENCODING 12372
SWIDTH 960 0
DWIDTH 10 0
BBX 10 10 0 -2
BITMAP
6680
6d00
ffc0
f500
6fc0
6d00
6fc0
6d00
6fc0
0000
ENDCHAR
STARTCHAR 3055
ENCODING 12373
SWIDTH 960 0
DWIDTH 10 0
BBX 10 10 0 -2
BITMAP
0c00
7f80
1a00
ffc0
3300
3f00
0c00
d6c0
df40
0000
ENDCHAR
STARTCHAR 3056
ENCODING 12374
SWIDTH 960 0
DWIDTH 10 0
BBX 10 10 0 -2
BITMAP
f980
cfc0
f980
d680
f980
d580
0600
d0c0
df40
0000
ENDCHAR
STARTCHAR 3057
ENCODING 12375
SWIDTH 960 0
DWIDTH 10 0
BBX 10 10 0 -2
BITMAP
7f80
6180
7f80
6180
7f80
3000
7fc0
dac0
35c0
0000
ENDCHAR
STARTCHAR 3058
ENCODING 12376
SWIDTH 960 0
DWIDTH 10 0
BBX 10 10 0 -2
BITMAP
6600
6f80
f500
6980
ffc0
f180
ee80
6e80
6380
0000
ENDCHAR
STARTCHAR 3059
ENCODING 12377
SWIDTH 960 0
DWIDTH 10 0
BBX 10 10 0 -2
BITMAP
3600
1a00
7f00
0d00
1f80
3180
7fc0
c0c0
6ac0
0000
ENDCHAR
STARTCHAR 305a
ENCODING 12378
SWIDTH 960 0
DWIDTH 10 0
BBX 10 10 0 -2
BITMAP
7f80
6d80
7f80
6d80
ffc0
6800
6dc0
7b00
e1c0
0000
ENDCHAR
STARTCHAR 305b
ENCODING 12379
SWIDTH 960 0
DWIDTH 10 0
BBX 10 10 0 -2
BITMAP
7f80
6d80
7f80
6d80
ffc0
3300
ffc0
3300
e1c0
0000
ENDCHAR
STARTCHAR 305c
ENCODING 12380
SWIDTH 960 0
DWIDTH 10 0
BBX 10 10 0 -2
BITMAP
3b80
f580
3700
fa00
35c0
76c0
7b80
d300
3600
0000
ENDCHAR
STARTCHAR 305d
ENCODING 12381
SWIDTH 960 0
DWIDTH 10 0
BBX 10 10 0 -2
BITMAP
3680
6d00
d7c0
6d00
f7c0
3500
d7c0
d500
37c0
0000
ENDCHAR
STARTCHAR 305e
ENCODING 12382
SWIDTH 960 0
DWIDTH 10 0
BBX 10 10 0 -2
BITMAP
3600
6f80
d680
6fc0
f580
3780
d500
dfc0
3300
0000
ENDCHAR
STARTCHAR 305f
ENCODING 12383
SWIDTH 960 0
DWIDTH 10 0
BBX 10 10 0 -2
BITMAP
ffc0
ccc0
ffc0
0000
7f80
6180
7f80
6180
6380
0000
ENDCHAR
STARTCHAR 3060
ENCODING 12384
SWIDTH 960 0
DWIDTH 10 0
BBX 10 10 0 -2
BITMAP
3300
ffc0
1e00
ffc0
7580
1800
ffc0
3600
fbc0
0000
ENDCHAR
STARTCHAR 3061
ENCODING 12385
SWIDTH 960 0
DWIDTH 10 0
BBX 10 10 0 -2
BITMAP
0c00
0c00
ffc0
1c00
3580
7700
d600
3d00
f1c0
0000
ENDCHAR
STARTCHAR 3062
ENCODING 12386
SWIDTH 960 0
DWIDTH 10 0
BBX 10 10 0 -2
BITMAP
f7c0
0d40
f7c0
0000
f7c0
0cc0
f7c0
d4c0
f5c0
0000
ENDCHAR
STARTCHAR 3063
ENCODING 12387
SWIDTH 960 0
DWIDTH 10 0
BBX 10 10 0 -2
BITMAP
cf80
6680
1fc0
0700
ef80
6d00
6fc0
6300
dfc0
0000
ENDCHAR
STARTCHAR 3064
ENCODING 12388
SWIDTH 960 0
DWIDTH 10 0
BBX 10 10 0 -2
BITMAP
c600
6f80
0e80
1fc0
ed80
6d80
6f80
68c0
dfc0
0000
ENDCHAR
STARTCHAR 3065
ENCODING 12389
SWIDTH 960 0
DWIDTH 10 0
BBX 10 10 0 -2
BITMAP
ffc0
d800
df80
d600
dfc0
c600
cd00
d9c0
ffc0
0000
ENDCHAR
STARTCHAR 3066
ENCODING 12390
SWIDTH 960 0
DWIDTH 10 0
BBX 10 10 0 -2
BITMAP
3600
3600
ff80
3600
3600
ff80
3600
6600
c600
0000
ENDCHAR
STARTCHAR 3067
ENCODING 12391
SWIDTH 960 0
DWIDTH 10 0
BBX 10 10 0 -2
BITMAP
0c00
ffc0
0c00
3b00
1a80
1d00
7600
1d80
f0c0
0000
ENDCHAR
STARTCHAR 3068
ENCODING 12392
SWIDTH 960 0
DWIDTH 10 0
BBX 10 10 0 -2
BITMAP
6340
6300
ffc0
6300
6d40
6d40
7180
ed80
06c0
0000
ENDCHAR
STARTCHAR 3069
ENCODING 12393
SWIDTH 960 0
DWIDTH 10 0
BBX 10 10 0 -2
BITMAP
0c00
ffc0
3300
7f80
3f00
3300
3f00
3300
3700
0000
ENDCHAR
STARTCHAR 306a
ENCODING 12394
SWIDTH 960 0
DWIDTH 10 0
BBX 10 10 0 -2
BITMAP
3000
fbc0
66c0
7b80
ea80
7ac0
6ac0
7b80
6a00
0000
ENDCHAR
STARTCHAR 306b
ENCODING 12395
SWIDTH 960 0
DWIDTH 10 0
BBX 10 10 0 -2
BITMAP
0740
f580
6740
f380
d7c0
d700
d540
f580
0340
0000
ENDCHAR
STARTCHAR 306c
ENCODING 12396
SWIDTH 960 0
DWIDTH 10 0
BBX 10 10 0 -2
BITMAP
0000
0000
0000
0180
ffc0
0000
0000
0000
0000
0000
ENDCHAR
STARTCHAR 306d
ENCODING 12397
SWIDTH 960 0
DWIDTH 10 0
BBX 10 10 0 -2
BITMAP
0c00
ffc0
0c00
ffc0
c0c0
3700
3c00
3180
3f80
0000
ENDCHAR
STARTCHAR 306e
ENCODING 12398
SWIDTH 960 0
DWIDTH 10 0
BBX 10 10 0 -2
BITMAP
d980
6d00
3fc0
d980
30c0
0000
6f80
6a80
dfc0
0000
ENDCHAR
STARTCHAR 306f
ENCODING 12399
SWIDTH 960 0
DWIDTH 10 0
BBX 10 10 0 -2
BITMAP
c700
6d00
1f80
ea80
6f80
6ec0
6bc0
6000
dfc0
0000
ENDCHAR
STARTCHAR 3070
ENCODING 12400
SWIDTH 960 0
DWIDTH 10 0
BBX 10 10 0 -2
BITMAP
39c0
f700
3540
fa80
35c0
7540
75c0
d540
35c0
0000
ENDCHAR
STARTCHAR 3071
ENCODING 12401
SWIDTH 960 0
DWIDTH 10 0
BBX 10 10 0 -2
BITMAP
3300
ffc0
3300
cc00
6fc0
1ac0
0680
6d00
d9c0
0000
ENDCHAR
STARTCHAR 3072
ENCODING 12402
SWIDTH 960 0
DWIDTH 10 0
BBX 10 10 0 -2
BITMAP
3300
ffc0
3300
0000
7f80
0c00
ffc0
0c00
1c00
0000
ENDCHAR
STARTCHAR 3073
ENCODING 12403
SWIDTH 960 0
DWIDTH 10 0
BBX 10 10 0 -2
BITMAP
76c0
d6c0
6ec0
f580
d6c0
f6c0
0ec0
d6c0
d580
0000
ENDCHAR
STARTCHAR 3074
ENCODING 12404
SWIDTH 960 0
DWIDTH 10 0
BBX 10 10 0 -2
BITMAP
1800
1800
3300
ff80
3680
3600
3600
66c0
c7c0
0000
ENDCHAR
STARTCHAR 3075
ENCODING 12405
SWIDTH 960 0
DWIDTH 10 0
BBX 10 10 0 -2
BITMAP
3800
e7c0
c6c0
fac0
c6c0
c6c0
fac0
c600
0600
0000
ENDCHAR
STARTCHAR 3076
ENCODING 12406
SWIDTH 960 0
DWIDTH 10 0
BBX 10 10 0 -2
BITMAP
0fc0
f4c0
d540
d7c0
d540
d540
f6c0
0cc0
0fc0
0000
ENDCHAR
STARTCHAR 3077
ENCODING 12407
SWIDTH 960 0
DWIDTH 10 0
BBX 10 10 0 -2
BITMAP
3f00
3300
7f80
6180
7f80
6180
7f80
3300
6180
0000
ENDCHAR
STARTCHAR 3078
ENCODING 12408
SWIDTH 960 0
DWIDTH 10 0
BBX 10 10 0 -2
BITMAP
ffc0
c0c0
ccc0
df40
ccc0
dac0
d340
c0c0
ffc0
0000
ENDCHAR
STARTCHAR 3079
ENCODING 12409
SWIDTH 960 0
DWIDTH 10 0
BBX 10 10 0 -2
BITMAP
6fc0
6cc0
f540
d7c0
d540
d540
6ec0
74c0
d7c0
0000
ENDCHAR
STARTCHAR 307a
ENCODING 12410
SWIDTH 960 0
DWIDTH 10 0
BBX 10 10 0 -2
BITMAP
f980
1980
f980
c180
f980
1980
1980
1980
7180
0000
ENDCHAR
STARTCHAR 307b
ENCODING 12411
SWIDTH 960 0
DWIDTH 10 0
BBX 10 10 0 -2
BITMAP
6600
d600
0fc0
f540
d300
f300
c680
d680
f4c0
0000
ENDCHAR
STARTCHAR 307c
ENCODING 12412
SWIDTH 960 0
DWIDTH 10 0
BBX 10 10 0 -2
BITMAP
c380
6e00
1a80
c000
6f80
0600
6f80
6600
df80
0000
ENDCHAR
STARTCHAR 307d
ENCODING 12413
SWIDTH 960 0
DWIDTH 10 0
BBX 10 10 0 -2
BITMAP
6d80
6a80
6d80
6e80
6a80
6e80
6a80
6e80
dac0
0000
ENDCHAR
STARTCHAR 307e
ENCODING 12414
SWIDTH 960 0
DWIDTH 10 0
BBX 10 10 0 -2
BITMAP
3300
ffc0
3300
f6c0
d300
efc0
d300
f6c0
cfc0
0000
ENDCHAR
STARTCHAR 3121
ENCODING 12577
SWIDTH 960 0
DWIDTH 10 0
BBX 10 10 0 -2
BITMAP
f300
d7c0
ecc0
d780
d000
d7c0
e680
c680
cdc0
0000
ENDCHAR
STARTCHAR 3122
ENCODING 12578
SWIDTH 960 0
DWIDTH 10 0
BBX 10 10 0 -2
BITMAP
f700
d580
eb40
ef80
d300
d7c0
d600
ed80
df40
0000
ENDCHAR
STARTCHAR 3123
ENCODING 12579
SWIDTH 960 0
DWIDTH 10 0
BBX 10 10 0 -2
BITMAP
f7c0
d540
ef80
d180
d780
d780
e300
dac0
db40
0000
ENDCHAR
STARTCHAR 3124
ENCODING 12580
SWIDTH 960 0
DWIDTH 10 0
BBX 10 10 0 -2
BITMAP
6f80
fd80
d780
f800
0f80
f580
f580
d780
f8c0
0000
ENDCHAR
STARTCHAR 3125
ENCODING 12581
SWIDTH 960 0
DWIDTH 10 0
BBX 10 10 0 -2
BITMAP
0180
f180
d7c0
d180
d580
d680
d180
f180
0380
0000
ENDCHAR
STARTCHAR 3126
ENCODING 12582
SWIDTH 960 0
DWIDTH 10 0
BBX 10 10 0 -2
BITMAP
1800
1800
ffc0
3000
3000
7f80
d180
3180
3f80
0000
ENDCHAR
STARTCHAR 3127
ENCODING 12583
SWIDTH 960 0
DWIDTH 10 0
BBX 10 10 0 -2
BITMAP
0c00
ffc0
c0c0
3f00
0c00
ffc0
0c00
0c00
1c00
0000
ENDCHAR
STARTCHAR 3128
ENCODING 12584
SWIDTH 960 0
DWIDTH 10 0
BBX 10 10 0 -2
BITMAP
1800
7f00
6300
7f80
6000
7fc0
00c0
d540
0180
0000
ENDCHAR
STARTCHAR 3129
ENCODING 12585
SWIDTH 960 0
DWIDTH 10 0
BBX 10 10 0 -2
BITMAP
fbc0
18c0
dac0
6b40
18c0
6b40
dac0
18c0
39c0
0000
ENDCHAR
STARTCHAR 312a
ENCODING 12586
SWIDTH 960 0
DWIDTH 10 0
BBX 10 10 0 -2
BITMAP
cf80
6300
0300
efc0
6300
6300
6700
6000
dfc0
0000
ENDCHAR
STARTCHAR 312b
ENCODING 12587
SWIDTH 960 0
DWIDTH 10 0
BBX 10 10 0 -2
BITMAP
ffc0
0c00
ffc0
ccc0
d540
ccc0
ccc0
d540
cdc0
0000
ENDCHAR
STARTCHAR 312c
ENCODING 12588
SWIDTH 960 0
DWIDTH 10 0
BBX 10 10 0 -2
BITMAP
3800
e7c0
dac0
dac0
dac0
fac0
dac0
3600
6600
0000
ENDCHAR
STARTCHAR 312d
ENCODING 12589
SWIDTH 960 0
DWIDTH 10 0
BBX 10 10 0 -2
BITMAP
d300
fb80
6a80
fbc0
e600
fbc0
68c0
f540
6180
0000
ENDCHAR
STARTCHAR 312e
ENCODING 12590
SWIDTH 960 0
DWIDTH 10 0
BBX 10 10 0 -2
BITMAP
0c00
ffc0
dac0
7380
f780
6d80
f780
6740
ddc0
0000
ENDCHAR
STARTCHAR 312f
ENCODING 12591
SWIDTH 960 0
DWIDTH 10 0
BBX 10 10 0 -2
BITMAP
7f00
1b00
1b00
1b00
ffc0
3300
3300
3300
ffc0
0000
ENDCHAR
STARTCHAR 3130
ENCODING 12592
SWIDTH 960 0
DWIDTH 10 0
BBX 10 10 0 -2
BITMAP
0340
fa80
6fc0
7a80
ebc0
6a80
6bc0
7a80
07c0
0000
ENDCHAR
STARTCHAR 3131
ENCODING 12593
SWIDTH 960 0
DWIDTH 10 0
BBX 10 10 0 -2
BITMAP
0c00
3800
e7c0
c0c0
c0c0
fbc0
c0c0
c0c0
ffc0
0000
ENDCHAR
STARTCHAR 3132
ENCODING 12594
SWIDTH 960 0
DWIDTH 10 0
BBX 10 10 0 -2
BITMAP
cf80
6d80
0d80
dfc0
68c0
1b40
6b40
6b40
d9c0
0000
ENDCHAR
STARTCHAR 3133
ENCODING 12595
SWIDTH 960 0
DWIDTH 10 0
BBX 10 10 0 -2
BITMAP
0380
f300
d7c0
d500
d5c0
d400
f540
0d80
1bc0
0000
ENDCHAR
STARTCHAR 3134
ENCODING 12596
SWIDTH 960 0
DWIDTH 10 0
BBX 10 10 0 -2
BITMAP
0f80
f580
d780
d580
d780
d580
f780
0d80
18c0
0000
ENDCHAR
STARTCHAR 3135
ENCODING 12597
SWIDTH 960 0
DWIDTH 10 0
BBX 10 10 0 -2
BITMAP
6a80
f5c0
6a80
ffc0
dac0
ffc0
7980
6fc0
fa80
0000
ENDCHAR
STARTCHAR 3136
ENCODING 12598
SWIDTH 960 0
DWIDTH 10 0
BBX 10 10 0 -2
BITMAP
3300
ffc0
3300
f980
cfc0
f980
d680
f980
d380
0000
ENDCHAR
STARTCHAR 3137
ENCODING 12599
SWIDTH 960 0
DWIDTH 10 0
BBX 10 10 0 -2
BITMAP
7780
d680
6fc0
f540
d7c0
f680
0680
d300
d6c0
0000
ENDCHAR
STARTCHAR 3138
ENCODING 12600
SWIDTH 960 0
DWIDTH 10 0
BBX 10 10 0 -2
BITMAP
66c0
6fc0
f680
dfc0
d600
d6c0
6b00
76c0
d7c0
0000
ENDCHAR
STARTCHAR 3139
ENCODING 12601
SWIDTH 960 0
DWIDTH 10 0
BBX 10 10 0 -2
BITMAP
ffc0
c000
ddc0
d580
ddc0
d180
d580
dd80
d6c0
0000
ENDCHAR
STARTCHAR 313a
ENCODING 12602
SWIDTH 960 0
DWIDTH 10 0
BBX 10 10 0 -2
BITMAP
c680
6f80
0600
df80
6a80
1f80
6a80
6f80
da80
0000
ENDCHAR
STARTCHAR 313b
ENCODING 12603
SWIDTH 960 0
DWIDTH 10 0
BBX 10 10 0 -2
BITMAP
0180
7f00
6d80
6d80
6d80
6e80
6d40
df40
c0c0
0000
ENDCHAR
STARTCHAR 313c
ENCODING 12604
SWIDTH 960 0
DWIDTH 10 0
BBX 10 10 0 -2
BITMAP
fbc0
dac0
fbc0
c0c0
df40
ccc0
df40
ccc0
df40
0000
ENDCHAR
STARTCHAR 313d
ENCODING 12605
SWIDTH 960 0
DWIDTH 10 0
BBX 10 10 0 -2
BITMAP
0d80
ffc0
d780
d580
d780
d300
ffc0
0d00
0700
0000
ENDCHAR
STARTCHAR 313e
ENCODING 12606
SWIDTH 960 0
DWIDTH 10 0
BBX 10 10 0 -2
BITMAP
0000
7f80
0000
0000
ffc0
1800
1b00
3780
7d80
0000
ENDCHAR
STARTCHAR 313f
ENCODING 12607
SWIDTH 960 0
DWIDTH 10 0
BBX 10 10 0 -2
BITMAP
dfc0
76c0
1f80
ea80
6f80
6a80
6f80
6600
dfc0
0000
ENDCHAR
STARTCHAR 3140
ENCODING 12608
SWIDTH 960 0
DWIDTH 10 0
BBX 10 10 0 -2
BITMAP
7f80
0c00
ffc0
d540
7f80
0000
ffc0
3300
7e80
0000
ENDCHAR
STARTCHAR 3141
ENCODING 12609
SWIDTH 960 0
DWIDTH 10 0
BBX 10 10 0 -2
BITMAP
3300
ffc0
3300
0000
6f80
6600
efc0
6600
6f80
0000
ENDCHAR
STARTCHAR 3142
ENCODING 12610
SWIDTH 960 0
DWIDTH 10 0
BBX 10 10 0 -2
BITMAP
6000
d7c0
0680
f780
d680
f780
c680
d7c0
f180
0000
ENDCHAR
STARTCHAR 3143
ENCODING 12611
SWIDTH 960 0
DWIDTH 10 0
BBX 10 10 0 -2
BITMAP
3c00
33c0
fd40
d540
7b40
ed80
7980
6b40
7ac0
0000
ENDCHAR
STARTCHAR 3144
ENCODING 12612
SWIDTH 960 0
DWIDTH 10 0
BBX 10 10 0 -2
BITMAP
6980
3500
ffc0
d340
3f00
1800
7f80
6180
7f80
0000
ENDCHAR
STARTCHAR 3145
ENCODING 12613
SWIDTH 960 0
DWIDTH 10 0
BBX 10 10 0 -2
BITMAP
7b80
6a80
7b80
ccc0
1800
ffc0
3300
3e00
f3c0
0000
ENDCHAR
STARTCHAR 3146
ENCODING 12614
SWIDTH 960 0
DWIDTH 10 0
BBX 10 10 0 -2
BITMAP
fcc0
cd80
fd00
30c0
fd80
6b00
78c0
3180
d500
0000
ENDCHAR
STARTCHAR 3147
ENCODING 12615
SWIDTH 960 0
DWIDTH 10 0
BBX 10 10 0 -2
BITMAP
0300
f300
d7c0
d540
f540
dfc0
d300
f680
0cc0
0000
ENDCHAR
STARTCHAR 3148
ENCODING 12616
SWIDTH 960 0
DWIDTH 10 0
BBX 10 10 0 -2
BITMAP
1800
ff00
db00
ff00
db00
ff00
0d00
0ec0
fbc0
0000
ENDCHAR
STARTCHAR 3149
ENCODING 12617
SWIDTH 960 0
DWIDTH 10 0
BBX 10 10 0 -2
BITMAP
6980
3500
ffc0
ccc0
7f80
1e00
3500
edc0
0c00
0000
ENDCHAR
STARTCHAR 314a
ENCODING 12618
SWIDTH 960 0
DWIDTH 10 0
BBX 10 10 0 -2
BITMAP
3e00
0000
3c00
0d80
f700
3600
6d00
cdc0
1c00
0000
ENDCHAR
STARTCHAR 314b
ENCODING 12619
SWIDTH 960 0
DWIDTH 10 0
BBX 10 10 0 -2
BITMAP
cf00
6000
1e00
c680
6f00
0f00
6a80
76c0
ce00
0000
ENDCHAR
STARTCHAR 314c
ENCODING 12620
SWIDTH 960 0
DWIDTH 10 0
BBX 10 10 0 -2
BITMAP
c600
6f80
1a80
df80
6a80
1f80
6600
6740
ddc0
0000
ENDCHAR
STARTCHAR 314d
ENCODING 12621
SWIDTH 960 0
DWIDTH 10 0
BBX 10 10 0 -2
BITMAP
0680
f7c0
6680
6fc0
f540
6fc0
7300
e680
0cc0
0000
ENDCHAR
STARTCHAR 314e
ENCODING 12622
SWIDTH 960 0
DWIDTH 10 0
BBX 10 10 0 -2
BITMAP
ff00
6b00
75c0
68c0
d580
0000
7f80
6a80
ffc0
0000
ENDCHAR
STARTCHAR 314f
ENCODING 12623
SWIDTH 960 0
DWIDTH 10 0
BBX 10 10 0 -2
BITMAP
c7c0
fb00
c7c0
7ac0
37c0
fac0
37c0
7980
d6c0
0000
ENDCHAR
STARTCHAR 3150
ENCODING 12624
SWIDTH 960 0
DWIDTH 10 0
BBX 10 10 0 -2
BITMAP
c7c0
fb00
c7c0
7ac0
07c0
fac0
37c0
d980
d6c0
0000
ENDCHAR
STARTCHAR 3151
ENCODING 12625
SWIDTH 960 0
DWIDTH 10 0
BBX 10 10 0 -2
BITMAP
3300
ffc0
3500
7f80
6d80
ffc0
0c00
3b00
e1c0
0000
ENDCHAR
STARTCHAR 3152
ENCODING 12626
SWIDTH 960 0
DWIDTH 10 0
BBX 10 10 0 -2
BITMAP
6800
dec0
1a00
6ec0
ed80
6e80
6d80
6e80
6d80
0000
ENDCHAR
STARTCHAR 3153
ENCODING 12627
SWIDTH 960 0
DWIDTH 10 0
BBX 10 10 0 -2
BITMAP
f700
0000
f700
0340
f780
0700
f580
db40
f700
0000
ENDCHAR
STARTCHAR 3154
ENCODING 12628
SWIDTH 960 0
DWIDTH 10 0
BBX 10 10 0 -2
BITMAP
34c0
6a80
f7c0
34c0
f4c0
37c0
da80
7680
edc0
0000
ENDCHAR
STARTCHAR 3155
ENCODING 12629
SWIDTH 960 0
DWIDTH 10 0
BBX 10 10 0 -2
BITMAP
c600
6fc0
0000
cdc0
6b40
3a80
6980
6b40
dac0
0000
ENDCHAR
STARTCHAR 3156
ENCODING 12630
SWIDTH 960 0
DWIDTH 10 0
BBX 10 10 0 -2
BITMAP
0600
7fc0
6f00
ed40
6bc0
ef80
6d80
6700
ddc0
0000
ENDCHAR
STARTCHAR 3157
ENCODING 12631
SWIDTH 960 0
DWIDTH 10 0
BBX 10 10 0 -2
BITMAP
6180
3300
ffc0
3300
6180
ffc0
6a80
6a80
ffc0
0000
ENDCHAR
STARTCHAR 3158
ENCODING 12632
SWIDTH 960 0
DWIDTH 10 0
BBX 10 10 0 -2
BITMAP
fbc0
d6c0
fac0
d7c0
d680
fa80
1a80
6ac0
d4c0
0000
ENDCHAR
STARTCHAR 3159
ENCODING 12633
SWIDTH 960 0
DWIDTH 10 0
BBX 10 10 0 -2
BITMAP
6cc0
6680
f7c0
f4c0
6fc0
6680
6680
6d80
6dc0
0000
ENDCHAR
STARTCHAR 315a
ENCODING 12634
SWIDTH 960 0
DWIDTH 10 0
BBX 10 10 0 -2
BITMAP
f780
0d80
f780
0600
f7c0
1ac0
f540
d740
f380
0000
ENDCHAR
STARTCHAR 315b
ENCODING 12635
SWIDTH 960 0
DWIDTH 10 0
BBX 10 10 0 -2
BITMAP
3340
fb00
37c0
fa80
36c0
da80
d740
f000
dfc0
0000
ENDCHAR
STARTCHAR 315c
ENCODING 12636
SWIDTH 960 0
DWIDTH 10 0
BBX 10 10 0 -2
BITMAP
f3c0
d340
f3c0
dac0
df40
d340
df40
dac0
d340
0000
ENDCHAR
STARTCHAR 315d
ENCODING 12637
SWIDTH 960 0
DWIDTH 10 0
BBX 10 10 0 -2
BITMAP
37c0
3300
fb80
3680
7a80
7780
d680
3300
36c0
0000
ENDCHAR
STARTCHAR 315e
ENCODING 12638
SWIDTH 960 0
DWIDTH 10 0
BBX 10 10 0 -2
BITMAP
ffc0
c000
ddc0
d580
ddc0
d580
dd80
d540
d540
0000
ENDCHAR
STARTCHAR 315f
ENCODING 12639
SWIDTH 960 0
DWIDTH 10 0
BBX 10 10 0 -2
BITMAP
ffc0
ccc0
ccc0
ccc0
ffc0
c0c0
c0c0
c0c0
c1c0
0000
ENDCHAR
STARTCHAR 3160
ENCODING 12640
SWIDTH 960 0
DWIDTH 10 0
BBX 10 10 0 -2
BITMAP
ffc0
ccc0
df40
ffc0
d340
df40
dec0
d540
ffc0
0000
ENDCHAR
STARTCHAR 3161
ENCODING 12641
SWIDTH 960 0
DWIDTH 10 0
BBX 10 10 0 -2
BITMAP
6fc0
6a80
fb80
6b00
6fc0
6a80
7b80
eac0
1fc0
0000
ENDCHAR
STARTCHAR 3162
ENCODING 12642
SWIDTH 960 0
DWIDTH 10 0
BBX 10 10 0 -2
BITMAP
0c00
ffc0
3f00
7580
df40
3500
3f00
0cc0
0fc0
0000
ENDCHAR
STARTCHAR 3163
ENCODING 12643
SWIDTH 960 0
DWIDTH 10 0
BBX 10 10 0 -2
BITMAP
0c00
ffc0
d340
3f00
1800
ffc0
3300
3e00
f3c0
0000
ENDCHAR
STARTCHAR 3164
ENCODING 12644
SWIDTH 960 0
DWIDTH 10 0
BBX 10 10 0 -2
BITMAP
f1c0
3700
6300
f5c0
3500
d500
d7c0
6000
dfc0
0000
ENDCHAR
STARTCHAR 3165
ENCODING 12645
SWIDTH 960 0
DWIDTH 10 0
BBX 10 10 0 -2
BITMAP
6000
7b80
da80
6b80
36c0
e7c0
0c00
d340
df40
0000
ENDCHAR
STARTCHAR 3166
ENCODING 12646
SWIDTH 960 0
DWIDTH 10 0
BBX 10 10 0 -2
BITMAP
6600
6fc0
f700
6a80
7fc0
ea80
6f80
66c0
e7c0
0000
ENDCHAR
STARTCHAR 3167
ENCODING 12647
SWIDTH 960 0
DWIDTH 10 0
BBX 10 10 0 -2
BITMAP
6fc0
6d40
f680
6fc0
7400
efc0
6e80
6b00
eec0
0000
ENDCHAR
STARTCHAR 3168
ENCODING 12648
SWIDTH 960 0
DWIDTH 10 0
BBX 10 10 0 -2
BITMAP
cd00
6d00
1980
d980
6000
1f80
6980
6980
df80
0000
ENDCHAR
STARTCHAR 3169
ENCODING 12649
SWIDTH 960 0
DWIDTH 10 0
BBX 10 10 0 -2
BITMAP
c600
7fc0
30c0
df80
6600
1f80
6a80
6f80
d0c0
0000
ENDCHAR
STARTCHAR 316a
ENCODING 12650
SWIDTH 960 0
DWIDTH 10 0
BBX 10 10 0 -2
BITMAP
6cc0
cd80
1a00
f3c0
0000
6cc0
cd80
1a00
f3c0
0000
ENDCHAR
STARTCHAR 316b
ENCODING 12651
SWIDTH 960 0
DWIDTH 10 0
BBX 10 10 0 -2
BITMAP
6780
6680
f580
f300
6dc0
6d40
6dc0
d540
cdc0
0000
ENDCHAR
STARTCHAR 316c
ENCODING 12652
SWIDTH 960 0
DWIDTH 10 0
BBX 10 10 0 -2
BITMAP
6fc0
6300
f7c0
f540
6fc0
6300
6fc0
d300
cfc0
0000
ENDCHAR
STARTCHAR 316d
ENCODING 12653
SWIDTH 960 0
DWIDTH 10 0
BBX 10 10 0 -2
BITMAP
1a00
ffc0
1e00
6180
eec0
6a80
eec0
0000
eac0
0000
ENDCHAR
STARTCHAR 316e
ENCODING 12654
SWIDTH 960 0
DWIDTH 10 0
BBX 10 10 0 -2
BITMAP
d600
6f80
e680
6fc0
6d80
ef80
6740
6d80
cec0
0000
ENDCHAR
STARTCHAR 316f
ENCODING 12655
SWIDTH 960 0
DWIDTH 10 0
BBX 10 10 0 -2
BITMAP
3780
6180
d780
6980
f7c0
3740
d580
d680
3540
0000
ENDCHAR
STARTCHAR 3170
ENCODING 12656
SWIDTH 960 0
DWIDTH 10 0
BBX 10 10 0 -2
BITMAP
d780
f580
f300
0fc0
f540
d540
f7c0
6c00
f7c0
0000
ENDCHAR
STARTCHAR 3171
ENCODING 12657
SWIDTH 960 0
DWIDTH 10 0
BBX 10 10 0 -2
BITMAP
3300
ffc0
3300
3000
7b80
da80
6b80
36c0
e7c0
0000
ENDCHAR
STARTCHAR 3172
ENCODING 12658
SWIDTH 960 0
DWIDTH 10 0
BBX 10 10 0 -2
BITMAP
3300
ffc0
3300
ffc0
dac0
dd40
fac0
db40
ffc0
0000
ENDCHAR
STARTCHAR 3173
ENCODING 12659
SWIDTH 960 0
DWIDTH 10 0
BBX 10 10 0 -2
BITMAP
c600
6f80
0600
efc0
6d80
6740
6e80
6ac0
dfc0
0000
ENDCHAR
STARTCHAR 3174
ENCODING 12660
SWIDTH 960 0
DWIDTH 10 0
BBX 10 10 0 -2
BITMAP
3180
6a80
f6c0
34c0
f800
37c0
dac0
76c0
e7c0
0000
ENDCHAR
STARTCHAR 3175
ENCODING 12661
SWIDTH 960 0
DWIDTH 10 0
BBX 10 10 0 -2
BITMAP
7b80
ea80
3fc0
f300
3f80
3000
3fc0
c0c0
d540
0000
ENDCHAR
STARTCHAR 3176
ENCODING 12662
SWIDTH 960 0
DWIDTH 10 0
BBX 10 10 0 -2
BITMAP
6c00
6f80
f000
6f00
6f00
7000
ef80
1a80
3fc0
0000
ENDCHAR
STARTCHAR 3177
ENCODING 12663
SWIDTH 960 0
DWIDTH 10 0
BBX 10 10 0 -2
BITMAP
6600
6700
f580
68c0
7600
d300
d000
3600
7300
0000
ENDCHAR
STARTCHAR 3178
ENCODING 12664
SWIDTH 960 0
DWIDTH 10 0
BBX 10 10 0 -2
BITMAP
df80
6600
3fc0
cc00
6f80
1980
6180
6180
c700
0000
ENDCHAR
STARTCHAR 3179
ENCODING 12665
SWIDTH 960 0
DWIDTH 10 0
BBX 10 10 0 -2
BITMAP
6fc0
ed40
f7c0
6d40
f7c0
6600
6fc0
f6c0
0dc0
0000
ENDCHAR
STARTCHAR 317a
ENCODING 12666
SWIDTH 960 0
DWIDTH 10 0
BBX 10 10 0 -2
BITMAP
fbc0
dac0
dac0
dac0
dec0
c0c0
c0c0
c0c0
ffc0
0000
ENDCHAR
STARTCHAR 317b
ENCODING 12667
SWIDTH 960 0
DWIDTH 10 0
BBX 10 10 0 -2
BITMAP
0c00
0c00
7f80
6d80
6d80
ffc0
1a00
3300
e1c0
0000
ENDCHAR
STARTCHAR 317c
ENCODING 12668
SWIDTH 960 0
DWIDTH 10 0
BBX 10 10 0 -2
BITMAP
0c00
7f80
7580
6e80
7580
6d80
ffc0
1a00
f3c0
0000
ENDCHAR
STARTCHAR 317d
ENCODING 12669
SWIDTH 960 0
DWIDTH 10 0
BBX 10 10 0 -2
BITMAP
6600
c300
37c0
6300
e300
6fc0
6300
6300
6fc0
0000
ENDCHAR
STARTCHAR 317e
ENCODING 12670
SWIDTH 960 0
DWIDTH 10 0
BBX 10 10 0 -2
BITMAP
0c00
ffc0
c000
ce00
c000
d580
d4c0
d580
cf80
0000
ENDCHAR
STARTCHAR 3221
ENCODING 12833
SWIDTH 960 0
DWIDTH 10 0
BBX 10 10 0 -2
BITMAP
6000
6fc0
f540
6fc0
7540
efc0
6300
6300
e300
0000
ENDCHAR
STARTCHAR 3222
ENCODING 12834
SWIDTH 960 0
DWIDTH 10 0
BBX 10 10 0 -2
BITMAP
0000
f7c0
d300
d300
f780
d300
d300
f300
0fc0
0000
ENDCHAR
STARTCHAR 3223
ENCODING 12835
SWIDTH 960 0
DWIDTH 10 0
BBX 10 10 0 -2
BITMAP
6d00
7fc0
ed00
7fc0
ea80
ff80
ea80
6f80
70c0
0000
ENDCHAR
STARTCHAR 3224
ENCODING 12836
SWIDTH 960 0
DWIDTH 10 0
BBX 10 10 0 -2
BITMAP
fa00
dbc0
eac0
d540
d380
eb00
c300
fa80
0cc0
0000
ENDCHAR
STARTCHAR 3225
ENCODING 12837
SWIDTH 960 0
DWIDTH 10 0
BBX 10 10 0 -2
BITMAP
fb80
da80
eec0
d000
d780
ea80
c300
fa80
0cc0
0000
ENDCHAR
STARTCHAR 3226
ENCODING 12838
SWIDTH 960 0
DWIDTH 10 0
BBX 10 10 0 -2
BITMAP
ffc0
0c00
0c00
0c00
7f80
0c00
0c00
0c00
ffc0
0000
ENDCHAR
STARTCHAR 3227
ENCODING 12839
SWIDTH 960 0
DWIDTH 10 0
BBX 10 10 0 -2
BITMAP
3300
6d80
dec0
0000
fbc0
dac0
6b40
dac0
39c0
0000
ENDCHAR
STARTCHAR 3228
ENCODING 12840
SWIDTH 960 0
DWIDTH 10 0
BBX 10 10 0 -2
BITMAP
6300
f7c0
3540
6ec0
7540
efc0
6300
6680
6cc0
0000
ENDCHAR
STARTCHAR 3229
ENCODING 12841
SWIDTH 960 0
DWIDTH 10 0
BBX 10 10 0 -2
BITMAP
3500
ffc0
df40
3300
3fc0
3000
3fc0
c0c0
d540
0000
ENDCHAR
STARTCHAR 322a
ENCODING 12842
SWIDTH 960 0
DWIDTH 10 0
BBX 10 10 0 -2
BITMAP
fb00
db80
ea80
d7c0
d600
ebc0
c0c0
f540
0d80
0000
ENDCHAR
STARTCHAR 322b
ENCODING 12843
SWIDTH 960 0
DWIDTH 10 0
BBX 10 10 0 -2
BITMAP
3300
ffc0
3300
ffc0
6d80
7f80
6d80
7f80
c0c0
0000
ENDCHAR
STARTCHAR 322c
ENCODING 12844
SWIDTH 960 0
DWIDTH 10 0
BBX 10 10 0 -2
BITMAP
ffc0
d340
dac0
ffc0
ccc0
d540
d540
df40
c1c0
0000
ENDCHAR
STARTCHAR 322d
ENCODING 12845
SWIDTH 960 0
DWIDTH 10 0
BBX 10 10 0 -2
BITMAP
c600
6600
1f80
da80
6a80
1f80
6600
6600
c600
0000
ENDCHAR
STARTCHAR 322e
ENCODING 12846
SWIDTH 960 0
DWIDTH 10 0
BBX 10 10 0 -2
BITMAP
3300
ffc0
3300
d000
6d40
d540
7300
d680
6cc0
0000
ENDCHAR
STARTCHAR 322f
ENCODING 12847
SWIDTH 960 0
DWIDTH 10 0
BBX 10 10 0 -2
BITMAP
3300
37c0
6680
6fc0
ed80
6f80
6300
6ac0
6b40
0000
ENDCHAR
STARTCHAR 3230
ENCODING 12848
SWIDTH 960 0
DWIDTH 10 0
BBX 10 10 0 -2
BITMAP
7fc0
60c0
7fc0
6d80
6f80
66c0
6f80
c600
dfc0
0000
ENDCHAR
STARTCHAR 3231
ENCODING 12849
SWIDTH 960 0
DWIDTH 10 0
BBX 10 10 0 -2
BITMAP
6300
6fc0
f680
ffc0
6d80
6f80
6300
6ac0
6b40
0000
ENDCHAR
STARTCHAR 3232
ENCODING 12850
SWIDTH 960 0
DWIDTH 10 0
BBX 10 10 0 -2
BITMAP
f300
d7c0
f680
dfc0
f580
d780
d300
dac0
db40
0000
ENDCHAR
STARTCHAR 3233
ENCODING 12851
SWIDTH 960 0
DWIDTH 10 0
BBX 10 10 0 -2
BITMAP
37c0
3180
f7c0
3540
77c0
7d40
d7c0
3540
3540
0000
ENDCHAR
STARTCHAR 3234
ENCODING 12852
SWIDTH 960 0
DWIDTH 10 0
BBX 10 10 0 -2
BITMAP
3300
d300
fb00
d7c0
3b00
7300
d300
3300
37c0
0000
ENDCHAR
STARTCHAR 3235
ENCODING 12853
SWIDTH 960 0
DWIDTH 10 0
BBX 10 10 0 -2
BITMAP
0000
7f00
0600
0c00
1800
3000
6000
c0c0
7fc0
0000
ENDCHAR
STARTCHAR 3236
ENCODING 12854
SWIDTH 960 0
DWIDTH 10 0
BBX 10 10 0 -2
BITMAP
3600
3fc0
6d00
6a80
ffc0
6a80
6f80
66c0
67c0
0000
ENDCHAR
STARTCHAR 3237
ENCODING 12855
SWIDTH 960 0
DWIDTH 10 0
BBX 10 10 0 -2
BITMAP
c000
fbc0
36c0
fac0
36c0
dac0
d6c0
dac0
f600
0000
ENDCHAR
STARTCHAR 3238
ENCODING 12856
SWIDTH 960 0
DWIDTH 10 0
BBX 10 10 0 -2
BITMAP
7f80
6d80
7f80
6a80
7380
7f80
0c00
d6c0
df40
0000
ENDCHAR
STARTCHAR 3239
ENCODING 12857
SWIDTH 960 0
DWIDTH 10 0
BBX 10 10 0 -2
BITMAP
df80
6980
1f80
d980
6f80
0000
6f80
6a80
dfc0
0000
ENDCHAR
STARTCHAR 323a
ENCODING 12858
SWIDTH 960 0
DWIDTH 10 0
BBX 10 10 0 -2
BITMAP
f7c0
6d40
f780
6180
f780
f780
e300
6ac0
6b40
0000
ENDCHAR
STARTCHAR 323b
ENCODING 12859
SWIDTH 960 0
DWIDTH 10 0
BBX 10 10 0 -2
BITMAP
0c00
7f80
3300
ffc0
3f00
3300
3f00
3300
3f00
0000
ENDCHAR
STARTCHAR 323c
ENCODING 12860
SWIDTH 960 0
DWIDTH 10 0
BBX 10 10 0 -2
BITMAP
ffc0
0c00
0c00
0f00
0d80
0c00
0c00
0c00
0c00
0000
ENDCHAR
STARTCHAR 323d
ENCODING 12861
SWIDTH 960 0
DWIDTH 10 0
BBX 10 10 0 -2
BITMAP
3400
3400
6d80
6f00
ec00
6c00
6c00
6cc0
67c0
0000
ENDCHAR
STARTCHAR 323e
ENCODING 12862
SWIDTH 960 0
DWIDTH 10 0
BBX 10 10 0 -2
BITMAP
37c0
3400
6f80
6d80
ee80
6e80
6d00
6b80
6ac0
0000
ENDCHAR
STARTCHAR 323f
ENCODING 12863
SWIDTH 960 0
DWIDTH 10 0
BBX 10 10 0 -2
BITMAP
3000
3fc0
6180
6e80
ea80
6a80
6e80
6180
6380
0000
ENDCHAR
STARTCHAR 3240
ENCODING 12864
SWIDTH 960 0
DWIDTH 10 0
BBX 10 10 0 -2
BITMAP
3400
3400
6fc0
6d40
ed40
6d40
6d40
6b40
6bc0
0000
ENDCHAR
STARTCHAR 3241
ENCODING 12865
SWIDTH 960 0
DWIDTH 10 0
BBX 10 10 0 -2
BITMAP
6000
7fc0
cd00
dfc0
d540
d540
d540
d540
dfc0
0000
ENDCHAR
STARTCHAR 3242
ENCODING 12866
SWIDTH 960 0
DWIDTH 10 0
BBX 10 10 0 -2
BITMAP
3600
3780
6600
6fc0
e600
6600
6f80
6600
6fc0
0000
ENDCHAR
STARTCHAR 3243
ENCODING 12867
SWIDTH 960 0
DWIDTH 10 0
BBX 10 10 0 -2
BITMAP
3000
3000
fdc0
3540
3540
3540
6d40
6d40
ddc0
0000
ENDCHAR
STARTCHAR 3244
ENCODING 12868
SWIDTH 960 0
DWIDTH 10 0
BBX 10 10 0 -2
BITMAP
0000
ffc0
0180
7d80
6d80
6d80
7d80
0180
0380
0000
ENDCHAR
STARTCHAR 3245
ENCODING 12869
SWIDTH 960 0
DWIDTH 10 0
BBX 10 10 0 -2
BITMAP
0c00
ffc0
0c00
7f80
3300
ffc0
3180
fbc0
6bc0
0000
ENDCHAR
STARTCHAR 3246
ENCODING 12870
SWIDTH 960 0
DWIDTH 10 0
BBX 10 10 0 -2
BITMAP
ffc0
1800
7f80
6180
7f80
1f00
7300
1e00
f3c0
0000
ENDCHAR
STARTCHAR 3247
ENCODING 12871
SWIDTH 960 0
DWIDTH 10 0
BBX 10 10 0 -2
BITMAP
6300
6fc0
f4c0
d780
d500
d3c0
6e80
71c0
d700
0000
ENDCHAR
STARTCHAR 3248
ENCODING 12872
SWIDTH 960 0
DWIDTH 10 0
BBX 10 10 0 -2
BITMAP
0c00
ffc0
c0c0
7f00
1cc0
7680
1b00
f6c0
1c00
0000
ENDCHAR
STARTCHAR 3249
ENCODING 12873
SWIDTH 960 0
DWIDTH 10 0
BBX 10 10 0 -2
BITMAP
0c00
ffc0
df40
3300
ffc0
6180
df40
1b00
7700
0000
ENDCHAR
STARTCHAR 324a
ENCODING 12874
SWIDTH 960 0
DWIDTH 10 0
BBX 10 10 0 -2
BITMAP
3980
f680
3180
fa80
3180
7bc0
7680
d180
3180
0000
ENDCHAR
STARTCHAR 324b
ENCODING 12875
SWIDTH 960 0
DWIDTH 10 0
BBX 10 10 0 -2
BITMAP
1ec0
eac0
aec0
a800
edc0
ab40
ad40
e980
1b40
0000
ENDCHAR
STARTCHAR 324c
ENCODING 12876
SWIDTH 960 0
DWIDTH 10 0
BBX 10 10 0 -2
BITMAP
7f80
6d80
7f80
6d80
7f80
0c00
ffc0
3500
edc0
0000
ENDCHAR
STARTCHAR 324d
ENCODING 12877
SWIDTH 960 0
DWIDTH 10 0
BBX 10 10 0 -2
BITMAP
6000
fbc0
6ac0
dbc0
0c00
ffc0
1e00
3500
edc0
0000
ENDCHAR
STARTCHAR 324e
ENCODING 12878
SWIDTH 960 0
DWIDTH 10 0
BBX 10 10 0 -2
BITMAP
fa00
d7c0
f6c0
3540
fb00
d300
f680
3680
74c0
0000
ENDCHAR
STARTCHAR 324f
ENCODING 12879
SWIDTH 960 0
DWIDTH 10 0
BBX 10 10 0 -2
BITMAP
dfc0
6180
1e80
da80
6a80
1e80
6180
6180
c380
0000
ENDCHAR
STARTCHAR 3250
ENCODING 12880
SWIDTH 960 0
DWIDTH 10 0
BBX 10 10 0 -2
BITMAP
0c00
0c00
ccc0
6d80
0c00
1a00
1a00
3300
e1c0
0000
ENDCHAR
STARTCHAR 3251
ENCODING 12881
SWIDTH 960 0
DWIDTH 10 0
BBX 10 10 0 -2
BITMAP
1fc0
f180
6e80
6a80
fa80
6e80
7180
e180
0380
0000
ENDCHAR
STARTCHAR 3252
ENCODING 12882
SWIDTH 960 0
DWIDTH 10 0
BBX 10 10 0 -2
BITMAP
6f80
f580
3580
6fc0
68c0
fb40
6b40
6b40
69c0
0000
ENDCHAR
STARTCHAR 3253
ENCODING 12883
SWIDTH 960 0
DWIDTH 10 0
BBX 10 10 0 -2
BITMAP
0700
7c00
0c00
ffc0
1e00
3500
6d80
ccc0
0c00
0000
ENDCHAR
STARTCHAR 3254
ENCODING 12884
SWIDTH 960 0
DWIDTH 10 0
BBX 10 10 0 -2
BITMAP
3b00
f7c0
34c0
fb80
3300
7ac0
7380
d6c0
3300
0000
ENDCHAR
STARTCHAR 3255
ENCODING 12885
SWIDTH 960 0
DWIDTH 10 0
BBX 10 10 0 -2
BITMAP
6300
fbc0
3180
ffc0
ccc0
df40
dec0
dac0
ffc0
0000
ENDCHAR
STARTCHAR 3256
ENCODING 12886
SWIDTH 960 0
DWIDTH 10 0
BBX 10 10 0 -2
BITMAP
3300
ffc0
3300
3400
6dc0
6f00
ec00
6cc0
67c0
0000
ENDCHAR
STARTCHAR 3257
ENCODING 12887
SWIDTH 960 0
DWIDTH 10 0
BBX 10 10 0 -2
BITMAP
3300
ffc0
3300
ffc0
0180
7d80
6d80
7d80
0380
0000
ENDCHAR
STARTCHAR 3258
ENCODING 12888
SWIDTH 960 0
DWIDTH 10 0
BBX 10 10 0 -2
BITMAP
3300
ffc0
3300
6000
fbc0
6ac0
6ac0
dac0
dbc0
0000
ENDCHAR
STARTCHAR 3259
ENCODING 12889
SWIDTH 960 0
DWIDTH 10 0
BBX 10 10 0 -2
BITMAP
3300
ffc0
3300
3fc0
6180
ee80
6a80
6e80
6380
0000
ENDCHAR
STARTCHAR 325a
ENCODING 12890
SWIDTH 960 0
DWIDTH 10 0
BBX 10 10 0 -2
BITMAP
3300
ffc0
3300
ffc0
6d80
ffc0
6d80
ffc0
0c00
0000
ENDCHAR
STARTCHAR 325b
ENCODING 12891
SWIDTH 960 0
DWIDTH 10 0
BBX 10 10 0 -2
BITMAP
3300
ffc0
7f80
6d80
7f80
6d80
ffc0
3500
edc0
0000
ENDCHAR
STARTCHAR 325c
ENCODING 12892
SWIDTH 960 0
DWIDTH 10 0
BBX 10 10 0 -2
BITMAP
6fc0
6ac0
ffc0
e800
edc0
fb40
6d40
7980
eb40
0000
ENDCHAR
STARTCHAR 325d
ENCODING 12893
SWIDTH 960 0
DWIDTH 10 0
BBX 10 10 0 -2
BITMAP
f7c0
0d40
f7c0
0d40
f7c0
0300
f7c0
d780
f540
0000
ENDCHAR
STARTCHAR 325e
ENCODING 12894
SWIDTH 960 0
DWIDTH 10 0
BBX 10 10 0 -2
BITMAP
0d00
ffc0
ed00
ffc0
ea80
ffc0
ea80
3fc0
0600
0000
ENDCHAR
STARTCHAR 325f
ENCODING 12895
SWIDTH 960 0
DWIDTH 10 0
BBX 10 10 0 -2
BITMAP
3580
ee00
67c0
3f00
3300
3f00
3300
3f00
6180
0000
ENDCHAR
STARTCHAR 3260
ENCODING 12896
SWIDTH 960 0
DWIDTH 10 0
BBX 10 10 0 -2
BITMAP
cc00
6c00
1fc0
ed40
6d40
6b40
6bc0
7000
dfc0
0000
ENDCHAR
STARTCHAR 3261
ENCODING 12897
SWIDTH 960 0
DWIDTH 10 0
BBX 10 10 0 -2
BITMAP
cf80
6d80
0d80
efc0
68c0
6b40
6b40
6000
dfc0
0000
ENDCHAR
STARTCHAR 3262
ENCODING 12898
SWIDTH 960 0
DWIDTH 10 0
BBX 10 10 0 -2
BITMAP
7f80
0c00
ffc0
d540
0000
fbc0
c6c0
fb80
c6c0
0000
ENDCHAR
STARTCHAR 3263
ENCODING 12899
SWIDTH 960 0
DWIDTH 10 0
BBX 10 10 0 -2
BITMAP
6300
6300
ffc0
ea80
ea80
fa80
6300
7a80
ecc0
0000
ENDCHAR
STARTCHAR 3264
ENCODING 12900
SWIDTH 960 0
DWIDTH 10 0
BBX 10 10 0 -2
BITMAP
3700
3d40
6d00
6fc0
ed00
6f40
6d40
6d80
6d40
0000
ENDCHAR
STARTCHAR 3265
ENCODING 12901
SWIDTH 960 0
DWIDTH 10 0
BBX 10 10 0 -2
BITMAP
6700
6d40
f500
ffc0
f500
f740
fd40
0d80
1d40
0000
ENDCHAR
STARTCHAR 3266
ENCODING 12902
SWIDTH 960 0
DWIDTH 10 0
BBX 10 10 0 -2
BITMAP
1a80
76c0
3600
ffc0
36c0
3a80
f300
3340
76c0
0000
ENDCHAR
STARTCHAR 3267
ENCODING 12903
SWIDTH 960 0
DWIDTH 10 0
BBX 10 10 0 -2
BITMAP
7f80
3600
3600
ffc0
0e00
1a00
3600
e600
0e00
0000
ENDCHAR
STARTCHAR 3268
ENCODING 12904
SWIDTH 960 0
DWIDTH 10 0
BBX 10 10 0 -2
BITMAP
ffc0
0c00
df40
d540
df40
d540
df40
c0c0
ffc0
0000
ENDCHAR
STARTCHAR 3269
ENCODING 12905
SWIDTH 960 0
DWIDTH 10 0
BBX 10 10 0 -2
BITMAP
fb00
d300
fb00
db00
fb00
d680
d680
fa80
0cc0
0000
ENDCHAR
STARTCHAR 326a
ENCODING 12906
SWIDTH 960 0
DWIDTH 10 0
BBX 10 10 0 -2
BITMAP
3300
ffc0
3300
7f80
3300
ffc0
0d00
3b00
e700
0000
ENDCHAR
STARTCHAR 326b
ENCODING 12907
SWIDTH 960 0
DWIDTH 10 0
BBX 10 10 0 -2
BITMAP
6680
6dc0
fa80
efc0
ea80
fac0
6e80
7a80
ef40
0000
ENDCHAR
STARTCHAR 326c
ENCODING 12908
SWIDTH 960 0
DWIDTH 10 0
BBX 10 10 0 -2
BITMAP
6000
fbc0
6ac0
dfc0
3300
3f00
3300
3f00
6180
0000
ENDCHAR
STARTCHAR 326d
ENCODING 12909
SWIDTH 960 0
DWIDTH 10 0
BBX 10 10 0 -2
BITMAP
fd40
6a80
6fc0
fa80
3bc0
6a80
6bc0
da80
3bc0
0000
ENDCHAR
STARTCHAR 326e
ENCODING 12910
SWIDTH 960 0
DWIDTH 10 0
BBX 10 10 0 -2
BITMAP
6700
d540
0d00
ffc0
d500
f740
dd40
d580
f540
0000
ENDCHAR
STARTCHAR 326f
ENCODING 12911
SWIDTH 960 0
DWIDTH 10 0
BBX 10 10 0 -2
BITMAP
6000
fbc0
6ac0
dbc0
7f80
6c00
7fc0
00c0
d540
0000
ENDCHAR
STARTCHAR 3270
ENCODING 12912
SWIDTH 960 0
DWIDTH 10 0
BBX 10 10 0 -2
BITMAP
0c00
1a00
3300
7380
d340
3300
3300
6300
c300
0000
ENDCHAR
STARTCHAR 3271
ENCODING 12913
SWIDTH 960 0
DWIDTH 10 0
BBX 10 10 0 -2
BITMAP
0c00
1a00
3300
eec0
0000
7f80
1800
3300
7e80
0000
ENDCHAR
STARTCHAR 3272
ENCODING 12914
SWIDTH 960 0
DWIDTH 10 0
BBX 10 10 0 -2
BITMAP
7bc0
d340
fac0
d800
fa80
dbc0
f980
dbc0
d980
0000
ENDCHAR
STARTCHAR 3273
ENCODING 12915
SWIDTH 960 0
DWIDTH 10 0
BBX 10 10 0 -2
BITMAP
ffc0
c0c0
df40
d340
d340
d340
df40
c0c0
ffc0
0000
ENDCHAR
STARTCHAR 3274
ENCODING 12916
SWIDTH 960 0
DWIDTH 10 0
BBX 10 10 0 -2
BITMAP
6c00
6f80
fa80
6f80
6a80
6f80
7680
eec0
1bc0
0000
ENDCHAR
STARTCHAR 3275
ENCODING 12917
SWIDTH 960 0
DWIDTH 10 0
BBX 10 10 0 -2
BITMAP
6600
6fc0
fa80
6f80
6600
6fc0
ed40
1d80
36c0
0000
ENDCHAR
STARTCHAR 3276
ENCODING 12918
SWIDTH 960 0
DWIDTH 10 0
BBX 10 10 0 -2
BITMAP
f7c0
34c0
6f40
f540
3740
d4c0
6fc0
6000
dfc0
0000
ENDCHAR
STARTCHAR 3277
ENCODING 12919
SWIDTH 960 0
DWIDTH 10 0
BBX 10 10 0 -2
BITMAP
6600
6600
f780
f680
6fc0
6600
6600
6d00
69c0
0000
ENDCHAR
STARTCHAR 3278
ENCODING 12920
SWIDTH 960 0
DWIDTH 10 0
BBX 10 10 0 -2
BITMAP
6f80
6180
f580
f700
6dc0
6600
6f80
6600
6fc0
0000
ENDCHAR
STARTCHAR 3279
ENCODING 12921
SWIDTH 960 0
DWIDTH 10 0
BBX 10 10 0 -2
BITMAP
6800
6fc0
f000
ff80
6a80
6fc0
6a80
6fc0
6180
0000
ENDCHAR
STARTCHAR 327a
ENCODING 12922
SWIDTH 960 0
DWIDTH 10 0
BBX 10 10 0 -2
BITMAP
6fc0
6800
fb00
fd40
6b80
6b00
6b00
7680
6cc0
0000
ENDCHAR
STARTCHAR 327b
ENCODING 12923
SWIDTH 960 0
DWIDTH 10 0
BBX 10 10 0 -2
BITMAP
6600
7fc0
ea80
ef80
6600
6fc0
6d40
6d80
76c0
0000
ENDCHAR
STARTCHAR 327c
ENCODING 12924
SWIDTH 960 0
DWIDTH 10 0
BBX 10 10 0 -2
BITMAP
0340
0300
ffc0
6b00
6b40
fd40
6980
6980
db40
0000
ENDCHAR
STARTCHAR 327d
ENCODING 12925
SWIDTH 960 0
DWIDTH 10 0
BBX 10 10 0 -2
BITMAP
6f80
6d80
f780
6000
77c0
e6c0
66c0
6cc0
eb80
0000
ENDCHAR
STARTCHAR 327e
ENCODING 12926
SWIDTH 960 0
DWIDTH 10 0
BBX 10 10 0 -2
BITMAP
0600
f600
37c0
f680
c680
c680
d300
f680
0cc0
0000
ENDCHAR
STARTCHAR 3321
ENCODING 13089
SWIDTH 960 0
DWIDTH 10 0
BBX 10 10 0 -2
BITMAP
3180
fd80
d580
fd80
d580
ffc0
3580
70c0
dfc0
0000
ENDCHAR
STARTCHAR 3322
ENCODING 13090
SWIDTH 960 0
DWIDTH 10 0
BBX 10 10 0 -2
BITMAP
0c00
f7c0
d800
d7c0
f540
dfc0
d540
f7c0
00c0
0000
ENDCHAR
STARTCHAR 3323
ENCODING 13091
SWIDTH 960 0
DWIDTH 10 0
BBX 10 10 0 -2
BITMAP
6340
6300
ffc0
6300
f500
ef40
ed40
6d80
6340
0000
ENDCHAR
STARTCHAR 3324
ENCODING 13092
SWIDTH 960 0
DWIDTH 10 0
BBX 10 10 0 -2
BITMAP
d800
6fc0
3000
df80
6a80
3fc0
6a80
6fc0
c380
0000
ENDCHAR
STARTCHAR 3325
ENCODING 13093
SWIDTH 960 0
DWIDTH 10 0
BBX 10 10 0 -2
BITMAP
7fc0
6000
6600
6a80
6a80
6600
6600
cd00
d9c0
0000
ENDCHAR
STARTCHAR 3326
ENCODING 13094
SWIDTH 960 0
DWIDTH 10 0
BBX 10 10 0 -2
BITMAP
7f80
6d80
7f80
6d80
7f80
1a00
f3c0
3300
6300
0000
ENDCHAR
STARTCHAR 3327
ENCODING 13095
SWIDTH 960 0
DWIDTH 10 0
BBX 10 10 0 -2
BITMAP
c600
fbc0
c600
fbc0
0c00
7f80
6180
7f80
7f80
0000
ENDCHAR
STARTCHAR 3328
ENCODING 13096
SWIDTH 960 0
DWIDTH 10 0
BBX 10 10 0 -2
BITMAP
3300
6680
d4c0
6780
f800
37c0
d300
d6c0
3740
0000
ENDCHAR
STARTCHAR 3329
ENCODING 13097
SWIDTH 960 0
DWIDTH 10 0
BBX 10 10 0 -2
BITMAP
3300
ffc0
3300
0c00
3b00
e1c0
3300
3300
6300
0000
ENDCHAR
STARTCHAR 332a
ENCODING 13098
SWIDTH 960 0
DWIDTH 10 0
BBX 10 10 0 -2
BITMAP
77c0
d6c0
fbc0
db00
ffc0
6d80
7f80
0cc0
ffc0
0000
ENDCHAR
STARTCHAR 332b
ENCODING 13099
SWIDTH 960 0
DWIDTH 10 0
BBX 10 10 0 -2
BITMAP
fbc0
dac0
fbc0
c0c0
df40
dac0
df40
dac0
d6c0
0000
ENDCHAR
STARTCHAR 332c
ENCODING 13100
SWIDTH 960 0
DWIDTH 10 0
BBX 10 10 0 -2
BITMAP
f580
d6c0
ed80
d6c0
d300
efc0
ccc0
cfc0
cfc0
0000
ENDCHAR
STARTCHAR 332d
ENCODING 13101
SWIDTH 960 0
DWIDTH 10 0
BBX 10 10 0 -2
BITMAP
7f00
6300
7f00
6300
7f00
6300
7f00
3600
e380
0000
ENDCHAR
STARTCHAR 332e
ENCODING 13102
SWIDTH 960 0
DWIDTH 10 0
BBX 10 10 0 -2
BITMAP
db80
da80
fa80
0680
fa80
da80
fa80
7680
fac0
0000
ENDCHAR
STARTCHAR 332f
ENCODING 13103
SWIDTH 960 0
DWIDTH 10 0
BBX 10 10 0 -2
BITMAP
6300
fb00
67c0
db40
7340
6b40
d340
76c0
dac0
0000
ENDCHAR
STARTCHAR 3330
ENCODING 13104
SWIDTH 960 0
DWIDTH 10 0
BBX 10 10 0 -2
BITMAP
6600
7a00
6a00
eb00
da80
1ac0
3600
6600
c600
0000
ENDCHAR
STARTCHAR 3331
ENCODING 13105
SWIDTH 960 0
DWIDTH 10 0
BBX 10 10 0 -2
BITMAP
0300
f7c0
d300
d680
d300
d6c0
f580
0380
0ec0
0000
ENDCHAR
STARTCHAR 3332
ENCODING 13106
SWIDTH 960 0
DWIDTH 10 0
BBX 10 10 0 -2
BITMAP
0c00
ffc0
df40
0c00
7f80
0000
3f00
3300
3f00
0000
ENDCHAR
STARTCHAR 3333
ENCODING 13107
SWIDTH 960 0
DWIDTH 10 0
BBX 10 10 0 -2
BITMAP
6d80
6d80
ffc0
6600
6f80
6600
6f80
6600
dfc0
0000
ENDCHAR
STARTCHAR 3334
ENCODING 13108
SWIDTH 960 0
DWIDTH 10 0
BBX 10 10 0 -2
BITMAP
6fc0
6a80
fe80
fbc0
6e80
6980
6b80
6d80
66c0
0000
ENDCHAR
STARTCHAR 3335
ENCODING 13109
SWIDTH 960 0
DWIDTH 10 0
BBX 10 10 0 -2
BITMAP
6fc0
6a80
fe80
6bc0
fe80
f980
eb80
6d80
66c0
0000
ENDCHAR
STARTCHAR 3336
ENCODING 13110
SWIDTH 960 0
DWIDTH 10 0
BBX 10 10 0 -2
BITMAP
dfc0
6b00
1b80
db00
6fc0
1b00
6b80
6b00
d7c0
0000
ENDCHAR
STARTCHAR 3337
ENCODING 13111
SWIDTH 960 0
DWIDTH 10 0
BBX 10 10 0 -2
BITMAP
0f80
f580
6f80
f580
dfc0
d180
dfc0
f680
0380
0000
ENDCHAR
STARTCHAR 3338
ENCODING 13112
SWIDTH 960 0
DWIDTH 10 0
BBX 10 10 0 -2
BITMAP
3300
ffc0
3500
fbc0
3f00
0180
7f80
6a80
ffc0
0000
ENDCHAR
STARTCHAR 3339
ENCODING 13113
SWIDTH 960 0
DWIDTH 10 0
BBX 10 10 0 -2
BITMAP
3400
6ec0
d400
6ec0
e180
6d80
6e80
6d80
6e80
0000
ENDCHAR
STARTCHAR 333a
ENCODING 13114
SWIDTH 960 0
DWIDTH 10 0
BBX 10 10 0 -2
BITMAP
f300
0fc0
f300
0680
f340
0680
f500
d680
f4c0
0000
ENDCHAR
STARTCHAR 333b
ENCODING 13115
SWIDTH 960 0
DWIDTH 10 0
BBX 10 10 0 -2
BITMAP
3540
6d40
f7c0
3000
ffc0
34c0
d7c0
7680
efc0
0000
ENDCHAR
STARTCHAR 333c
ENCODING 13116
SWIDTH 960 0
DWIDTH 10 0
BBX 10 10 0 -2
BITMAP
7980
6bc0
fd80
cd40
7980
6b00
78c0
6980
6b40
0000
ENDCHAR
STARTCHAR 333d
ENCODING 13117
SWIDTH 960 0
DWIDTH 10 0
BBX 10 10 0 -2
BITMAP
df80
6a80
1f80
da80
6f80
0600
6f80
6600
dfc0
0000
ENDCHAR
STARTCHAR 333e
ENCODING 13118
SWIDTH 960 0
DWIDTH 10 0
BBX 10 10 0 -2
BITMAP
fb80
35c0
7b80
dec0
7f80
3500
7f80
d340
3f00
0000
ENDCHAR
STARTCHAR 333f
ENCODING 13119
SWIDTH 960 0
DWIDTH 10 0
BBX 10 10 0 -2
BITMAP
6300
6780
fb00
efc0
e800
fb00
6780
7b00
efc0
0000
ENDCHAR
STARTCHAR 3340
ENCODING 13120
SWIDTH 960 0
DWIDTH 10 0
BBX 10 10 0 -2
BITMAP
6fc0
6000
f780
6d80
6f80
6d80
7780
e000
1fc0
0000
ENDCHAR
STARTCHAR 3341
ENCODING 13121
SWIDTH 960 0
DWIDTH 10 0
BBX 10 10 0 -2
BITMAP
3300
37c0
fb00
37c0
7540
7540
d540
3540
3300
0000
ENDCHAR
STARTCHAR 3342
ENCODING 13122
SWIDTH 960 0
DWIDTH 10 0
BBX 10 10 0 -2
BITMAP
6fc0
6c00
f7c0
d500
d500
f5c0
6d40
7540
d540
0000
ENDCHAR
STARTCHAR 3343
ENCODING 13123
SWIDTH 960 0
DWIDTH 10 0
BBX 10 10 0 -2
BITMAP
3600
6a00
fbc0
34c0
fd40
36c0
dbc0
70c0
e380
0000
ENDCHAR
STARTCHAR 3344
ENCODING 13124
SWIDTH 960 0
DWIDTH 10 0
BBX 10 10 0 -2
BITMAP
30c0
fd40
3540
fd40
fd40
d540
fd40
00c0
fdc0
0000
ENDCHAR
STARTCHAR 3345
ENCODING 13125
SWIDTH 960 0
DWIDTH 10 0
BBX 10 10 0 -2
BITMAP
0d80
ffc0
ed80
ffc0
ed80
fb40
ed80
ed80
3680
0000
ENDCHAR
STARTCHAR 3346
ENCODING 13126
SWIDTH 960 0
DWIDTH 10 0
BBX 10 10 0 -2
BITMAP
1f00
3300
ea00
0c00
3b00
e1c0
3f00
3300
3f00
0000
ENDCHAR
STARTCHAR 3347
ENCODING 13127
SWIDTH 960 0
DWIDTH 10 0
BBX 10 10 0 -2
BITMAP
0600
ffc0
d800
ddc0
c340
dd80
db40
ddc0
db00
0000
ENDCHAR
STARTCHAR 3348
ENCODING 13128
SWIDTH 960 0
DWIDTH 10 0
BBX 10 10 0 -2
BITMAP
6300
6fc0
f400
6d00
7500
ed00
6d00
6ac0
ebc0
0000
ENDCHAR
STARTCHAR 3349
ENCODING 13129
SWIDTH 960 0
DWIDTH 10 0
BBX 10 10 0 -2
BITMAP
6d40
6fc0
e8c0
6f80
7580
ed80
6f80
6740
edc0
0000
ENDCHAR
STARTCHAR 334a
ENCODING 13130
SWIDTH 960 0
DWIDTH 10 0
BBX 10 10 0 -2
BITMAP
3780
3680
f680
3300
7a80
74c0
d780
3680
3780
0000
ENDCHAR
STARTCHAR 334b
ENCODING 13131
SWIDTH 960 0
DWIDTH 10 0
BBX 10 10 0 -2
BITMAP
3300
37c0
fb00
3680
7b00
7680
d500
3680
34c0
0000
ENDCHAR
STARTCHAR 334c
ENCODING 13132
SWIDTH 960 0
DWIDTH 10 0
BBX 10 10 0 -2
BITMAP
6780
f680
6ec0
f000
0780
f680
d300
d680
da80
0000
ENDCHAR
STARTCHAR 334d
ENCODING 13133
SWIDTH 960 0
DWIDTH 10 0
BBX 10 10 0 -2
BITMAP
cd80
6fc0
f500
6fc0
6d00
efc0
6d80
6700
ddc0
0000
ENDCHAR
STARTCHAR 334e
ENCODING 13134
SWIDTH 960 0
DWIDTH 10 0
BBX 10 10 0 -2
BITMAP
0300
f7c0
6cc0
f680
d7c0
dd00
d7c0
f500
0fc0
0000
ENDCHAR
STARTCHAR 334f
ENCODING 13135
SWIDTH 960 0
DWIDTH 10 0
BBX 10 10 0 -2
BITMAP
f580
6fc0
f500
6fc0
f500
f7c0
ed80
6700
6dc0
0000
ENDCHAR
STARTCHAR 3350
ENCODING 13136
SWIDTH 960 0
DWIDTH 10 0
BBX 10 10 0 -2
BITMAP
6980
3500
ffc0
d340
3f00
3300
3f00
1ac0
f7c0
0000
ENDCHAR
STARTCHAR 3351
ENCODING 13137
SWIDTH 960 0
DWIDTH 10 0
BBX 10 10 0 -2
BITMAP
3e00
6600
ff80
6d80
7f80
6d80
7f80
6180
c380
0000
ENDCHAR
STARTCHAR 3352
ENCODING 13138
SWIDTH 960 0
DWIDTH 10 0
BBX 10 10 0 -2
BITMAP
3300
7b80
3300
ffc0
6a80
eec0
eec0
6a80
da80
0000
ENDCHAR
STARTCHAR 3353
ENCODING 13139
SWIDTH 960 0
DWIDTH 10 0
BBX 10 10 0 -2
BITMAP
6300
f7c0
6680
f4c0
d680
f680
6300
f680
6cc0
0000
ENDCHAR
STARTCHAR 3354
ENCODING 13140
SWIDTH 960 0
DWIDTH 10 0
BBX 10 10 0 -2
BITMAP
3000
fbc0
76c0
0680
fac0
36c0
fac0
3780
7600
0000
ENDCHAR
STARTCHAR 3355
ENCODING 13141
SWIDTH 960 0
DWIDTH 10 0
BBX 10 10 0 -2
BITMAP
fbc0
dac0
fbc0
cec0
dac0
ccc0
dec0
db40
dec0
0000
ENDCHAR
STARTCHAR 3356
ENCODING 13142
SWIDTH 960 0
DWIDTH 10 0
BBX 10 10 0 -2
BITMAP
f7c0
d000
e780
d780
d000
d7c0
eec0
cd40
cd40
0000
ENDCHAR
STARTCHAR 3357
ENCODING 13143
SWIDTH 960 0
DWIDTH 10 0
BBX 10 10 0 -2
BITMAP
1a00
ffc0
1a00
7f80
6d80
7f80
0c00
ffc0
0c00
0000
ENDCHAR
STARTCHAR 3358
ENCODING 13144
SWIDTH 960 0
DWIDTH 10 0
BBX 10 10 0 -2
BITMAP
6980
3500
ffc0
c0c0
3f00
0600
ffc0
0c00
1c00
0000
ENDCHAR
STARTCHAR 3359
ENCODING 13145
SWIDTH 960 0
DWIDTH 10 0
BBX 10 10 0 -2
BITMAP
0700
7c00
6000
7f80
6600
ffc0
0c00
6d80
7f80
0000
ENDCHAR
STARTCHAR 335a
ENCODING 13146
SWIDTH 960 0
DWIDTH 10 0
BBX 10 10 0 -2
BITMAP
0c00
df40
3300
7380
df40
0c00
ffc0
3500
edc0
0000
ENDCHAR
STARTCHAR 335b
ENCODING 13147
SWIDTH 960 0
DWIDTH 10 0
BBX 10 10 0 -2
BITMAP
67c0
fb00
dbc0
76c0
d7c0
66c0
fbc0
db80
fac0
0000
ENDCHAR
STARTCHAR 335c
ENCODING 13148
SWIDTH 960 0
DWIDTH 10 0
BBX 10 10 0 -2
BITMAP
fbc0
eb00
fbc0
06c0
fbc0
66c0
fbc0
1980
76c0
0000
ENDCHAR
STARTCHAR 335d
ENCODING 13149
SWIDTH 960 0
DWIDTH 10 0
BBX 10 10 0 -2
BITMAP
6d80
6e80
f580
6e80
75c0
ed80
6e80
6d80
ee80
0000
ENDCHAR
STARTCHAR 335e
ENCODING 13150
SWIDTH 960 0
DWIDTH 10 0
BBX 10 10 0 -2
BITMAP
6300
7bc0
d680
0c00
7f80
0300
3300
1a00
ffc0
0000
ENDCHAR
STARTCHAR 335f
ENCODING 13151
SWIDTH 960 0
DWIDTH 10 0
BBX 10 10 0 -2
BITMAP
6fc0
6b40
fd80
6f40
f000
f300
efc0
6300
6fc0
0000
ENDCHAR
STARTCHAR 3360
ENCODING 13152
SWIDTH 960 0
DWIDTH 10 0
BBX 10 10 0 -2
BITMAP
6fc0
6d80
f780
6d80
ffc0
f580
ef80
6d80
6fc0
0000
ENDCHAR
STARTCHAR 3361
ENCODING 13153
SWIDTH 960 0
DWIDTH 10 0
BBX 10 10 0 -2
BITMAP
6fc0
6cc0
f7c0
6c00
f7c0
f500
efc0
6d00
6bc0
0000
ENDCHAR
STARTCHAR 3362
ENCODING 13154
SWIDTH 960 0
DWIDTH 10 0
BBX 10 10 0 -2
BITMAP
7e80
d580
6ec0
f5c0
d680
fe80
1d80
d540
d540
0000
ENDCHAR
STARTCHAR 3363
ENCODING 13155
SWIDTH 960 0
DWIDTH 10 0
BBX 10 10 0 -2
BITMAP
dd80
6980
1d80
d980
6f80
0c00
6fc0
60c0
d540
0000
ENDCHAR
STARTCHAR 3364
ENCODING 13156
SWIDTH 960 0
DWIDTH 10 0
BBX 10 10 0 -2
BITMAP
30c0
fd40
d540
7b40
3340
fd40
0340
78c0
79c0
0000
ENDCHAR
STARTCHAR 3365
ENCODING 13157
SWIDTH 960 0
DWIDTH 10 0
BBX 10 10 0 -2
BITMAP
0f80
f580
d780
d780
d600
d7c0
dac0
f740
0180
0000
ENDCHAR
STARTCHAR 3366
ENCODING 13158
SWIDTH 960 0
DWIDTH 10 0
BBX 10 10 0 -2
BITMAP
6700
6d80
f8c0
f780
6000
6f80
6d80
6d80
6f80
0000
ENDCHAR
STARTCHAR 3367
ENCODING 13159
SWIDTH 960 0
DWIDTH 10 0
BBX 10 10 0 -2
BITMAP
61c0
6f00
f300
6fc0
7300
e300
6fc0
6cc0
efc0
0000
ENDCHAR
STARTCHAR 3368
ENCODING 13160
SWIDTH 960 0
DWIDTH 10 0
BBX 10 10 0 -2
BITMAP
c380
6e00
0600
dfc0
6600
0600
6f80
6980
df80
0000
ENDCHAR
STARTCHAR 3369
ENCODING 13161
SWIDTH 960 0
DWIDTH 10 0
BBX 10 10 0 -2
BITMAP
df80
6980
1f80
df80
6c00
1fc0
74c0
6f40
c180
0000
ENDCHAR
STARTCHAR 336a
ENCODING 13162
SWIDTH 960 0
DWIDTH 10 0
BBX 10 10 0 -2
BITMAP
cf80
6d80
1fc0
d8c0
6f80
0d80
6f80
6d80
cd80
0000
ENDCHAR
STARTCHAR 336b
ENCODING 13163
SWIDTH 960 0
DWIDTH 10 0
BBX 10 10 0 -2
BITMAP
1a00
ffc0
3300
3f00
1800
3fc0
68c0
dec0
0380
0000
ENDCHAR
STARTCHAR 336c
ENCODING 13164
SWIDTH 960 0
DWIDTH 10 0
BBX 10 10 0 -2
BITMAP
6f80
f580
3780
6f80
6a00
f7c0
6ac0
6740
6180
0000
ENDCHAR
STARTCHAR 336d
ENCODING 13165
SWIDTH 960 0
DWIDTH 10 0
BBX 10 10 0 -2
BITMAP
6300
f7c0
6d40
f780
d300
f7c0
6000
f780
6780
0000
ENDCHAR
STARTCHAR 336e
ENCODING 13166
SWIDTH 960 0
DWIDTH 10 0
BBX 10 10 0 -2
BITMAP
0000
3f00
3300
3f00
3300
3f00
3300
3300
ffc0
0000
ENDCHAR
STARTCHAR 336f
ENCODING 13167
SWIDTH 960 0
DWIDTH 10 0
BBX 10 10 0 -2
BITMAP
77c0
d540
6f40
f580
d740
f300
0780
d300
d7c0
0000
ENDCHAR
STARTCHAR 3370
ENCODING 13168
SWIDTH 960 0
DWIDTH 10 0
BBX 10 10 0 -2
BITMAP
0300
f300
d300
d7c0
d300
d300
f300
0300
0300
0000
ENDCHAR
STARTCHAR 3371
ENCODING 13169
SWIDTH 960 0
DWIDTH 10 0
BBX 10 10 0 -2
BITMAP
6d80
6fc0
f580
6300
f540
f580
ed00
6d40
6dc0
0000
ENDCHAR
STARTCHAR 3372
ENCODING 13170
SWIDTH 960 0
DWIDTH 10 0
BBX 10 10 0 -2
BITMAP
6680
6fc0
f680
6fc0
f540
ffc0
ed40
6fc0
6300
0000
ENDCHAR
STARTCHAR 3373
ENCODING 13171
SWIDTH 960 0
DWIDTH 10 0
BBX 10 10 0 -2
BITMAP
6b00
fdc0
6ac0
fd80
d580
fd80
3300
fd40
33c0
0000
ENDCHAR
STARTCHAR 3374
ENCODING 13172
SWIDTH 960 0
DWIDTH 10 0
BBX 10 10 0 -2
BITMAP
3300
3500
f7c0
3300
77c0
7b00
d780
3540
3300
0000
ENDCHAR
STARTCHAR 3375
ENCODING 13173
SWIDTH 960 0
DWIDTH 10 0
BBX 10 10 0 -2
BITMAP
0c00
6ec0
dac0
dec0
dac0
eec0
0000
36c0
e7c0
0000
ENDCHAR
STARTCHAR 3376
ENCODING 13174
SWIDTH 960 0
DWIDTH 10 0
BBX 10 10 0 -2
BITMAP
0c00
ffc0
dac0
df00
3500
7f80
6d80
7f80
0fc0
0000
ENDCHAR
STARTCHAR 3377
ENCODING 13175
SWIDTH 960 0
DWIDTH 10 0
BBX 10 10 0 -2
BITMAP
3300
ffc0
3340
efc0
0300
efc0
0d40
6fc0
cd40
0000
ENDCHAR
STARTCHAR 3378
ENCODING 13176
SWIDTH 960 0
DWIDTH 10 0
BBX 10 10 0 -2
BITMAP
1a00
7380
1e00
3300
eec0
0c00
7f80
3500
ffc0
0000
ENDCHAR
STARTCHAR 3379
ENCODING 13177
SWIDTH 960 0
DWIDTH 10 0
BBX 10 10 0 -2
BITMAP
3580
6fc0
f500
3f80
f5c0
3f80
d500
7d80
ed40
0000
ENDCHAR
STARTCHAR 337a
ENCODING 13178
SWIDTH 960 0
DWIDTH 10 0
BBX 10 10 0 -2
BITMAP
03c0
0d00
f7c0
d000
d7c0
d540
d6c0
f540
0fc0
0000
ENDCHAR
STARTCHAR 337b
ENCODING 13179
SWIDTH 960 0
DWIDTH 10 0
BBX 10 10 0 -2
BITMAP
0600
f780
d580
f7c0
d400
f7c0
60c0
6b40
6980
0000
ENDCHAR
STARTCHAR 337c
ENCODING 13180
SWIDTH 960 0
DWIDTH 10 0
BBX 10 10 0 -2
BITMAP
37c0
3600
ffc0
34c0
7cc0
77c0
d4c0
34c0
37c0
0000
ENDCHAR
STARTCHAR 337d
ENCODING 13181
SWIDTH 960 0
DWIDTH 10 0
BBX 10 10 0 -2
BITMAP
3300
ffc0
3300
7f80
0600
ffc0
3ac0
e680
1e00
0000
ENDCHAR
STARTCHAR 337e
ENCODING 13182
SWIDTH 960 0
DWIDTH 10 0
BBX 10 10 0 -2
BITMAP
3300
ffc0
3500
ffc0
c0c0
3f00
3300
3f00
ffc0
0000
ENDCHAR
STARTCHAR 3421
ENCODING 13345
SWIDTH 960 0
DWIDTH 10 0
BBX 10 10 0 -2
BITMAP
edc0
6ec0
eec0
cd80
de80
edc0
6ec0
6ec0
cd80
0000
ENDCHAR
STARTCHAR 3422
ENCODING 13346
SWIDTH 960 0
DWIDTH 10 0
BBX 10 10 0 -2
BITMAP
18c0
1ac0
dac0
76c0
36c0
36c0
68c0
68c0
c1c0
0000
ENDCHAR
STARTCHAR 3423
ENCODING 13347
SWIDTH 960 0
DWIDTH 10 0
BBX 10 10 0 -2
BITMAP
3300
ffc0
3300
1980
6a80
3680
3680
6980
c380
0000
ENDCHAR
STARTCHAR 3424
ENCODING 13348
SWIDTH 960 0
DWIDTH 10 0
BBX 10 10 0 -2
BITMAP
ffc0
1800
1f00
1b00
1d00
3500
3700
1d40
f3c0
0000
ENDCHAR
STARTCHAR 3425
ENCODING 13349
SWIDTH 960 0
DWIDTH 10 0
BBX 10 10 0 -2
BITMAP
6600
f7c0
6c00
f780
d180
f300
6600
f4c0
67c0
0000
ENDCHAR
STARTCHAR 3426
ENCODING 13350
SWIDTH 960 0
DWIDTH 10 0
BBX 10 10 0 -2
BITMAP
3f80
3980
6980
6f80
e000
6a80
6a80
6a80
76c0
0000
ENDCHAR
STARTCHAR 3427
ENCODING 13351
SWIDTH 960 0
DWIDTH 10 0
BBX 10 10 0 -2
BITMAP
ffc0
c0c0
7980
07c0
fd80
6a80
6b80
68c0
dfc0
0000
ENDCHAR
STARTCHAR 3428
ENCODING 13352
SWIDTH 960 0
DWIDTH 10 0
BBX 10 10 0 -2
BITMAP
0c00
ffc0
dac0
7f80
1a00
ffc0
3500
e9c0
0e00
0000
ENDCHAR
STARTCHAR 3429
ENCODING 13353
SWIDTH 960 0
DWIDTH 10 0
BBX 10 10 0 -2
BITMAP
00c0
fd40
3340
3340
fd40
3340
3340
30c0
31c0
0000
ENDCHAR
STARTCHAR 342a
ENCODING 13354
SWIDTH 960 0
DWIDTH 10 0
BBX 10 10 0 -2
BITMAP
6b00
fd00
6bc0
7b40
6b40
fd40
6b40
66c0
7ac0
0000
ENDCHAR
STARTCHAR 342b
ENCODING 13355
SWIDTH 960 0
DWIDTH 10 0
BBX 10 10 0 -2
BITMAP
6300
7d00
d7c0
7b40
7d40
eb40
7d40
6ac0
7ec0
0000
ENDCHAR
STARTCHAR 342c
ENCODING 13356
SWIDTH 960 0
DWIDTH 10 0
BBX 10 10 0 -2
BITMAP
3500
7f80
0c00
ffc0
3300
6e80
dec0
3180
3f80
0000
ENDCHAR
STARTCHAR 342d
ENCODING 13357
SWIDTH 960 0
DWIDTH 10 0
BBX 10 10 0 -2
BITMAP
0700
f500
df80
d580
d580
dfc0
d600
f500
19c0
0000
ENDCHAR
STARTCHAR 342e
ENCODING 13358
SWIDTH 960 0
DWIDTH 10 0
BBX 10 10 0 -2
BITMAP
6d80
6fc0
f580
6f80
6d80
6fc0
7680
ec00
0fc0
0000
ENDCHAR
STARTCHAR 342f
ENCODING 13359
SWIDTH 960 0
DWIDTH 10 0
BBX 10 10 0 -2
BITMAP
0c00
7f80
1a00
0e00
3b00
ffc0
6a80
3300
eac0
0000
ENDCHAR
STARTCHAR 3430
ENCODING 13360
SWIDTH 960 0
DWIDTH 10 0
BBX 10 10 0 -2
BITMAP
0c00
ffc0
c0c0
3f00
0000
ffc0
1a00
36c0
e7c0
0000
ENDCHAR
STARTCHAR 3431
ENCODING 13361
SWIDTH 960 0
DWIDTH 10 0
BBX 10 10 0 -2
BITMAP
0c00
ffc0
c0c0
3f00
3f00
3000
3f80
3180
3f80
0000
ENDCHAR
STARTCHAR 3432
ENCODING 13362
SWIDTH 960 0
DWIDTH 10 0
BBX 10 10 0 -2
BITMAP
0c00
ffc0
dac0
7f80
3300
3300
3f00
1ac0
f7c0
0000
ENDCHAR
STARTCHAR 3433
ENCODING 13363
SWIDTH 960 0
DWIDTH 10 0
BBX 10 10 0 -2
BITMAP
7f80
0c00
0c00
ffc0
0c00
0c00
0c00
0c00
0c00
0000
ENDCHAR
STARTCHAR 3434
ENCODING 13364
SWIDTH 960 0
DWIDTH 10 0
BBX 10 10 0 -2
BITMAP
6300
f680
6cc0
f780
d300
f7c0
6300
f300
6300
0000
ENDCHAR
STARTCHAR 3435
ENCODING 13365
SWIDTH 960 0
DWIDTH 10 0
BBX 10 10 0 -2
BITMAP
0c00
3f00
3500
7f80
6d80
7f80
0c00
d6c0
df40
0000
ENDCHAR
STARTCHAR 3436
ENCODING 13366
SWIDTH 960 0
DWIDTH 10 0
BBX 10 10 0 -2
BITMAP
0d80
ffc0
c600
dd40
d580
dd40
0c00
d6c0
df40
0000
ENDCHAR
STARTCHAR 3437
ENCODING 13367
SWIDTH 960 0
DWIDTH 10 0
BBX 10 10 0 -2
BITMAP
6f80
6dc0
f780
f000
6f80
6d80
6d80
6f80
68c0
0000
ENDCHAR
STARTCHAR 3438
ENCODING 13368
SWIDTH 960 0
DWIDTH 10 0
BBX 10 10 0 -2
BITMAP
6340
6fc0
fb00
ff40
6e80
68c0
6300
6ac0
6b40
0000
ENDCHAR
STARTCHAR 3439
ENCODING 13369
SWIDTH 960 0
DWIDTH 10 0
BBX 10 10 0 -2
BITMAP
6700
6d00
ef80
6d80
7580
efc0
6600
6d00
e9c0
0000
ENDCHAR
STARTCHAR 343a
ENCODING 13370
SWIDTH 960 0
DWIDTH 10 0
BBX 10 10 0 -2
BITMAP
7a00
3600
fbc0
6e80
7a80
6a80
7b00
eb00
1ac0
0000
ENDCHAR
STARTCHAR 343b
ENCODING 13371
SWIDTH 960 0
DWIDTH 10 0
BBX 10 10 0 -2
BITMAP
3580
3580
ffc0
3580
7d80
7780
d580
3580
3780
0000
ENDCHAR
STARTCHAR 343c
ENCODING 13372
SWIDTH 960 0
DWIDTH 10 0
BBX 10 10 0 -2
BITMAP
37c0
3000
fb80
3680
7780
7a80
d780
3000
37c0
0000
ENDCHAR
STARTCHAR 343d
ENCODING 13373
SWIDTH 960 0
DWIDTH 10 0
BBX 10 10 0 -2
BITMAP
3300
37c0
fcc0
3780
7780
7a00
d7c0
36c0
37c0
0000
ENDCHAR
STARTCHAR 343e
ENCODING 13374
SWIDTH 960 0
DWIDTH 10 0
BBX 10 10 0 -2
BITMAP
3600
fe00
37c0
7ac0
0d40
fb00
3300
da80
d4c0
0000
ENDCHAR
STARTCHAR 343f
ENCODING 13375
SWIDTH 960 0
DWIDTH 10 0
BBX 10 10 0 -2
BITMAP
6600
7a00
d7c0
7ac0
7d40
eb00
7d00
6a80
7ac0
0000
ENDCHAR
STARTCHAR 3440
ENCODING 13376
SWIDTH 960 0
DWIDTH 10 0
BBX 10 10 0 -2
BITMAP
c000
6f80
0600
c600
6f80
0600
6600
6600
c600
0000
ENDCHAR
STARTCHAR 3441
ENCODING 13377
SWIDTH 960 0
DWIDTH 10 0
BBX 10 10 0 -2
BITMAP
cd00
7fc0
1a80
df80
6600
1f80
6600
6d00
d9c0
0000
ENDCHAR
STARTCHAR 3442
ENCODING 13378
SWIDTH 960 0
DWIDTH 10 0
BBX 10 10 0 -2
BITMAP
ddc0
7540
3dc0
d0c0
7740
3540
7740
d540
d740
0000
ENDCHAR
STARTCHAR 3443
ENCODING 13379
SWIDTH 960 0
DWIDTH 10 0
BBX 10 10 0 -2
BITMAP
cc00
6fc0
1a00
cf80
6fc0
1d00
6f80
6d00
cfc0
0000
ENDCHAR
STARTCHAR 3444
ENCODING 13380
SWIDTH 960 0
DWIDTH 10 0
BBX 10 10 0 -2
BITMAP
1fc0
fb40
6fc0
6000
f780
6d80
7740
ea80
36c0
0000
ENDCHAR
STARTCHAR 3445
ENCODING 13381
SWIDTH 960 0
DWIDTH 10 0
BBX 10 10 0 -2
BITMAP
3300
3300
ffc0
3300
3300
3f00
3300
3300
3f00
0000
ENDCHAR
STARTCHAR 3446
ENCODING 13382
SWIDTH 960 0
DWIDTH 10 0
BBX 10 10 0 -2
BITMAP
fb00
d3c0
fa00
d000
fbc0
0000
7f80
6a80
ffc0
0000
ENDCHAR
STARTCHAR 3447
ENCODING 13383
SWIDTH 960 0
DWIDTH 10 0
BBX 10 10 0 -2
BITMAP
7f80
1800
7f80
3000
ffc0
3180
7f80
d180
3f80
0000
ENDCHAR
STARTCHAR 3448
ENCODING 13384
SWIDTH 960 0
DWIDTH 10 0
BBX 10 10 0 -2
BITMAP
6300
7bc0
d680
0000
7f80
0c00
ffc0
0c00
0c00
0000
ENDCHAR
STARTCHAR 3449
ENCODING 13385
SWIDTH 960 0
DWIDTH 10 0
BBX 10 10 0 -2
BITMAP
6300
7bc0
d680
ffc0
df40
3000
3f80
3180
3f80
0000
ENDCHAR
STARTCHAR 344a
ENCODING 13386
SWIDTH 960 0
DWIDTH 10 0
BBX 10 10 0 -2
BITMAP
6300
7bc0
d680
fbc0
fbc0
c0c0
dec0
dac0
dec0
0000
ENDCHAR
STARTCHAR 344b
ENCODING 13387
SWIDTH 960 0
DWIDTH 10 0
BBX 10 10 0 -2
BITMAP
31c0
6f40
d680
6fc0
fa00
37c0
db40
d580
3540
0000
ENDCHAR
STARTCHAR 344c
ENCODING 13388
SWIDTH 960 0
DWIDTH 10 0
BBX 10 10 0 -2
BITMAP
3000
3f80
6c00
0c00
ffc0
0c00
6d80
6d80
7f80
0000
ENDCHAR
STARTCHAR 344d
ENCODING 13389
SWIDTH 960 0
DWIDTH 10 0
BBX 10 10 0 -2
BITMAP
6700
f580
68c0
f6c0
d6c0
f6c0
66c0
f6c0
66c0
0000
ENDCHAR
STARTCHAR 344e
ENCODING 13390
SWIDTH 960 0
DWIDTH 10 0
BBX 10 10 0 -2
BITMAP
f7c0
d300
f300
d7c0
d300
f300
d300
d300
d300
0000
ENDCHAR
STARTCHAR 344f
ENCODING 13391
SWIDTH 960 0
DWIDTH 10 0
BBX 10 10 0 -2
BITMAP
6e80
f5c0
d680
d400
f6c0
d000
d780
d680
d7c0
0000
ENDCHAR
STARTCHAR 3450
ENCODING 13392
SWIDTH 960 0
DWIDTH 10 0
BBX 10 10 0 -2
BITMAP
3300
ffc0
3500
ffc0
df40
0000
ffc0
3600
e7c0
0000
ENDCHAR
STARTCHAR 3451
ENCODING 13393
SWIDTH 960 0
DWIDTH 10 0
BBX 10 10 0 -2
BITMAP
67c0
7ac0
d7c0
76c0
7bc0
eac0
7bc0
6b80
7ac0
0000
ENDCHAR
STARTCHAR 3452
ENCODING 13394
SWIDTH 960 0
DWIDTH 10 0
BBX 10 10 0 -2
BITMAP
f300
0fc0
f300
0fc0
f540
0fc0
f300
d780
f540
0000
ENDCHAR
STARTCHAR 3453
ENCODING 13395
SWIDTH 960 0
DWIDTH 10 0
BBX 10 10 0 -2
BITMAP
3f00
f5c0
3f00
0000
3f00
3300
3300
3f00
e1c0
0000
ENDCHAR
STARTCHAR 3454
ENCODING 13396
SWIDTH 960 0
DWIDTH 10 0
BBX 10 10 0 -2
BITMAP
dfc0
6b40
1fc0
ed80
6f80
6740
6e80
66c0
dfc0
0000
ENDCHAR
STARTCHAR 3455
ENCODING 13397
SWIDTH 960 0
DWIDTH 10 0
BBX 10 10 0 -2
BITMAP
3680
6dc0
f600
3400
f6c0
3000
db80
7680
efc0
0000
ENDCHAR
STARTCHAR 3456
ENCODING 13398
SWIDTH 960 0
DWIDTH 10 0
BBX 10 10 0 -2
BITMAP
fbc0
dac0
fbc0
c0c0
dec0
dac0
dec0
dac0
dec0
0000
ENDCHAR
STARTCHAR 3457
ENCODING 13399
SWIDTH 960 0
DWIDTH 10 0
BBX 10 10 0 -2
BITMAP
fbc0
dac0
fbc0
ccc0
df40
ccc0
dec0
d540
cdc0
0000
ENDCHAR
STARTCHAR 3458
ENCODING 13400
SWIDTH 960 0
DWIDTH 10 0
BBX 10 10 0 -2
BITMAP
fbc0
dac0
fbc0
dac0
df40
ccc0
df40
dac0
d340
0000
ENDCHAR
STARTCHAR 3459
ENCODING 13401
SWIDTH 960 0
DWIDTH 10 0
BBX 10 10 0 -2
BITMAP
f780
d580
e300
d000
d5c0
d540
edc0
cd40
cdc0
0000
ENDCHAR
STARTCHAR 345a
ENCODING 13402
SWIDTH 960 0
DWIDTH 10 0
BBX 10 10 0 -2
BITMAP
6600
f780
6680
f7c0
d300
f7c0
6680
f7c0
6180
0000
ENDCHAR
STARTCHAR 345b
ENCODING 13403
SWIDTH 960 0
DWIDTH 10 0
BBX 10 10 0 -2
BITMAP
6300
d7c0
1cc0
f780
d780
f600
c780
d680
f780
0000
ENDCHAR
STARTCHAR 345c
ENCODING 13404
SWIDTH 960 0
DWIDTH 10 0
BBX 10 10 0 -2
BITMAP
6300
d7c0
f4c0
6780
f780
6600
f780
d680
f780
0000
ENDCHAR
STARTCHAR 345d
ENCODING 13405
SWIDTH 960 0
DWIDTH 10 0
BBX 10 10 0 -2
BITMAP
1800
1800
7f00
1b00
7b00
1d00
1b00
3340
e3c0
0000
ENDCHAR
STARTCHAR 345e
ENCODING 13406
SWIDTH 960 0
DWIDTH 10 0
BBX 10 10 0 -2
BITMAP
1e00
3300
6e80
c0c0
3f00
0600
7f80
6180
7f80
0000
ENDCHAR
STARTCHAR 345f
ENCODING 13407
SWIDTH 960 0
DWIDTH 10 0
BBX 10 10 0 -2
BITMAP
6d80
7f80
0000
7fc0
6000
6f80
6600
dfc0
c600
0000
ENDCHAR
STARTCHAR 3460
ENCODING 13408
SWIDTH 960 0
DWIDTH 10 0
BBX 10 10 0 -2
BITMAP
6cc0
7fc0
3680
7fc0
6d00
7fc0
7540
dd80
cd40
0000
ENDCHAR
STARTCHAR 3461
ENCODING 13409
SWIDTH 960 0
DWIDTH 10 0
BBX 10 10 0 -2
BITMAP
0780
f000
6000
6fc0
f680
6680
7680
ed80
19c0
0000
ENDCHAR
STARTCHAR 3462
ENCODING 13410
SWIDTH 960 0
DWIDTH 10 0
BBX 10 10 0 -2
BITMAP
0600
7fc0
6d00
efc0
6ac0
efc0
6600
6ac0
dfc0
0000
ENDCHAR
STARTCHAR 3463
ENCODING 13411
SWIDTH 960 0
DWIDTH 10 0
BBX 10 10 0 -2
BITMAP
0f80
f580
d780
f580
d780
f540
d580
f680
1cc0
0000
ENDCHAR
STARTCHAR 3464
ENCODING 13412
SWIDTH 960 0
DWIDTH 10 0
BBX 10 10 0 -2
BITMAP
6d80
7f80
0000
ffc0
1800
3f80
7180
d180
3f80
0000
ENDCHAR
STARTCHAR 3465
ENCODING 13413
SWIDTH 960 0
DWIDTH 10 0
BBX 10 10 0 -2
BITMAP
fb80
6800
f800
6fc0
6680
fa80
da80
fa80
fac0
0000
ENDCHAR
STARTCHAR 3466
ENCODING 13414
SWIDTH 960 0
DWIDTH 10 0
BBX 10 10 0 -2
BITMAP
7fc0
6d00
7bc0
6b00
6fc0
6980
6980
df80
d0c0
0000
ENDCHAR
STARTCHAR 3467
ENCODING 13415
SWIDTH 960 0
DWIDTH 10 0
BBX 10 10 0 -2
BITMAP
7fc0
6d00
6fc0
6a80
6bc0
7a80
6bc0
da80
dbc0
0000
ENDCHAR
STARTCHAR 3468
ENCODING 13416
SWIDTH 960 0
DWIDTH 10 0
BBX 10 10 0 -2
BITMAP
07c0
7b00
07c0
fec0
6bc0
6ac0
6fc0
db00
06c0
0000
ENDCHAR
STARTCHAR 3469
ENCODING 13417
SWIDTH 960 0
DWIDTH 10 0
BBX 10 10 0 -2
BITMAP
67c0
fb00
77c0
fac0
d7c0
dac0
d7c0
db80
d6c0
0000
ENDCHAR
STARTCHAR 346a
ENCODING 13418
SWIDTH 960 0
DWIDTH 10 0
BBX 10 10 0 -2
BITMAP
fdc0
d980
ddc0
d540
ddc0
db40
ddc0
d980
db40
0000
ENDCHAR
STARTCHAR 346b
ENCODING 13419
SWIDTH 960 0
DWIDTH 10 0
BBX 10 10 0 -2
BITMAP
0c00
1a00
3300
edc0
0c00
3700
3400
3400
ffc0
0000
ENDCHAR
STARTCHAR 346c
ENCODING 13420
SWIDTH 960 0
DWIDTH 10 0
BBX 10 10 0 -2
BITMAP
3300
3300
6fc0
6300
e780
6680
6300
6680
6cc0
0000
ENDCHAR
STARTCHAR 346d
ENCODING 13421
SWIDTH 960 0
DWIDTH 10 0
BBX 10 10 0 -2
BITMAP
3e00
6600
ff80
6000
6f00
6b00
6b00
d8c0
dfc0
0000
ENDCHAR
STARTCHAR 346e
ENCODING 13422
SWIDTH 960 0
DWIDTH 10 0
BBX 10 10 0 -2
BITMAP
0c00
ffc0
7f80
3300
3f00
1a00
ffc0
3300
3f00
0000
ENDCHAR
STARTCHAR 346f
ENCODING 13423
SWIDTH 960 0
DWIDTH 10 0
BBX 10 10 0 -2
BITMAP
7b80
6a80
7b80
0c00
ffc0
6180
fbc0
6a80
7b80
0000
ENDCHAR
STARTCHAR 3470
ENCODING 13424
SWIDTH 960 0
DWIDTH 10 0
BBX 10 10 0 -2
BITMAP
3300
ffc0
3f00
3300
ffc0
3500
6e80
ccc0
7f80
0000
ENDCHAR
STARTCHAR 3471
ENCODING 13425
SWIDTH 960 0
DWIDTH 10 0
BBX 10 10 0 -2
BITMAP
0c00
ffc0
1a00
3300
ffc0
0300
7b00
7b00
0700
0000
ENDCHAR
STARTCHAR 3472
ENCODING 13426
SWIDTH 960 0
DWIDTH 10 0
BBX 10 10 0 -2
BITMAP
6700
6fc0
f780
d580
d780
d700
6fc0
7580
d780
0000
ENDCHAR
STARTCHAR 3473
ENCODING 13427
SWIDTH 960 0
DWIDTH 10 0
BBX 10 10 0 -2
BITMAP
0c00
ffc0
ccc0
3b00
ffc0
0300
7b00
7b00
0700
0000
ENDCHAR
STARTCHAR 3474
ENCODING 13428
SWIDTH 960 0
DWIDTH 10 0
BBX 10 10 0 -2
BITMAP
0300
6300
6fc0
eb00
eb80
ea80
eb00
fa80
0cc0
0000
ENDCHAR
STARTCHAR 3475
ENCODING 13429
SWIDTH 960 0
DWIDTH 10 0
BBX 10 10 0 -2
BITMAP
1b00
0e00
7b80
0c00
ffc0
3600
6f80
da80
0600
0000
ENDCHAR
STARTCHAR 3476
ENCODING 13430
SWIDTH 960 0
DWIDTH 10 0
BBX 10 10 0 -2
BITMAP
6d80
d540
f5c0
0d80
ffc0
3600
3680
6b40
dac0
0000
ENDCHAR
STARTCHAR 3477
ENCODING 13431
SWIDTH 960 0
DWIDTH 10 0
BBX 10 10 0 -2
BITMAP
3f00
0300
7f00
6180
7f80
0000
0c00
d6c0
df40
0000
ENDCHAR
STARTCHAR 3478
ENCODING 13432
SWIDTH 960 0
DWIDTH 10 0
BBX 10 10 0 -2
BITMAP
6fc0
6d40
f780
6300
7780
e780
6300
6fc0
e300
0000
ENDCHAR
STARTCHAR 3479
ENCODING 13433
SWIDTH 960 0
DWIDTH 10 0
BBX 10 10 0 -2
BITMAP
3000
3780
fa80
3680
7a80
7680
d680
3680
35c0
0000
ENDCHAR
STARTCHAR 347a
ENCODING 13434
SWIDTH 960 0
DWIDTH 10 0
BBX 10 10 0 -2
BITMAP
6c00
6fc0
f680
6fc0
7680
d780
d680
37c0
6cc0
0000
ENDCHAR
STARTCHAR 347b
ENCODING 13435
SWIDTH 960 0
DWIDTH 10 0
BBX 10 10 0 -2
BITMAP
fbc0
da80
fa80
dfc0
f980
c380
db80
ea80
0dc0
0000
ENDCHAR
STARTCHAR 347c
ENCODING 13436
SWIDTH 960 0
DWIDTH 10 0
BBX 10 10 0 -2
BITMAP
6bc0
fd40
6bc0
7b40
6b40
6bc0
fd40
6b40
cd40
0000
ENDCHAR
STARTCHAR 347d
ENCODING 13437
SWIDTH 960 0
DWIDTH 10 0
BBX 10 10 0 -2
BITMAP
3680
37c0
fa80
3780
7a80
7680
d7c0
3680
34c0
0000
ENDCHAR
STARTCHAR 347e
ENCODING 13438
SWIDTH 960 0
DWIDTH 10 0
BBX 10 10 0 -2
BITMAP
0c00
ffc0
3300
7f80
3500
ffc0
1e00
3500
edc0
0000
ENDCHAR
STARTCHAR 3521
ENCODING 13601
SWIDTH 960 0
DWIDTH 10 0
BBX 10 10 0 -2
BITMAP
6ec0
6a80
eec0
6ac0
e600
efc0
ed40
6d80
6b40
0000
ENDCHAR
STARTCHAR 3522
ENCODING 13602
SWIDTH 960 0
DWIDTH 10 0
BBX 10 10 0 -2
BITMAP
3780
d180
d780
d180
dfc0
36c0
6f80
6a80
c600
0000
ENDCHAR
STARTCHAR 3523
ENCODING 13603
SWIDTH 960 0
DWIDTH 10 0
BBX 10 10 0 -2
BITMAP
6780
f680
d5c0
f000
6b80
d680
7300
d680
6cc0
0000
ENDCHAR
STARTCHAR 3524
ENCODING 13604
SWIDTH 960 0
DWIDTH 10 0
BBX 10 10 0 -2
BITMAP
6000
7f80
de00
0000
ff00
0300
6d00
39c0
ecc0
0000
ENDCHAR
STARTCHAR 3525
ENCODING 13605
SWIDTH 960 0
DWIDTH 10 0
BBX 10 10 0 -2
BITMAP
cc00
6f80
1800
cf80
6000
1f80
6180
61c0
c0c0
0000
ENDCHAR
STARTCHAR 3526
ENCODING 13606
SWIDTH 960 0
DWIDTH 10 0
BBX 10 10 0 -2
BITMAP
6d80
d540
f5c0
0d80
ffc0
0cc0
f680
d340
f6c0
0000
ENDCHAR
STARTCHAR 3527
ENCODING 13607
SWIDTH 960 0
DWIDTH 10 0
BBX 10 10 0 -2
BITMAP
6380
6e00
f400
37c0
6d00
6d00
f500
6d00
6b00
0000
ENDCHAR
STARTCHAR 3528
ENCODING 13608
SWIDTH 960 0
DWIDTH 10 0
BBX 10 10 0 -2
BITMAP
3f00
0c00
ffc0
3500
eec0
0600
ffc0
0c00
1c00
0000
ENDCHAR
STARTCHAR 3529
ENCODING 13609
SWIDTH 960 0
DWIDTH 10 0
BBX 10 10 0 -2
BITMAP
3680
e300
6680
efc0
6d00
f7c0
ed40
6d40
6300
0000
ENDCHAR
STARTCHAR 352a
ENCODING 13610
SWIDTH 960 0
DWIDTH 10 0
BBX 10 10 0 -2
BITMAP
3000
67c0
d0c0
68c0
fbc0
3600
da00
d6c0
37c0
0000
ENDCHAR
STARTCHAR 352b
ENCODING 13611
SWIDTH 960 0
DWIDTH 10 0
BBX 10 10 0 -2
BITMAP
6a80
de80
0dc0
6b40
ed40
6b40
6e80
6d80
6d40
0000
ENDCHAR
STARTCHAR 352c
ENCODING 13612
SWIDTH 960 0
DWIDTH 10 0
BBX 10 10 0 -2
BITMAP
6f80
6d80
f780
6d80
f780
6d80
6f80
d500
dbc0
0000
ENDCHAR
STARTCHAR 352d
ENCODING 13613
SWIDTH 960 0
DWIDTH 10 0
BBX 10 10 0 -2
BITMAP
f000
0f80
f180
0180
f780
0c00
f400
d4c0
f7c0
0000
ENDCHAR
STARTCHAR 352e
ENCODING 13614
SWIDTH 960 0
DWIDTH 10 0
BBX 10 10 0 -2
BITMAP
0c00
3f00
3500
ffc0
3300
3f00
3300
3f00
e1c0
0000
ENDCHAR
STARTCHAR 352f
ENCODING 13615
SWIDTH 960 0
DWIDTH 10 0
BBX 10 10 0 -2
BITMAP
3000
fbc0
30c0
fbc0
3600
3ac0
d7c0
f000
dfc0
0000
ENDCHAR
STARTCHAR 3530
ENCODING 13616
SWIDTH 960 0
DWIDTH 10 0
BBX 10 10 0 -2
BITMAP
6600
f600
6f80
f680
d680
f680
6680
f580
69c0
0000
ENDCHAR
STARTCHAR 3531
ENCODING 13617
SWIDTH 960 0
DWIDTH 10 0
BBX 10 10 0 -2
BITMAP
37c0
d540
7b80
3300
fb80
6b80
6b00
6fc0
c300
0000
ENDCHAR
STARTCHAR 3532
ENCODING 13618
SWIDTH 960 0
DWIDTH 10 0
BBX 10 10 0 -2
BITMAP
6000
d780
0680
f680
d680
f680
c680
f680
cdc0
0000
ENDCHAR
STARTCHAR 3533
ENCODING 13619
SWIDTH 960 0
DWIDTH 10 0
BBX 10 10 0 -2
BITMAP
f300
d7c0
f680
d4c0
f7c0
3180
d680
b680
6380
0000
ENDCHAR
STARTCHAR 3534
ENCODING 13620
SWIDTH 960 0
DWIDTH 10 0
BBX 10 10 0 -2
BITMAP
1800
7f80
6d80
7f80
6d80
7f00
1b80
36c0
e7c0
0000
ENDCHAR
STARTCHAR 3535
ENCODING 13621
SWIDTH 960 0
DWIDTH 10 0
BBX 10 10 0 -2
BITMAP
3e00
6600
3f00
3500
7f80
6d80
7f80
0cc0
0fc0
0000
ENDCHAR
STARTCHAR 3536
ENCODING 13622
SWIDTH 960 0
DWIDTH 10 0
BBX 10 10 0 -2
BITMAP
3500
3780
6680
6780
ed80
6fc0
68c0
7540
6180
0000
ENDCHAR
STARTCHAR 3537
ENCODING 13623
SWIDTH 960 0
DWIDTH 10 0
BBX 10 10 0 -2
BITMAP
3680
37c0
6300
6fc0
e300
6fc0
6d40
6e80
6d40
0000
ENDCHAR
STARTCHAR 3538
ENCODING 13624
SWIDTH 960 0
DWIDTH 10 0
BBX 10 10 0 -2
BITMAP
6300
6300
f7c0
d300
d7c0
d4c0
6680
7300
d6c0
0000
ENDCHAR
STARTCHAR 3539
ENCODING 13625
SWIDTH 960 0
DWIDTH 10 0
BBX 10 10 0 -2
BITMAP
0c00
ffc0
c0c0
3f00
3300
3f00
3300
3300
ffc0
0000
ENDCHAR
STARTCHAR 353a
ENCODING 13626
SWIDTH 960 0
DWIDTH 10 0
BBX 10 10 0 -2
BITMAP
7340
6300
fbc0
d300
c340
d540
d180
fb80
c6c0
0000
ENDCHAR
STARTCHAR 353b
ENCODING 13627
SWIDTH 960 0
DWIDTH 10 0
BBX 10 10 0 -2
BITMAP
6300
6300
f7c0
6300
77c0
ecc0
6680
6300
eec0
0000
ENDCHAR
STARTCHAR 353c
ENCODING 13628
SWIDTH 960 0
DWIDTH 10 0
BBX 10 10 0 -2
BITMAP
6bc0
6ec0
e980
6dc0
6ec0
ed80
6ec0
6d80
eb40
0000
ENDCHAR
STARTCHAR 353d
ENCODING 13629
SWIDTH 960 0
DWIDTH 10 0
BBX 10 10 0 -2
BITMAP
6a00
fbc0
6ac0
6d40
7b00
6b00
fe80
6a80
ccc0
0000
ENDCHAR
STARTCHAR 353e
ENCODING 13630
SWIDTH 960 0
DWIDTH 10 0
BBX 10 10 0 -2
BITMAP
6680
efc0
f300
6fc0
7300
efc0
6d40
6e80
6d40
0000
ENDCHAR
STARTCHAR 353f
ENCODING 13631
SWIDTH 960 0
DWIDTH 10 0
BBX 10 10 0 -2
BITMAP
c7c0
f8c0
c680
77c0
fd80
3300
fdc0
6b00
cdc0
0000
ENDCHAR
STARTCHAR 3540
ENCODING 13632
SWIDTH 960 0
DWIDTH 10 0
BBX 10 10 0 -2
BITMAP
61c0
f700
3500
6fc0
6d00
f500
6d80
6d80
6ec0
0000
ENDCHAR
STARTCHAR 3541
ENCODING 13633
SWIDTH 960 0
DWIDTH 10 0
BBX 10 10 0 -2
BITMAP
3300
ffc0
0c00
ffc0
3500
ffc0
3680
fb40
36c0
0000
ENDCHAR
STARTCHAR 3542
ENCODING 13634
SWIDTH 960 0
DWIDTH 10 0
BBX 10 10 0 -2
BITMAP
6680
6fc0
f300
d7c0
f300
6fc0
6d40
7e80
d540
0000
ENDCHAR
STARTCHAR 3543
ENCODING 13635
SWIDTH 960 0
DWIDTH 10 0
BBX 10 10 0 -2
BITMAP
f300
0fc0
f4c0
0780
f680
0780
f680
d680
f7c0
0000
ENDCHAR
STARTCHAR 3544
ENCODING 13636
SWIDTH 960 0
DWIDTH 10 0
BBX 10 10 0 -2
BITMAP
f680
0fc0
f300
0fc0
f300
1fc0
f540
de80
f540
0000
ENDCHAR
STARTCHAR 3545
ENCODING 13637
SWIDTH 960 0
DWIDTH 10 0
BBX 10 10 0 -2
BITMAP
6c00
6fc0
e0c0
6ac0
66c0
efc0
66c0
6ac0
e180
0000
ENDCHAR
STARTCHAR 3546
ENCODING 13638
SWIDTH 960 0
DWIDTH 10 0
BBX 10 10 0 -2
BITMAP
3300
ffc0
6b00
7fc0
d8c0
6ac0
ff40
3cc0
6a80
0000
ENDCHAR
STARTCHAR 3547
ENCODING 13639
SWIDTH 960 0
DWIDTH 10 0
BBX 10 10 0 -2
BITMAP
d600
fbc0
d4c0
f540
d6c0
f740
66c0
f540
6180
0000
ENDCHAR
STARTCHAR 3548
ENCODING 13640
SWIDTH 960 0
DWIDTH 10 0
BBX 10 10 0 -2
BITMAP
0c00
0c00
ffc0
0c00
7f80
0000
7f80
6180
7f80
0000
ENDCHAR
STARTCHAR 3549
ENCODING 13641
SWIDTH 960 0
DWIDTH 10 0
BBX 10 10 0 -2
BITMAP
0600
f7c0
d400
d780
d300
d600
f600
0cc0
07c0
0000
ENDCHAR
STARTCHAR 354a
ENCODING 13642
SWIDTH 960 0
DWIDTH 10 0
BBX 10 10 0 -2
BITMAP
0dc0
fec0
d540
dec0
d000
d600
ffc0
0d00
39c0
0000
ENDCHAR
STARTCHAR 354b
ENCODING 13643
SWIDTH 960 0
DWIDTH 10 0
BBX 10 10 0 -2
BITMAP
3300
3300
ffc0
3300
77c0
7800
d7c0
34c0
37c0
0000
ENDCHAR
STARTCHAR 354c
ENCODING 13644
SWIDTH 960 0
DWIDTH 10 0
BBX 10 10 0 -2
BITMAP
6f80
6300
efc0
6180
efc0
edc0
eb40
6b40
69c0
0000
ENDCHAR
STARTCHAR 354d
ENCODING 13645
SWIDTH 960 0
DWIDTH 10 0
BBX 10 10 0 -2
BITMAP
f300
0300
f7c0
0300
f7c0
0000
f7c0
d4c0
f7c0
0000
ENDCHAR
STARTCHAR 354e
ENCODING 13646
SWIDTH 960 0
DWIDTH 10 0
BBX 10 10 0 -2
BITMAP
0300
7b00
33c0
6300
fb00
6bc0
6ac0
7ac0
07c0
0000
ENDCHAR
STARTCHAR 354f
ENCODING 13647
SWIDTH 960 0
DWIDTH 10 0
BBX 10 10 0 -2
BITMAP
3600
3600
f7c0
3300
77c0
7b00
d300
3300
3300
0000
ENDCHAR
STARTCHAR 3550
ENCODING 13648
SWIDTH 960 0
DWIDTH 10 0
BBX 10 10 0 -2
BITMAP
7f00
0c00
ffc0
1a00
3500
edc0
3500
0c00
edc0
0000
ENDCHAR
STARTCHAR 3551
ENCODING 13649
SWIDTH 960 0
DWIDTH 10 0
BBX 10 10 0 -2
BITMAP
3000
37c0
fac0
36c0
fac0
66c0
6ac0
fac0
0600
0000
ENDCHAR
STARTCHAR 3552
ENCODING 13650
SWIDTH 960 0
DWIDTH 10 0
BBX 10 10 0 -2
BITMAP
0c00
ffc0
c0c0
df00
3b00
6e00
3f00
f3c0
3f00
0000
ENDCHAR
STARTCHAR 3553
ENCODING 13651
SWIDTH 960 0
DWIDTH 10 0
BBX 10 10 0 -2
BITMAP
f5c0
d540
ff40
d540
ff40
d540
db40
dfc0
d300
0000
ENDCHAR
STARTCHAR 3554
ENCODING 13652
SWIDTH 960 0
DWIDTH 10 0
BBX 10 10 0 -2
BITMAP
0f80
0c00
7fc0
6c00
6f80
6800
6f80
d800
dfc0
0000
ENDCHAR
STARTCHAR 3555
ENCODING 13653
SWIDTH 960 0
DWIDTH 10 0
BBX 10 10 0 -2
BITMAP
d980
6d00
3fc0
ea80
6a80
6f80
6600
6c00
dfc0
0000
ENDCHAR
STARTCHAR 3556
ENCODING 13654
SWIDTH 960 0
DWIDTH 10 0
BBX 10 10 0 -2
BITMAP
0000
0700
3c00
3000
3f80
3600
3600
3600
ffc0
0000
ENDCHAR
STARTCHAR 3557
ENCODING 13655
SWIDTH 960 0
DWIDTH 10 0
BBX 10 10 0 -2
BITMAP
3000
3e00
3600
6600
c600
0c00
1a00
3300
e1c0
0000
ENDCHAR
STARTCHAR 3558
ENCODING 13656
SWIDTH 960 0
DWIDTH 10 0
BBX 10 10 0 -2
BITMAP
3400
3400
6f00
6d00
ed00
6d00
6d00
6b40
73c0
0000
ENDCHAR
STARTCHAR 3559
ENCODING 13657
SWIDTH 960 0
DWIDTH 10 0
BBX 10 10 0 -2
BITMAP
3600
3600
6fc0
6600
ef00
6f00
6a80
76c0
6600
0000
ENDCHAR
STARTCHAR 355a
ENCODING 13658
SWIDTH 960 0
DWIDTH 10 0
BBX 10 10 0 -2
BITMAP
fe00
3600
3600
3780
3180
6980
6d00
6e00
dbc0
0000
ENDCHAR
STARTCHAR 355b
ENCODING 13659
SWIDTH 960 0
DWIDTH 10 0
BBX 10 10 0 -2
BITMAP
1f00
f500
d500
d780
d580
d680
f500
1b00
36c0
0000
ENDCHAR
STARTCHAR 355c
ENCODING 13660
SWIDTH 960 0
DWIDTH 10 0
BBX 10 10 0 -2
BITMAP
0c00
ffc0
c0c0
3f00
3f00
1800
7f80
6180
7f80
0000
ENDCHAR
STARTCHAR 355d
ENCODING 13661
SWIDTH 960 0
DWIDTH 10 0
BBX 10 10 0 -2
BITMAP
7f00
0300
7f00
6000
c000
ff80
0180
0180
0700
0000
ENDCHAR
STARTCHAR 355e
ENCODING 13662
SWIDTH 960 0
DWIDTH 10 0
BBX 10 10 0 -2
BITMAP
3e00
6600
df00
1f00
0300
3f00
0c00
d6c0
df40
0000
ENDCHAR
STARTCHAR 355f
ENCODING 13663
SWIDTH 960 0
DWIDTH 10 0
BBX 10 10 0 -2
BITMAP
3500
3300
fdc0
3740
d540
7b40
d580
d580
3340
0000
ENDCHAR
STARTCHAR 3560
ENCODING 13664
SWIDTH 960 0
DWIDTH 10 0
BBX 10 10 0 -2
BITMAP
3000
37c0
fb00
3300
77c0
7ac0
d0c0
30c0
3380
0000
ENDCHAR
STARTCHAR 3561
ENCODING 13665
SWIDTH 960 0
DWIDTH 10 0
BBX 10 10 0 -2
BITMAP
0d80
0c00
ffc0
0c00
6d80
1e00
3500
edc0
1c00
0000
ENDCHAR
STARTCHAR 3562
ENCODING 13666
SWIDTH 960 0
DWIDTH 10 0
BBX 10 10 0 -2
BITMAP
df00
6d00
0d00
cf80
6d80
0d80
6e80
6b00
dac0
0000
ENDCHAR
STARTCHAR 3563
ENCODING 13667
SWIDTH 960 0
DWIDTH 10 0
BBX 10 10 0 -2
BITMAP
c600
6600
3fc0
d980
6980
1980
6d00
6d00
dfc0
0000
ENDCHAR
STARTCHAR 3564
ENCODING 13668
SWIDTH 960 0
DWIDTH 10 0
BBX 10 10 0 -2
BITMAP
3f00
e300
1e00
f3c0
0c00
ccc0
6d80
1a00
f3c0
0000
ENDCHAR
STARTCHAR 3565
ENCODING 13669
SWIDTH 960 0
DWIDTH 10 0
BBX 10 10 0 -2
BITMAP
0340
f300
6fc0
6300
f5c0
6300
7780
ed40
0700
0000
ENDCHAR
STARTCHAR 3566
ENCODING 13670
SWIDTH 960 0
DWIDTH 10 0
BBX 10 10 0 -2
BITMAP
0c00
ffc0
dac0
3600
6380
1800
fe00
36c0
e7c0
0000
ENDCHAR
STARTCHAR 3567
ENCODING 13671
SWIDTH 960 0
DWIDTH 10 0
BBX 10 10 0 -2
BITMAP
0c00
ffc0
db40
3000
7b80
6980
fbc0
68c0
db80
0000
ENDCHAR
STARTCHAR 3568
ENCODING 13672
SWIDTH 960 0
DWIDTH 10 0
BBX 10 10 0 -2
BITMAP
6300
7bc0
d680
7e00
1b80
3180
3b00
6e00
dbc0
0000
ENDCHAR
STARTCHAR 3569
ENCODING 13673
SWIDTH 960 0
DWIDTH 10 0
BBX 10 10 0 -2
BITMAP
3780
6680
d680
6bc0
fac0
3740
da80
d580
3540
0000
ENDCHAR
STARTCHAR 356a
ENCODING 13674
SWIDTH 960 0
DWIDTH 10 0
BBX 10 10 0 -2
BITMAP
3180
6180
d680
6a80
fa80
36c0
d780
d180
3180
0000
ENDCHAR
STARTCHAR 356b
ENCODING 13675
SWIDTH 960 0
DWIDTH 10 0
BBX 10 10 0 -2
BITMAP
3300
6680
d4c0
6b80
f800
3780
da80
d680
3780
0000
ENDCHAR
STARTCHAR 356c
ENCODING 13676
SWIDTH 960 0
DWIDTH 10 0
BBX 10 10 0 -2
BITMAP
df80
d180
d180
d180
df80
d180
d180
d180
df80
0000
ENDCHAR
STARTCHAR 356d
ENCODING 13677
SWIDTH 960 0
DWIDTH 10 0
BBX 10 10 0 -2
BITMAP
0c00
6c00
7f80
cc00
0c00
ffc0
0c00
0c00
0c00
0000
ENDCHAR
STARTCHAR 356e
ENCODING 13678
SWIDTH 960 0
DWIDTH 10 0
BBX 10 10 0 -2
BITMAP
0c00
0c00
7f80
0c00
ffc0
0c00
1800
3300
7e80
0000
ENDCHAR
STARTCHAR 356f
ENCODING 13679
SWIDTH 960 0
DWIDTH 10 0
BBX 10 10 0 -2
BITMAP
7fc0
60c0
7fc0
6600
7fc0
6600
6f80
d980
1f80
0000
ENDCHAR
STARTCHAR 3570
ENCODING 13680
SWIDTH 960 0
DWIDTH 10 0
BBX 10 10 0 -2
BITMAP
ff80
c000
c000
ff00
c300
ff00
c000
c000
ff80
0000
ENDCHAR
STARTCHAR 3571
ENCODING 13681
SWIDTH 960 0
DWIDTH 10 0
BBX 10 10 0 -2
BITMAP
6fc0
6c00
f400
6fc0
74c0
efc0
6c00
6c00
efc0
0000
ENDCHAR
STARTCHAR 3572
ENCODING 13682
SWIDTH 960 0
DWIDTH 10 0
BBX 10 10 0 -2
BITMAP
6800
6e00
eb80
7680
6a80
ea80
6dc0
6a00
f3c0
0000
ENDCHAR
STARTCHAR 3573
ENCODING 13683
SWIDTH 960 0
DWIDTH 10 0
BBX 10 10 0 -2
BITMAP
6980
3500
ffc0
6d80
df40
0600
7f80
0600
1c00
0000
ENDCHAR
STARTCHAR 3574
ENCODING 13684
SWIDTH 960 0
DWIDTH 10 0
BBX 10 10 0 -2
BITMAP
dfc0
1b00
df80
6b00
dfc0
0c00
ffc0
3500
edc0
0000
ENDCHAR
STARTCHAR 3575
ENCODING 13685
SWIDTH 960 0
DWIDTH 10 0
BBX 10 10 0 -2
BITMAP
0f80
0c00
7fc0
6c00
6f80
6c00
6700
6a80
dfc0
0000
ENDCHAR
STARTCHAR 3576
ENCODING 13686
SWIDTH 960 0
DWIDTH 10 0
BBX 10 10 0 -2
BITMAP
f600
07c0
f500
0300
f7c0
0300
f300
d300
f300
0000
ENDCHAR
STARTCHAR 3577
ENCODING 13687
SWIDTH 960 0
DWIDTH 10 0
BBX 10 10 0 -2
BITMAP
fbc0
da00
fa00
37c0
36c0
3bc0
d600
da00
e7c0
0000
ENDCHAR
STARTCHAR 3578
ENCODING 13688
SWIDTH 960 0
DWIDTH 10 0
BBX 10 10 0 -2
BITMAP
37c0
6cc0
f7c0
3500
f7c0
3500
d7c0
7ac0
ebc0
0000
ENDCHAR
STARTCHAR 3579
ENCODING 13689
SWIDTH 960 0
DWIDTH 10 0
BBX 10 10 0 -2
BITMAP
cf00
6b00
1f80
da80
6f80
1a80
6f80
6000
d540
0000
ENDCHAR
STARTCHAR 357a
ENCODING 13690
SWIDTH 960 0
DWIDTH 10 0
BBX 10 10 0 -2
BITMAP
69c0
de00
6dc0
ee80
6d80
0000
ffc0
6d80
dcc0
0000
ENDCHAR
STARTCHAR 357b
ENCODING 13691
SWIDTH 960 0
DWIDTH 10 0
BBX 10 10 0 -2
BITMAP
3e00
6600
ff80
6d80
7f80
6d80
7f80
0000
dac0
0000
ENDCHAR
STARTCHAR 357c
ENCODING 13692
SWIDTH 960 0
DWIDTH 10 0
BBX 10 10 0 -2
BITMAP
0c00
ffc0
3300
3f00
0000
7f80
0600
0c00
1c00
0000
ENDCHAR
STARTCHAR 357d
ENCODING 13693
SWIDTH 960 0
DWIDTH 10 0
BBX 10 10 0 -2
BITMAP
0c00
ffc0
3300
3f00
0000
7f80
0600
ffc0
1c00
0000
ENDCHAR
STARTCHAR 357e
ENCODING 13694
SWIDTH 960 0
DWIDTH 10 0
BBX 10 10 0 -2
BITMAP
0c00
ffc0
0000
3f00
3300
3f00
0c00
6d80
dcc0
0000
ENDCHAR
STARTCHAR 3621
ENCODING 13857
SWIDTH 960 0
DWIDTH 10 0
BBX 10 10 0 -2
BITMAP
3500
3500
6f80
6d00
ed00
6fc0
6000
6d00
6980
0000
ENDCHAR
STARTCHAR 3622
ENCODING 13858
SWIDTH 960 0
DWIDTH 10 0
BBX 10 10 0 -2
BITMAP
3600
3fc0
6600
6a80
ef00
6fc0
6600
6d00
69c0
0000
ENDCHAR
STARTCHAR 3623
ENCODING 13859
SWIDTH 960 0
DWIDTH 10 0
BBX 10 10 0 -2
BITMAP
3780
3600
6fc0
6d80
eb40
6000
6fc0
6b40
69c0
0000
ENDCHAR
STARTCHAR 3624
ENCODING 13860
SWIDTH 960 0
DWIDTH 10 0
BBX 10 10 0 -2
BITMAP
6180
6a80
6d80
6a80
6180
7f80
1a00
36c0
e7c0
0000
ENDCHAR
STARTCHAR 3625
ENCODING 13861
SWIDTH 960 0
DWIDTH 10 0
BBX 10 10 0 -2
BITMAP
3180
fbc0
6b40
fbc0
dac0
fbc0
7380
d680
dac0
0000
ENDCHAR
STARTCHAR 3626
ENCODING 13862
SWIDTH 960 0
DWIDTH 10 0
BBX 10 10 0 -2
BITMAP
3300
3300
7f80
3300
3300
ffc0
0000
3300
e1c0
0000
ENDCHAR
STARTCHAR 3627
ENCODING 13863
SWIDTH 960 0
DWIDTH 10 0
BBX 10 10 0 -2
BITMAP
0000
c340
d340
dac0
ccc0
dac0
d340
c0c0
ffc0
0000
ENDCHAR
STARTCHAR 3628
ENCODING 13864
SWIDTH 960 0
DWIDTH 10 0
BBX 10 10 0 -2
BITMAP
6600
6f80
f680
6680
6d00
6fc0
6d40
6d40
6ac0
0000
ENDCHAR
STARTCHAR 3629
ENCODING 13865
SWIDTH 960 0
DWIDTH 10 0
BBX 10 10 0 -2
BITMAP
ff80
c000
df00
cc00
df00
cc00
df00
c000
ffc0
0000
ENDCHAR
STARTCHAR 362a
ENCODING 13866
SWIDTH 960 0
DWIDTH 10 0
BBX 10 10 0 -2
BITMAP
6000
dec0
eac0
eec0
e9c0
eac0
6ec0
6680
c180
0000
ENDCHAR
STARTCHAR 362b
ENCODING 13867
SWIDTH 960 0
DWIDTH 10 0
BBX 10 10 0 -2
BITMAP
0180
f680
d680
d680
d680
d6c0
f780
0180
0180
0000
ENDCHAR
STARTCHAR 362c
ENCODING 13868
SWIDTH 960 0
DWIDTH 10 0
BBX 10 10 0 -2
BITMAP
3f00
0c00
ffc0
3300
eec0
0000
7f80
6e80
6380
0000
ENDCHAR
STARTCHAR 362d
ENCODING 13869
SWIDTH 960 0
DWIDTH 10 0
BBX 10 10 0 -2
BITMAP
6600
6fc0
f500
6fc0
6d80
6d80
7780
cd00
1bc0
0000
ENDCHAR
STARTCHAR 362e
ENCODING 13870
SWIDTH 960 0
DWIDTH 10 0
BBX 10 10 0 -2
BITMAP
6300
6fc0
f300
f540
f780
f7c0
f300
0680
1cc0
0000
ENDCHAR
STARTCHAR 362f
ENCODING 13871
SWIDTH 960 0
DWIDTH 10 0
BBX 10 10 0 -2
BITMAP
f680
37c0
f300
cfc0
cd40
f7c0
3300
3380
ef40
0000
ENDCHAR
STARTCHAR 3630
ENCODING 13872
SWIDTH 960 0
DWIDTH 10 0
BBX 10 10 0 -2
BITMAP
efc0
6d80
ef80
cd80
dfc0
ed80
6f80
6d80
dfc0
0000
ENDCHAR
STARTCHAR 3631
ENCODING 13873
SWIDTH 960 0
DWIDTH 10 0
BBX 10 10 0 -2
BITMAP
6600
6600
f780
f600
6fc0
6600
6680
6dc0
6f40
0000
ENDCHAR
STARTCHAR 3632
ENCODING 13874
SWIDTH 960 0
DWIDTH 10 0
BBX 10 10 0 -2
BITMAP
f700
6d00
6f00
7540
ebc0
0000
0c00
d6c0
df40
0000
ENDCHAR
STARTCHAR 3633
ENCODING 13875
SWIDTH 960 0
DWIDTH 10 0
BBX 10 10 0 -2
BITMAP
1a00
7f80
1a00
ffc0
6180
d8c0
6a80
dac0
3800
0000
ENDCHAR
STARTCHAR 3634
ENCODING 13876
SWIDTH 960 0
DWIDTH 10 0
BBX 10 10 0 -2
BITMAP
6600
6fc0
e600
6a80
6f00
efc0
6600
6d00
e9c0
0000
ENDCHAR
STARTCHAR 3635
ENCODING 13877
SWIDTH 960 0
DWIDTH 10 0
BBX 10 10 0 -2
BITMAP
3500
7d00
3bc0
fd40
6740
db40
7d80
3380
76c0
0000
ENDCHAR
STARTCHAR 3636
ENCODING 13878
SWIDTH 960 0
DWIDTH 10 0
BBX 10 10 0 -2
BITMAP
6f80
6600
efc0
6d80
eb40
e000
efc0
6b40
69c0
0000
ENDCHAR
STARTCHAR 3637
ENCODING 13879
SWIDTH 960 0
DWIDTH 10 0
BBX 10 10 0 -2
BITMAP
df80
6980
1980
df80
6d00
0d00
6d00
6b40
d3c0
0000
ENDCHAR
STARTCHAR 3638
ENCODING 13880
SWIDTH 960 0
DWIDTH 10 0
BBX 10 10 0 -2
BITMAP
d000
6fc0
e600
6600
6f80
e600
6600
6600
dfc0
0000
ENDCHAR
STARTCHAR 3639
ENCODING 13881
SWIDTH 960 0
DWIDTH 10 0
BBX 10 10 0 -2
BITMAP
d600
6fc0
e600
6a80
6f00
efc0
6600
6d00
d9c0
0000
ENDCHAR
STARTCHAR 363a
ENCODING 13882
SWIDTH 960 0
DWIDTH 10 0
BBX 10 10 0 -2
BITMAP
c780
c300
f7c0
6680
f540
6000
6fc0
d540
cdc0
0000
ENDCHAR
STARTCHAR 363b
ENCODING 13883
SWIDTH 960 0
DWIDTH 10 0
BBX 10 10 0 -2
BITMAP
f600
d600
f7c0
d4c0
dac0
f540
d540
d740
d180
0000
ENDCHAR
STARTCHAR 363c
ENCODING 13884
SWIDTH 960 0
DWIDTH 10 0
BBX 10 10 0 -2
BITMAP
1800
3f00
6b00
fbc0
7f40
d340
3f00
3300
3700
0000
ENDCHAR
STARTCHAR 363d
ENCODING 13885
SWIDTH 960 0
DWIDTH 10 0
BBX 10 10 0 -2
BITMAP
6000
dec0
eac0
dec0
eac0
dac0
ffc0
6180
c0c0
0000
ENDCHAR
STARTCHAR 363e
ENCODING 13886
SWIDTH 960 0
DWIDTH 10 0
BBX 10 10 0 -2
BITMAP
3300
ffc0
1e00
ffc0
6e80
c0c0
7f80
6e80
6380
0000
ENDCHAR
STARTCHAR 363f
ENCODING 13887
SWIDTH 960 0
DWIDTH 10 0
BBX 10 10 0 -2
BITMAP
6000
dec0
6ac0
6e80
d9c0
eac0
6ec0
6180
c180
0000
ENDCHAR
STARTCHAR 3640
ENCODING 13888
SWIDTH 960 0
DWIDTH 10 0
BBX 10 10 0 -2
BITMAP
3300
6fc0
f680
3fc0
f580
3580
d780
7500
ebc0
0000
ENDCHAR
STARTCHAR 3641
ENCODING 13889
SWIDTH 960 0
DWIDTH 10 0
BBX 10 10 0 -2
BITMAP
6ec0
d9c0
6ec0
cd80
7f80
1a00
ffc0
3300
3f00
0000
ENDCHAR
STARTCHAR 3642
ENCODING 13890
SWIDTH 960 0
DWIDTH 10 0
BBX 10 10 0 -2
BITMAP
6ec0
d9c0
6ec0
cd80
3b80
f1c0
3e00
3500
7b80
0000
ENDCHAR
STARTCHAR 3643
ENCODING 13891
SWIDTH 960 0
DWIDTH 10 0
BBX 10 10 0 -2
BITMAP
6b00
ffc0
1a80
eb00
3ac0
6000
7fc0
00c0
d540
0000
ENDCHAR
STARTCHAR 3644
ENCODING 13892
SWIDTH 960 0
DWIDTH 10 0
BBX 10 10 0 -2
BITMAP
3600
3dc0
6b40
6b40
eb40
6b40
6f40
6bc0
6300
0000
ENDCHAR
STARTCHAR 3645
ENCODING 13893
SWIDTH 960 0
DWIDTH 10 0
BBX 10 10 0 -2
BITMAP
dbc0
6ec0
1980
0dc0
0ec0
6d80
6ec0
cd80
db40
0000
ENDCHAR
STARTCHAR 3646
ENCODING 13894
SWIDTH 960 0
DWIDTH 10 0
BBX 10 10 0 -2
BITMAP
0c00
7f80
3500
ffc0
3300
7f80
1a00
36c0
e7c0
0000
ENDCHAR
STARTCHAR 3647
ENCODING 13895
SWIDTH 960 0
DWIDTH 10 0
BBX 10 10 0 -2
BITMAP
0600
f7c0
d680
dfc0
f580
dfc0
d700
f540
1bc0
0000
ENDCHAR
STARTCHAR 3648
ENCODING 13896
SWIDTH 960 0
DWIDTH 10 0
BBX 10 10 0 -2
BITMAP
6a80
3b00
ffc0
3300
7f80
0c00
ffc0
3500
edc0
0000
ENDCHAR
STARTCHAR 3649
ENCODING 13897
SWIDTH 960 0
DWIDTH 10 0
BBX 10 10 0 -2
BITMAP
7f80
6180
7f80
6000
7fc0
60c0
dec0
dec0
0380
0000
ENDCHAR
STARTCHAR 364a
ENCODING 13898
SWIDTH 960 0
DWIDTH 10 0
BBX 10 10 0 -2
BITMAP
1a00
1a00
ffc0
dac0
dac0
ffc0
dac0
dac0
ffc0
0000
ENDCHAR
STARTCHAR 364b
ENCODING 13899
SWIDTH 960 0
DWIDTH 10 0
BBX 10 10 0 -2
BITMAP
6fc0
6600
f600
67c0
ed40
ed40
e380
66c0
6fc0
0000
ENDCHAR
STARTCHAR 364c
ENCODING 13900
SWIDTH 960 0
DWIDTH 10 0
BBX 10 10 0 -2
BITMAP
0000
ffc0
0c00
0c00
7f80
0c00
0d00
0d80
ffc0
0000
ENDCHAR
STARTCHAR 364d
ENCODING 13901
SWIDTH 960 0
DWIDTH 10 0
BBX 10 10 0 -2
BITMAP
6fc0
68c0
fb40
68c0
fb40
eb40
eb40
68c0
69c0
0000
ENDCHAR
STARTCHAR 364e
ENCODING 13902
SWIDTH 960 0
DWIDTH 10 0
BBX 10 10 0 -2
BITMAP
3180
db00
3300
fb00
37c0
7300
7b00
d300
3300
0000
ENDCHAR
STARTCHAR 364f
ENCODING 13903
SWIDTH 960 0
DWIDTH 10 0
BBX 10 10 0 -2
BITMAP
3500
3fc0
6f80
6a80
ef80
6600
6f80
6600
6fc0
0000
ENDCHAR
STARTCHAR 3650
ENCODING 13904
SWIDTH 960 0
DWIDTH 10 0
BBX 10 10 0 -2
BITMAP
6b00
fd00
7bc0
6b40
7b40
3340
7b40
36c0
fac0
0000
ENDCHAR
STARTCHAR 3651
ENCODING 13905
SWIDTH 960 0
DWIDTH 10 0
BBX 10 10 0 -2
BITMAP
6600
6600
f7c0
68c0
6740
60c0
7340
eec0
0380
0000
ENDCHAR
STARTCHAR 3652
ENCODING 13906
SWIDTH 960 0
DWIDTH 10 0
BBX 10 10 0 -2
BITMAP
0c00
0c00
7f80
6d80
6d80
6d80
6d80
6d80
0c00
0000
ENDCHAR
STARTCHAR 3653
ENCODING 13907
SWIDTH 960 0
DWIDTH 10 0
BBX 10 10 0 -2
BITMAP
3600
6fc0
f4c0
37c0
fb00
37c0
dd40
7540
e300
0000
ENDCHAR
STARTCHAR 3654
ENCODING 13908
SWIDTH 960 0
DWIDTH 10 0
BBX 10 10 0 -2
BITMAP
0380
7e00
6000
7fc0
6600
6600
6600
c600
c600
0000
ENDCHAR
STARTCHAR 3655
ENCODING 13909
SWIDTH 960 0
DWIDTH 10 0
BBX 10 10 0 -2
BITMAP
1a00
f600
cfc0
fb40
d300
d300
d680
d680
34c0
0000
ENDCHAR
STARTCHAR 3656
ENCODING 13910
SWIDTH 960 0
DWIDTH 10 0
BBX 10 10 0 -2
BITMAP
3600
6a00
f7c0
3540
fb00
3300
da80
7680
ecc0
0000
ENDCHAR
STARTCHAR 3657
ENCODING 13911
SWIDTH 960 0
DWIDTH 10 0
BBX 10 10 0 -2
BITMAP
fbc0
6180
fbc0
0c00
3f00
e1c0
3f00
0600
1c00
0000
ENDCHAR
STARTCHAR 3658
ENCODING 13912
SWIDTH 960 0
DWIDTH 10 0
BBX 10 10 0 -2
BITMAP
3300
ffc0
7b80
d340
7f80
0000
ffc0
6d80
dcc0
0000
ENDCHAR
STARTCHAR 3659
ENCODING 13913
SWIDTH 960 0
DWIDTH 10 0
BBX 10 10 0 -2
BITMAP
0c00
3f00
f5c0
3b00
3500
ffc0
ccc0
df40
c1c0
0000
ENDCHAR
STARTCHAR 365a
ENCODING 13914
SWIDTH 960 0
DWIDTH 10 0
BBX 10 10 0 -2
BITMAP
6300
7bc0
d680
7b00
6fc0
7b40
6b40
fac0
dac0
0000
ENDCHAR
STARTCHAR 365b
ENCODING 13915
SWIDTH 960 0
DWIDTH 10 0
BBX 10 10 0 -2
BITMAP
fbc0
d340
fa80
18c0
7600
3580
ffc0
0c00
ccc0
0000
ENDCHAR
STARTCHAR 365c
ENCODING 13916
SWIDTH 960 0
DWIDTH 10 0
BBX 10 10 0 -2
BITMAP
3300
ffc0
3700
7c00
6000
7fc0
6600
c600
c600
0000
ENDCHAR
STARTCHAR 365d
ENCODING 13917
SWIDTH 960 0
DWIDTH 10 0
BBX 10 10 0 -2
BITMAP
3300
ffc0
3300
ffc0
dec0
df40
dec0
d540
ffc0
0000
ENDCHAR
STARTCHAR 365e
ENCODING 13918
SWIDTH 960 0
DWIDTH 10 0
BBX 10 10 0 -2
BITMAP
6700
f580
38c0
6700
6800
f780
6980
6300
6600
0000
ENDCHAR
STARTCHAR 365f
ENCODING 13919
SWIDTH 960 0
DWIDTH 10 0
BBX 10 10 0 -2
BITMAP
6680
f7c0
3680
6d40
7780
e800
6fc0
6300
6d40
0000
ENDCHAR
STARTCHAR 3660
ENCODING 13920
SWIDTH 960 0
DWIDTH 10 0
BBX 10 10 0 -2
BITMAP
f680
1fc0
f7c0
0d40
f7c0
0300
f7c0
d300
f7c0
0000
ENDCHAR
STARTCHAR 3661
ENCODING 13921
SWIDTH 960 0
DWIDTH 10 0
BBX 10 10 0 -2
BITMAP
c380
6e00
0c00
efc0
6d00
6d00
6b00
6000
dfc0
0000
ENDCHAR
STARTCHAR 3662
ENCODING 13922
SWIDTH 960 0
DWIDTH 10 0
BBX 10 10 0 -2
BITMAP
0c00
1a00
3300
eec0
0c00
7f80
0c00
3500
ffc0
0000
ENDCHAR
STARTCHAR 3663
ENCODING 13923
SWIDTH 960 0
DWIDTH 10 0
BBX 10 10 0 -2
BITMAP
0700
f580
d8c0
d700
d000
d780
f180
0300
0600
0000
ENDCHAR
STARTCHAR 3664
ENCODING 13924
SWIDTH 960 0
DWIDTH 10 0
BBX 10 10 0 -2
BITMAP
3780
6d80
f780
3580
f780
34c0
de80
7500
eec0
0000
ENDCHAR
STARTCHAR 3665
ENCODING 13925
SWIDTH 960 0
DWIDTH 10 0
BBX 10 10 0 -2
BITMAP
1800
1800
fe00
1a00
1a00
3600
3600
66c0
c7c0
0000
ENDCHAR
STARTCHAR 3666
ENCODING 13926
SWIDTH 960 0
DWIDTH 10 0
BBX 10 10 0 -2
BITMAP
3780
3580
6f80
6d80
ef80
6d80
6fc0
6d80
68c0
0000
ENDCHAR
STARTCHAR 3667
ENCODING 13927
SWIDTH 960 0
DWIDTH 10 0
BBX 10 10 0 -2
BITMAP
3000
3000
7fc0
60c0
dec0
36c0
36c0
3ec0
0380
0000
ENDCHAR
STARTCHAR 3668
ENCODING 13928
SWIDTH 960 0
DWIDTH 10 0
BBX 10 10 0 -2
BITMAP
ff80
c300
d300
da00
cc00
da00
d300
c000
ffc0
0000
ENDCHAR
STARTCHAR 3669
ENCODING 13929
SWIDTH 960 0
DWIDTH 10 0
BBX 10 10 0 -2
BITMAP
d400
6c00
efc0
70c0
6f40
ed40
6f40
60c0
c380
0000
ENDCHAR
STARTCHAR 366a
ENCODING 13930
SWIDTH 960 0
DWIDTH 10 0
BBX 10 10 0 -2
BITMAP
0600
f600
6780
f580
6980
6300
7300
e680
1cc0
0000
ENDCHAR
STARTCHAR 366b
ENCODING 13931
SWIDTH 960 0
DWIDTH 10 0
BBX 10 10 0 -2
BITMAP
67c0
6600
fa00
37c0
fac0
37c0
6a00
6a00
c7c0
0000
ENDCHAR
STARTCHAR 366c
ENCODING 13932
SWIDTH 960 0
DWIDTH 10 0
BBX 10 10 0 -2
BITMAP
3300
ffc0
3300
0c00
ffc0
0c00
7f80
6180
7f80
0000
ENDCHAR
STARTCHAR 366d
ENCODING 13933
SWIDTH 960 0
DWIDTH 10 0
BBX 10 10 0 -2
BITMAP
6000
f7c0
d580
f680
d500
f500
7680
d400
77c0
0000
ENDCHAR
STARTCHAR 366e
ENCODING 13934
SWIDTH 960 0
DWIDTH 10 0
BBX 10 10 0 -2
BITMAP
f800
d7c0
fa00
d6c0
d740
fa80
1b40
6a00
dbc0
0000
ENDCHAR
STARTCHAR 366f
ENCODING 13935
SWIDTH 960 0
DWIDTH 10 0
BBX 10 10 0 -2
BITMAP
f9c0
d700
fa00
d7c0
d680
fa80
1a80
6a80
d7c0
0000
ENDCHAR
STARTCHAR 3670
ENCODING 13936
SWIDTH 960 0
DWIDTH 10 0
BBX 10 10 0 -2
BITMAP
fa00
d600
fbc0
d4c0
d740
fb40
1b40
68c0
db80
0000
ENDCHAR
STARTCHAR 3671
ENCODING 13937
SWIDTH 960 0
DWIDTH 10 0
BBX 10 10 0 -2
BITMAP
7f00
6300
7f00
6300
7f00
6300
ff80
6300
c180
0000
ENDCHAR
STARTCHAR 3672
ENCODING 13938
SWIDTH 960 0
DWIDTH 10 0
BBX 10 10 0 -2
BITMAP
7f80
6d80
ffc0
cd40
df40
c1c0
0c00
d6c0
df40
0000
ENDCHAR
STARTCHAR 3673
ENCODING 13939
SWIDTH 960 0
DWIDTH 10 0
BBX 10 10 0 -2
BITMAP
0f00
0c00
ffc0
cf80
d500
df80
c180
ffc0
d180
0000
ENDCHAR
STARTCHAR 3674
ENCODING 13940
SWIDTH 960 0
DWIDTH 10 0
BBX 10 10 0 -2
BITMAP
0700
f580
dac0
d780
d580
d780
d540
f580
1ec0
0000
ENDCHAR
STARTCHAR 3675
ENCODING 13941
SWIDTH 960 0
DWIDTH 10 0
BBX 10 10 0 -2
BITMAP
0c00
ffc0
dac0
7780
0000
7f80
0c00
0c00
ffc0
0000
ENDCHAR
STARTCHAR 3676
ENCODING 13942
SWIDTH 960 0
DWIDTH 10 0
BBX 10 10 0 -2
BITMAP
3780
3580
6e80
6f80
e600
6fc0
6ac0
6b40
69c0
0000
ENDCHAR
STARTCHAR 3677
ENCODING 13943
SWIDTH 960 0
DWIDTH 10 0
BBX 10 10 0 -2
BITMAP
0c00
ffc0
d540
3f00
3500
7f80
6d80
6e80
6380
0000
ENDCHAR
STARTCHAR 3678
ENCODING 13944
SWIDTH 960 0
DWIDTH 10 0
BBX 10 10 0 -2
BITMAP
cf80
6e80
0d80
efc0
6ac0
6f40
69c0
6000
dfc0
0000
ENDCHAR
STARTCHAR 3679
ENCODING 13945
SWIDTH 960 0
DWIDTH 10 0
BBX 10 10 0 -2
BITMAP
f780
d580
ee80
d780
d600
dfc0
eac0
db40
d9c0
0000
ENDCHAR
STARTCHAR 367a
ENCODING 13946
SWIDTH 960 0
DWIDTH 10 0
BBX 10 10 0 -2
BITMAP
0c00
7f80
6d80
7f80
0c00
ffc0
ccc0
ffc0
0c00
0000
ENDCHAR
STARTCHAR 367b
ENCODING 13947
SWIDTH 960 0
DWIDTH 10 0
BBX 10 10 0 -2
BITMAP
6b00
6dc0
e000
6dc0
ed40
ed40
eb40
6bc0
6d00
0000
ENDCHAR
STARTCHAR 367c
ENCODING 13948
SWIDTH 960 0
DWIDTH 10 0
BBX 10 10 0 -2
BITMAP
34c0
6d40
f540
3540
fd40
3540
dd40
7540
ecc0
0000
ENDCHAR
STARTCHAR 367d
ENCODING 13949
SWIDTH 960 0
DWIDTH 10 0
BBX 10 10 0 -2
BITMAP
7fc0
60c0
7fc0
6a80
6fc0
68c0
6fc0
d8c0
d9c0
0000
ENDCHAR
STARTCHAR 367e
ENCODING 13950
SWIDTH 960 0
DWIDTH 10 0
BBX 10 10 0 -2
BITMAP
7fc0
60c0
7fc0
6600
6a80
6f80
6600
d6c0
dfc0
0000
ENDCHAR
STARTCHAR 3721
ENCODING 14113
SWIDTH 960 0
DWIDTH 10 0
BBX 10 10 0 -2
BITMAP
6fc0
68c0
efc0
6b00
6d40
efc0
6b00
6d40
f7c0
0000
ENDCHAR
STARTCHAR 3722
ENCODING 14114
SWIDTH 960 0
DWIDTH 10 0
BBX 10 10 0 -2
BITMAP
0c00
ffc0
db40
6180
7fc0
6a80
6f80
6ac0
dfc0
0000
ENDCHAR
STARTCHAR 3723
ENCODING 14115
SWIDTH 960 0
DWIDTH 10 0
BBX 10 10 0 -2
BITMAP
0c00
f6c0
3500
edc0
7f80
6180
7f80
6180
7f80
0000
ENDCHAR
STARTCHAR 3724
ENCODING 14116
SWIDTH 960 0
DWIDTH 10 0
BBX 10 10 0 -2
BITMAP
d700
fb00
d540
f580
dd00
f500
6d00
f540
6dc0
0000
ENDCHAR
STARTCHAR 3725
ENCODING 14117
SWIDTH 960 0
DWIDTH 10 0
BBX 10 10 0 -2
BITMAP
6cc0
de80
6ac0
de80
edc0
0000
7f80
6180
7f80
0000
ENDCHAR
STARTCHAR 3726
ENCODING 14118
SWIDTH 960 0
DWIDTH 10 0
BBX 10 10 0 -2
BITMAP
0c00
ffc0
dac0
3380
df80
6600
df80
6600
dfc0
0000
ENDCHAR
STARTCHAR 3727
ENCODING 14119
SWIDTH 960 0
DWIDTH 10 0
BBX 10 10 0 -2
BITMAP
6680
fb40
03c0
fa00
db80
fac0
dbc0
0000
dac0
0000
ENDCHAR
STARTCHAR 3728
ENCODING 14120
SWIDTH 960 0
DWIDTH 10 0
BBX 10 10 0 -2
BITMAP
f780
d680
ed80
d780
d000
dfc0
ed40
cd80
dec0
0000
ENDCHAR
STARTCHAR 3729
ENCODING 14121
SWIDTH 960 0
DWIDTH 10 0
BBX 10 10 0 -2
BITMAP
1e00
7600
0c00
3a00
edc0
3500
ffc0
3500
edc0
0000
ENDCHAR
STARTCHAR 372a
ENCODING 14122
SWIDTH 960 0
DWIDTH 10 0
BBX 10 10 0 -2
BITMAP
ffc0
1a00
7f80
6a80
7f80
0c00
ffc0
3500
edc0
0000
ENDCHAR
STARTCHAR 372b
ENCODING 14123
SWIDTH 960 0
DWIDTH 10 0
BBX 10 10 0 -2
BITMAP
3780
6680
d7c0
6d40
f7c0
3300
d7c0
d780
3540
0000
ENDCHAR
STARTCHAR 372c
ENCODING 14124
SWIDTH 960 0
DWIDTH 10 0
BBX 10 10 0 -2
BITMAP
3f00
1a00
0c00
fbc0
6a80
3500
ffc0
3500
edc0
0000
ENDCHAR
STARTCHAR 372d
ENCODING 14125
SWIDTH 960 0
DWIDTH 10 0
BBX 10 10 0 -2
BITMAP
6e80
d580
fec0
6dc0
f580
6e80
dd80
6d40
f540
0000
ENDCHAR
STARTCHAR 372e
ENCODING 14126
SWIDTH 960 0
DWIDTH 10 0
BBX 10 10 0 -2
BITMAP
3d00
f300
7fc0
d540
fd40
36c0
fac0
0000
dac0
0000
ENDCHAR
STARTCHAR 372f
ENCODING 14127
SWIDTH 960 0
DWIDTH 10 0
BBX 10 10 0 -2
BITMAP
7f00
1b00
ffc0
1b00
7f00
3000
7f80
d180
3f80
0000
ENDCHAR
STARTCHAR 3730
ENCODING 14128
SWIDTH 960 0
DWIDTH 10 0
BBX 10 10 0 -2
BITMAP
3300
ffc0
7f80
6d80
7f80
0c00
ffc0
0000
dac0
0000
ENDCHAR
STARTCHAR 3731
ENCODING 14129
SWIDTH 960 0
DWIDTH 10 0
BBX 10 10 0 -2
BITMAP
f4c0
0d40
f540
0d40
f540
0d40
f540
d540
f4c0
0000
ENDCHAR
STARTCHAR 3732
ENCODING 14130
SWIDTH 960 0
DWIDTH 10 0
BBX 10 10 0 -2
BITMAP
fa80
6a80
fbc0
6b00
7bc0
c300
7bc0
6b00
7b00
0000
ENDCHAR
STARTCHAR 3733
ENCODING 14131
SWIDTH 960 0
DWIDTH 10 0
BBX 10 10 0 -2
BITMAP
ffc0
ccc0
7f80
3500
3f00
3500
3f00
ffc0
0c00
0000
ENDCHAR
STARTCHAR 3734
ENCODING 14132
SWIDTH 960 0
DWIDTH 10 0
BBX 10 10 0 -2
BITMAP
fbc0
6ac0
fe80
6ac0
7ac0
c6c0
7b40
6a80
7a00
0000
ENDCHAR
STARTCHAR 3735
ENCODING 14133
SWIDTH 960 0
DWIDTH 10 0
BBX 10 10 0 -2
BITMAP
3300
fd00
3300
fd80
0340
3300
fd00
3300
fd00
0000
ENDCHAR
STARTCHAR 3736
ENCODING 14134
SWIDTH 960 0
DWIDTH 10 0
BBX 10 10 0 -2
BITMAP
6000
fbc0
6ac0
dbc0
0c00
ffc0
7580
d700
79c0
0000
ENDCHAR
STARTCHAR 3737
ENCODING 14135
SWIDTH 960 0
DWIDTH 10 0
BBX 10 10 0 -2
BITMAP
3000
fbc0
1ac0
3680
36c0
7ac0
d740
3680
3600
0000
ENDCHAR
STARTCHAR 3738
ENCODING 14136
SWIDTH 960 0
DWIDTH 10 0
BBX 10 10 0 -2
BITMAP
3380
3600
6680
6d00
e6c0
6fc0
6300
6d40
6d40
0000
ENDCHAR
STARTCHAR 3739
ENCODING 14137
SWIDTH 960 0
DWIDTH 10 0
BBX 10 10 0 -2
BITMAP
37c0
3180
6bc0
6d40
ebc0
6b40
6dc0
6000
6340
0000
ENDCHAR
STARTCHAR 373a
ENCODING 14138
SWIDTH 960 0
DWIDTH 10 0
BBX 10 10 0 -2
BITMAP
fcc0
6b40
6b40
fd40
6b40
6b40
68c0
68c0
69c0
0000
ENDCHAR
STARTCHAR 373b
ENCODING 14139
SWIDTH 960 0
DWIDTH 10 0
BBX 10 10 0 -2
BITMAP
7f80
6180
6180
6180
7f80
1a00
1a00
36c0
e7c0
0000
ENDCHAR
STARTCHAR 373c
ENCODING 14140
SWIDTH 960 0
DWIDTH 10 0
BBX 10 10 0 -2
BITMAP
fa00
07c0
7a80
6b00
7ac0
c000
7f80
6180
7f80
0000
ENDCHAR
STARTCHAR 373d
ENCODING 14141
SWIDTH 960 0
DWIDTH 10 0
BBX 10 10 0 -2
BITMAP
0c00
7f80
0c00
ffc0
0000
0c00
7f80
0c00
ffc0
0000
ENDCHAR
STARTCHAR 373e
ENCODING 14142
SWIDTH 960 0
DWIDTH 10 0
BBX 10 10 0 -2
BITMAP
0300
f780
6300
f7c0
6000
6300
7780
e300
0fc0
0000
ENDCHAR
STARTCHAR 373f
ENCODING 14143
SWIDTH 960 0
DWIDTH 10 0
BBX 10 10 0 -2
BITMAP
fd40
6b40
fd40
68c0
69c0
0c00
7f80
0c00
ffc0
0000
ENDCHAR
STARTCHAR 3740
ENCODING 14144
SWIDTH 960 0
DWIDTH 10 0
BBX 10 10 0 -2
BITMAP
37c0
fb40
7340
3ac0
f6c0
0c00
ffc0
1a00
f3c0
0000
ENDCHAR
STARTCHAR 3741
ENCODING 14145
SWIDTH 960 0
DWIDTH 10 0
BBX 10 10 0 -2
BITMAP
fcc0
6980
6b00
fcc0
6980
6b00
68c0
d980
db00
0000
ENDCHAR
STARTCHAR 3742
ENCODING 14146
SWIDTH 960 0
DWIDTH 10 0
BBX 10 10 0 -2
BITMAP
6f80
cd80
3700
6dc0
e600
6600
6f80
6600
6fc0
0000
ENDCHAR
STARTCHAR 3743
ENCODING 14147
SWIDTH 960 0
DWIDTH 10 0
BBX 10 10 0 -2
BITMAP
0c00
ffc0
6d80
7f80
6d80
7f80
0c00
d6c0
df40
0000
ENDCHAR
STARTCHAR 3744
ENCODING 14148
SWIDTH 960 0
DWIDTH 10 0
BBX 10 10 0 -2
BITMAP
0c00
ffc0
db00
ffc0
d540
df80
d980
cf00
b9c0
0000
ENDCHAR
STARTCHAR 3745
ENCODING 14149
SWIDTH 960 0
DWIDTH 10 0
BBX 10 10 0 -2
BITMAP
6300
fbc0
6300
ffc0
0300
3f00
0c00
d6c0
df40
0000
ENDCHAR
STARTCHAR 3746
ENCODING 14150
SWIDTH 960 0
DWIDTH 10 0
BBX 10 10 0 -2
BITMAP
3b00
f7c0
36c0
ffc0
6ac0
7bc0
0c00
d6c0
df40
0000
ENDCHAR
STARTCHAR 3747
ENCODING 14151
SWIDTH 960 0
DWIDTH 10 0
BBX 10 10 0 -2
BITMAP
6f80
6d80
f780
6d80
77c0
ecc0
6d40
6f40
e180
0000
ENDCHAR
STARTCHAR 3748
ENCODING 14152
SWIDTH 960 0
DWIDTH 10 0
BBX 10 10 0 -2
BITMAP
6d80
6fc0
ed00
6fc0
7000
ef80
66c0
6cc0
eb80
0000
ENDCHAR
STARTCHAR 3749
ENCODING 14153
SWIDTH 960 0
DWIDTH 10 0
BBX 10 10 0 -2
BITMAP
6b00
fd00
6bc0
ff40
0d40
f540
d5c0
f580
1b40
0000
ENDCHAR
STARTCHAR 374a
ENCODING 14154
SWIDTH 960 0
DWIDTH 10 0
BBX 10 10 0 -2
BITMAP
7f80
6180
7f80
0c00
ffc0
3300
3f00
6d80
dcc0
0000
ENDCHAR
STARTCHAR 374b
ENCODING 14155
SWIDTH 960 0
DWIDTH 10 0
BBX 10 10 0 -2
BITMAP
3300
37c0
fb00
37c0
7800
7300
d7c0
3300
37c0
0000
ENDCHAR
STARTCHAR 374c
ENCODING 14156
SWIDTH 960 0
DWIDTH 10 0
BBX 10 10 0 -2
BITMAP
c1c0
6f00
0d40
dfc0
6300
1fc0
6300
6680
dcc0
0000
ENDCHAR
STARTCHAR 374d
ENCODING 14157
SWIDTH 960 0
DWIDTH 10 0
BBX 10 10 0 -2
BITMAP
0300
ffc0
d500
d7c0
fc00
d500
d7c0
fd00
0fc0
0000
ENDCHAR
STARTCHAR 374e
ENCODING 14158
SWIDTH 960 0
DWIDTH 10 0
BBX 10 10 0 -2
BITMAP
3b40
f7c0
3300
f6c0
3b80
7600
77c0
d4c0
37c0
0000
ENDCHAR
STARTCHAR 374f
ENCODING 14159
SWIDTH 960 0
DWIDTH 10 0
BBX 10 10 0 -2
BITMAP
0700
7c00
1b00
3600
1d80
ffc0
0c00
6d80
ccc0
0000
ENDCHAR
STARTCHAR 3750
ENCODING 14160
SWIDTH 960 0
DWIDTH 10 0
BBX 10 10 0 -2
BITMAP
37c0
6680
d300
6ac0
f800
3300
db80
d300
37c0
0000
ENDCHAR
STARTCHAR 3751
ENCODING 14161
SWIDTH 960 0
DWIDTH 10 0
BBX 10 10 0 -2
BITMAP
3500
6f40
d500
6fc0
f500
3580
d740
d500
37c0
0000
ENDCHAR
STARTCHAR 3752
ENCODING 14162
SWIDTH 960 0
DWIDTH 10 0
BBX 10 10 0 -2
BITMAP
3780
fec0
6b80
fd00
36c0
1980
ffc0
0c00
6d80
0000
ENDCHAR
STARTCHAR 3753
ENCODING 14163
SWIDTH 960 0
DWIDTH 10 0
BBX 10 10 0 -2
BITMAP
7f80
6a80
7f80
0000
fd00
3300
fd80
3340
fd00
0000
ENDCHAR
STARTCHAR 3754
ENCODING 14164
SWIDTH 960 0
DWIDTH 10 0
BBX 10 10 0 -2
BITMAP
3300
ffc0
3300
7f80
3300
1e00
f5c0
1e00
ffc0
0000
ENDCHAR
STARTCHAR 3755
ENCODING 14165
SWIDTH 960 0
DWIDTH 10 0
BBX 10 10 0 -2
BITMAP
3300
ffc0
3300
fcc0
6b40
fd40
6b40
68c0
d9c0
0000
ENDCHAR
STARTCHAR 3756
ENCODING 14166
SWIDTH 960 0
DWIDTH 10 0
BBX 10 10 0 -2
BITMAP
6980
3500
ffc0
ccc0
7f80
6d80
7f80
0d80
ff40
0000
ENDCHAR
STARTCHAR 3757
ENCODING 14167
SWIDTH 960 0
DWIDTH 10 0
BBX 10 10 0 -2
BITMAP
fb00
0300
fb00
0fc0
fb00
0300
fb00
db00
fb00
0000
ENDCHAR
STARTCHAR 3758
ENCODING 14168
SWIDTH 960 0
DWIDTH 10 0
BBX 10 10 0 -2
BITMAP
f580
0f00
f4c0
07c0
f000
0fc0
f4c0
d4c0
f7c0
0000
ENDCHAR
STARTCHAR 3759
ENCODING 14169
SWIDTH 960 0
DWIDTH 10 0
BBX 10 10 0 -2
BITMAP
6a00
fbc0
dec0
6b80
7f40
0000
ffc0
3300
3f00
0000
ENDCHAR
STARTCHAR 375a
ENCODING 14170
SWIDTH 960 0
DWIDTH 10 0
BBX 10 10 0 -2
BITMAP
6fc0
f680
6300
f6c0
d000
f300
6fc0
f300
6fc0
0000
ENDCHAR
STARTCHAR 375b
ENCODING 14171
SWIDTH 960 0
DWIDTH 10 0
BBX 10 10 0 -2
BITMAP
fbc0
6b00
77c0
dac0
67c0
fac0
67c0
7800
e6c0
0000
ENDCHAR
STARTCHAR 375c
ENCODING 14172
SWIDTH 960 0
DWIDTH 10 0
BBX 10 10 0 -2
BITMAP
f600
d780
0d80
6fc0
f400
6fc0
f0c0
6d40
d580
0000
ENDCHAR
STARTCHAR 375d
ENCODING 14173
SWIDTH 960 0
DWIDTH 10 0
BBX 10 10 0 -2
BITMAP
3300
ffc0
3300
7f80
0000
ffc0
1800
3300
7e80
0000
ENDCHAR
STARTCHAR 375e
ENCODING 14174
SWIDTH 960 0
DWIDTH 10 0
BBX 10 10 0 -2
BITMAP
c600
6dc0
1b40
eb40
6b40
6dc0
6300
6000
dfc0
0000
ENDCHAR
STARTCHAR 375f
ENCODING 14175
SWIDTH 960 0
DWIDTH 10 0
BBX 10 10 0 -2
BITMAP
7300
d7c0
6000
f780
d680
f780
0300
d540
d300
0000
ENDCHAR
STARTCHAR 3760
ENCODING 14176
SWIDTH 960 0
DWIDTH 10 0
BBX 10 10 0 -2
BITMAP
3cc0
3340
ff40
d340
dd40
e8c0
dcc0
eac0
d9c0
0000
ENDCHAR
STARTCHAR 3761
ENCODING 14177
SWIDTH 960 0
DWIDTH 10 0
BBX 10 10 0 -2
BITMAP
6680
f6c0
6fc0
f600
d6c0
f680
6300
f740
6dc0
0000
ENDCHAR
STARTCHAR 3762
ENCODING 14178
SWIDTH 960 0
DWIDTH 10 0
BBX 10 10 0 -2
BITMAP
3780
fec0
6b80
fb00
36c0
3c00
ffc0
0c00
1c00
0000
ENDCHAR
STARTCHAR 3763
ENCODING 14179
SWIDTH 960 0
DWIDTH 10 0
BBX 10 10 0 -2
BITMAP
db00
3d00
35c0
dd40
1b40
3ec0
1a80
d680
d740
0000
ENDCHAR
STARTCHAR 3764
ENCODING 14180
SWIDTH 960 0
DWIDTH 10 0
BBX 10 10 0 -2
BITMAP
f540
d300
efc0
d4c0
d7c0
d4c0
efc0
c300
cd40
0000
ENDCHAR
STARTCHAR 3765
ENCODING 14181
SWIDTH 960 0
DWIDTH 10 0
BBX 10 10 0 -2
BITMAP
6c00
6bc0
f400
6dc0
f580
ed80
ed80
6d80
6d80
0000
ENDCHAR
STARTCHAR 3766
ENCODING 14182
SWIDTH 960 0
DWIDTH 10 0
BBX 10 10 0 -2
BITMAP
3680
35c0
6a80
e7c0
6d80
6300
6fc0
6d80
6b40
0000
ENDCHAR
STARTCHAR 3767
ENCODING 14183
SWIDTH 960 0
DWIDTH 10 0
BBX 10 10 0 -2
BITMAP
3000
3000
7fc0
6cc0
cd80
1a00
1a00
3300
e1c0
0000
ENDCHAR
STARTCHAR 3768
ENCODING 14184
SWIDTH 960 0
DWIDTH 10 0
BBX 10 10 0 -2
BITMAP
c600
6600
1f80
c680
6fc0
0600
6600
6d00
d9c0
0000
ENDCHAR
STARTCHAR 3769
ENCODING 14185
SWIDTH 960 0
DWIDTH 10 0
BBX 10 10 0 -2
BITMAP
dbc0
3d40
1b40
dec0
0d00
1ac0
3fc0
c600
da80
0000
ENDCHAR
STARTCHAR 376a
ENCODING 14186
SWIDTH 960 0
DWIDTH 10 0
BBX 10 10 0 -2
BITMAP
0c00
ffc0
c0c0
0600
3600
3300
6300
6180
c0c0
0000
ENDCHAR
STARTCHAR 376b
ENCODING 14187
SWIDTH 960 0
DWIDTH 10 0
BBX 10 10 0 -2
BITMAP
3300
6fc0
d300
6bc0
f800
37c0
dac0
d6c0
37c0
0000
ENDCHAR
STARTCHAR 376c
ENCODING 14188
SWIDTH 960 0
DWIDTH 10 0
BBX 10 10 0 -2
BITMAP
0c00
1800
7f80
6a80
6a80
6a80
6a80
6a80
ffc0
0000
ENDCHAR
STARTCHAR 376d
ENCODING 14189
SWIDTH 960 0
DWIDTH 10 0
BBX 10 10 0 -2
BITMAP
f600
0600
f780
0680
f7c0
0600
f600
d500
f5c0
0000
ENDCHAR
STARTCHAR 376e
ENCODING 14190
SWIDTH 960 0
DWIDTH 10 0
BBX 10 10 0 -2
BITMAP
3f80
3180
3f80
3180
3f80
3180
3180
6180
c380
0000
ENDCHAR
STARTCHAR 376f
ENCODING 14191
SWIDTH 960 0
DWIDTH 10 0
BBX 10 10 0 -2
BITMAP
3300
3500
6fc0
6b00
e300
6fc0
6300
6300
6300
0000
ENDCHAR
STARTCHAR 3770
ENCODING 14192
SWIDTH 960 0
DWIDTH 10 0
BBX 10 10 0 -2
BITMAP
3600
3500
6f80
76c0
ef80
6a80
6f80
6d00
6980
0000
ENDCHAR
STARTCHAR 3771
ENCODING 14193
SWIDTH 960 0
DWIDTH 10 0
BBX 10 10 0 -2
BITMAP
6a80
6f80
cd00
dfc0
d980
d740
cf00
ccc0
cfc0
0000
ENDCHAR
STARTCHAR 3772
ENCODING 14194
SWIDTH 960 0
DWIDTH 10 0
BBX 10 10 0 -2
BITMAP
6180
7dc0
cdc0
dbc0
dd80
cdc0
d580
d980
d7c0
0000
ENDCHAR
STARTCHAR 3773
ENCODING 14195
SWIDTH 960 0
DWIDTH 10 0
BBX 10 10 0 -2
BITMAP
3300
ffc0
1a00
7f80
dac0
7f80
1a00
3b00
eac0
0000
ENDCHAR
STARTCHAR 3774
ENCODING 14196
SWIDTH 960 0
DWIDTH 10 0
BBX 10 10 0 -2
BITMAP
6d80
3500
7f80
1a00
ffc0
6180
df40
1b00
7700
0000
ENDCHAR
STARTCHAR 3775
ENCODING 14197
SWIDTH 960 0
DWIDTH 10 0
BBX 10 10 0 -2
BITMAP
30c0
6b40
fd40
3340
fd40
d540
fd40
68c0
cdc0
0000
ENDCHAR
STARTCHAR 3776
ENCODING 14198
SWIDTH 960 0
DWIDTH 10 0
BBX 10 10 0 -2
BITMAP
0600
ffc0
d8c0
d780
d580
d780
f580
0d80
1fc0
0000
ENDCHAR
STARTCHAR 3777
ENCODING 14199
SWIDTH 960 0
DWIDTH 10 0
BBX 10 10 0 -2
BITMAP
ffc0
d540
dac0
ffc0
d340
fec0
dac0
d6c0
ffc0
0000
ENDCHAR
STARTCHAR 3778
ENCODING 14200
SWIDTH 960 0
DWIDTH 10 0
BBX 10 10 0 -2
BITMAP
fbc0
d6c0
fb40
d380
fac0
0c00
7f80
0c00
ffc0
0000
ENDCHAR
STARTCHAR 3779
ENCODING 14201
SWIDTH 960 0
DWIDTH 10 0
BBX 10 10 0 -2
BITMAP
6d80
6fc0
f500
d780
ddc0
d780
6d00
7d80
d540
0000
ENDCHAR
STARTCHAR 377a
ENCODING 14202
SWIDTH 960 0
DWIDTH 10 0
BBX 10 10 0 -2
BITMAP
f780
3680
6fc0
f680
3780
d600
6fc0
6600
dfc0
0000
ENDCHAR
STARTCHAR 377b
ENCODING 14203
SWIDTH 960 0
DWIDTH 10 0
BBX 10 10 0 -2
BITMAP
0c00
ffc0
ccc0
3f00
6a80
7f80
0c00
d6c0
df40
0000
ENDCHAR
STARTCHAR 377c
ENCODING 14204
SWIDTH 960 0
DWIDTH 10 0
BBX 10 10 0 -2
BITMAP
3bc0
db00
c6c0
fbc0
3300
d540
0000
d6c0
df40
0000
ENDCHAR
STARTCHAR 377d
ENCODING 14205
SWIDTH 960 0
DWIDTH 10 0
BBX 10 10 0 -2
BITMAP
6d80
3500
ffc0
3300
ffc0
6d80
df40
0c00
1c00
0000
ENDCHAR
STARTCHAR 377e
ENCODING 14206
SWIDTH 960 0
DWIDTH 10 0
BBX 10 10 0 -2
BITMAP
6a80
6f80
ed00
7fc0
6980
f740
6f00
6cc0
efc0
0000
ENDCHAR
STARTCHAR 3821
ENCODING 14369
SWIDTH 960 0
DWIDTH 10 0
BBX 10 10 0 -2
BITMAP
3300
3680
ffc0
3300
77c0
7d40
d7c0
3680
34c0
0000
ENDCHAR
STARTCHAR 3822
ENCODING 14370
SWIDTH 960 0
DWIDTH 10 0
BBX 10 10 0 -2
BITMAP
3600
37c0
f500
3780
7bc0
7680
d7c0
3680
37c0
0000
ENDCHAR
STARTCHAR 3823
ENCODING 14371
SWIDTH 960 0
DWIDTH 10 0
BBX 10 10 0 -2
BITMAP
0c00
7f80
3300
ffc0
dac0
3f00
6c00
ffc0
0c00
0000
ENDCHAR
STARTCHAR 3824
ENCODING 14372
SWIDTH 960 0
DWIDTH 10 0
BBX 10 10 0 -2
BITMAP
0d80
0c00
ffc0
0c00
1a00
1a00
3300
6180
c0c0
0000
ENDCHAR
STARTCHAR 3825
ENCODING 14373
SWIDTH 960 0
DWIDTH 10 0
BBX 10 10 0 -2
BITMAP
6340
fb00
6fc0
fb00
eb00
da80
ea80
eac0
dcc0
0000
ENDCHAR
STARTCHAR 3826
ENCODING 14374
SWIDTH 960 0
DWIDTH 10 0
BBX 10 10 0 -2
BITMAP
0fc0
f680
6680
f680
d7c0
d680
d680
f580
0d80
0000
ENDCHAR
STARTCHAR 3827
ENCODING 14375
SWIDTH 960 0
DWIDTH 10 0
BBX 10 10 0 -2
BITMAP
0f80
f580
6f80
f580
d780
d580
d780
f500
3bc0
0000
ENDCHAR
STARTCHAR 3828
ENCODING 14376
SWIDTH 960 0
DWIDTH 10 0
BBX 10 10 0 -2
BITMAP
37c0
66c0
d7c0
6800
fbc0
36c0
dbc0
d6c0
36c0
0000
ENDCHAR
STARTCHAR 3829
ENCODING 14377
SWIDTH 960 0
DWIDTH 10 0
BBX 10 10 0 -2
BITMAP
3f00
3300
df00
d300
df00
d300
ffc0
6d80
ccc0
0000
ENDCHAR
STARTCHAR 382a
ENCODING 14378
SWIDTH 960 0
DWIDTH 10 0
BBX 10 10 0 -2
BITMAP
7fc0
0000
7fc0
60c0
7fc0
6980
6f80
d980
db80
0000
ENDCHAR
STARTCHAR 382b
ENCODING 14379
SWIDTH 960 0
DWIDTH 10 0
BBX 10 10 0 -2
BITMAP
7f00
6300
7f00
6300
7f00
6300
7f00
36c0
e7c0
0000
ENDCHAR
STARTCHAR 382c
ENCODING 14380
SWIDTH 960 0
DWIDTH 10 0
BBX 10 10 0 -2
BITMAP
e980
3fc0
ed00
1f80
f5c0
1f80
f500
dd80
f540
0000
ENDCHAR
STARTCHAR 382d
ENCODING 14381
SWIDTH 960 0
DWIDTH 10 0
BBX 10 10 0 -2
BITMAP
fbc0
d6c0
d380
ff40
3300
3f00
3300
3f00
6180
0000
ENDCHAR
STARTCHAR 382e
ENCODING 14382
SWIDTH 960 0
DWIDTH 10 0
BBX 10 10 0 -2
BITMAP
3000
ffc0
3300
fd00
d7c0
fd00
3300
fd00
3300
0000
ENDCHAR
STARTCHAR 382f
ENCODING 14383
SWIDTH 960 0
DWIDTH 10 0
BBX 10 10 0 -2
BITMAP
c600
6f80
1a80
3fc0
ed00
6f80
6d80
6f80
dfc0
0000
ENDCHAR
STARTCHAR 3830
ENCODING 14384
SWIDTH 960 0
DWIDTH 10 0
BBX 10 10 0 -2
BITMAP
3180
6fc0
fac0
35c0
f680
37c0
d680
7600
edc0
0000
ENDCHAR
STARTCHAR 3831
ENCODING 14385
SWIDTH 960 0
DWIDTH 10 0
BBX 10 10 0 -2
BITMAP
f300
d680
efc0
db00
d7c0
d540
efc0
c680
ccc0
0000
ENDCHAR
STARTCHAR 3832
ENCODING 14386
SWIDTH 960 0
DWIDTH 10 0
BBX 10 10 0 -2
BITMAP
fbc0
db00
fbc0
dac0
fbc0
76c0
f7c0
7b80
e6c0
0000
ENDCHAR
STARTCHAR 3833
ENCODING 14387
SWIDTH 960 0
DWIDTH 10 0
BBX 10 10 0 -2
BITMAP
fb00
d680
d7c0
fb00
d7c0
f540
1fc0
6a80
d4c0
0000
ENDCHAR
STARTCHAR 3834
ENCODING 14388
SWIDTH 960 0
DWIDTH 10 0
BBX 10 10 0 -2
BITMAP
6300
7a80
6fc0
f300
d7c0
f540
f7c0
d680
f4c0
0000
ENDCHAR
STARTCHAR 3835
ENCODING 14389
SWIDTH 960 0
DWIDTH 10 0
BBX 10 10 0 -2
BITMAP
7f80
0000
0000
ffc0
1a00
1a00
3600
66c0
c7c0
0000
ENDCHAR
STARTCHAR 3836
ENCODING 14390
SWIDTH 960 0
DWIDTH 10 0
BBX 10 10 0 -2
BITMAP
7fc0
6600
6f80
6980
6980
6f80
6600
d6c0
d6c0
0000
ENDCHAR
STARTCHAR 3837
ENCODING 14391
SWIDTH 960 0
DWIDTH 10 0
BBX 10 10 0 -2
BITMAP
6d80
ffc0
c000
dd00
dbc0
ff40
d580
fdc0
cd40
0000
ENDCHAR
STARTCHAR 3838
ENCODING 14392
SWIDTH 960 0
DWIDTH 10 0
BBX 10 10 0 -2
BITMAP
1800
37c0
60c0
d8c0
68c0
30c0
6cc0
f4c0
0380
0000
ENDCHAR
STARTCHAR 3839
ENCODING 14393
SWIDTH 960 0
DWIDTH 10 0
BBX 10 10 0 -2
BITMAP
f300
37c0
f600
cc00
f680
3300
3600
3580
ef40
0000
ENDCHAR
STARTCHAR 383a
ENCODING 14394
SWIDTH 960 0
DWIDTH 10 0
BBX 10 10 0 -2
BITMAP
c680
6600
1fc0
db00
6d00
1b40
6e80
6a80
d740
0000
ENDCHAR
STARTCHAR 383b
ENCODING 14395
SWIDTH 960 0
DWIDTH 10 0
BBX 10 10 0 -2
BITMAP
dfc0
6b00
1b80
da80
6a80
1b80
6b00
6d40
d300
0000
ENDCHAR
STARTCHAR 383c
ENCODING 14396
SWIDTH 960 0
DWIDTH 10 0
BBX 10 10 0 -2
BITMAP
0c00
ffc0
0c00
1800
7300
1a00
0c00
1980
ff40
0000
ENDCHAR
STARTCHAR 383d
ENCODING 14397
SWIDTH 960 0
DWIDTH 10 0
BBX 10 10 0 -2
BITMAP
0f80
f580
6f80
6d80
f780
6d80
7780
ed00
3bc0
0000
ENDCHAR
STARTCHAR 383e
ENCODING 14398
SWIDTH 960 0
DWIDTH 10 0
BBX 10 10 0 -2
BITMAP
3300
6fc0
d300
6a00
f680
3300
db00
d6c0
3740
0000
ENDCHAR
STARTCHAR 383f
ENCODING 14399
SWIDTH 960 0
DWIDTH 10 0
BBX 10 10 0 -2
BITMAP
3300
7fc0
6b00
6a00
fe80
6b00
6b00
6ac0
6f40
0000
ENDCHAR
STARTCHAR 3840
ENCODING 14400
SWIDTH 960 0
DWIDTH 10 0
BBX 10 10 0 -2
BITMAP
3f00
0000
ffc0
0000
3f00
0000
7f80
6180
7f80
0000
ENDCHAR
STARTCHAR 3841
ENCODING 14401
SWIDTH 960 0
DWIDTH 10 0
BBX 10 10 0 -2
BITMAP
f300
0fc0
f680
0fc0
f580
0cc0
f580
d4c0
f580
0000
ENDCHAR
STARTCHAR 3842
ENCODING 14402
SWIDTH 960 0
DWIDTH 10 0
BBX 10 10 0 -2
BITMAP
f780
d580
ef80
d580
d780
d600
ed40
cd80
dec0
0000
ENDCHAR
STARTCHAR 3843
ENCODING 14403
SWIDTH 960 0
DWIDTH 10 0
BBX 10 10 0 -2
BITMAP
0700
7c00
6d80
3500
0c00
ffc0
0c00
0c00
1c00
0000
ENDCHAR
STARTCHAR 3844
ENCODING 14404
SWIDTH 960 0
DWIDTH 10 0
BBX 10 10 0 -2
BITMAP
3fc0
3ac0
6f40
6ac0
ef40
6d40
6f40
68c0
6fc0
0000
ENDCHAR
STARTCHAR 3845
ENCODING 14405
SWIDTH 960 0
DWIDTH 10 0
BBX 10 10 0 -2
BITMAP
0c00
0c00
ffc0
0c00
0c00
7f80
6180
6180
7f80
0000
ENDCHAR
STARTCHAR 3846
ENCODING 14406
SWIDTH 960 0
DWIDTH 10 0
BBX 10 10 0 -2
BITMAP
0380
f700
d300
d540
d780
dfc0
d300
f300
0700
0000
ENDCHAR
STARTCHAR 3847
ENCODING 14407
SWIDTH 960 0
DWIDTH 10 0
BBX 10 10 0 -2
BITMAP
ffc0
ccc0
df40
ccc0
df40
d340
df40
c0c0
ffc0
0000
ENDCHAR
STARTCHAR 3848
ENCODING 14408
SWIDTH 960 0
DWIDTH 10 0
BBX 10 10 0 -2
BITMAP
3300
3300
fbc0
6b00
6b00
6bc0
36c0
3ac0
6bc0
0000
ENDCHAR
STARTCHAR 3849
ENCODING 14409
SWIDTH 960 0
DWIDTH 10 0
BBX 10 10 0 -2
BITMAP
f1c0
3f80
6a80
7a80
ea80
6a80
6b40
6f40
f0c0
0000
ENDCHAR
STARTCHAR 384a
ENCODING 14410
SWIDTH 960 0
DWIDTH 10 0
BBX 10 10 0 -2
BITMAP
ff00
0300
0300
ff00
c000
c000
c000
c0c0
ffc0
0000
ENDCHAR
STARTCHAR 384b
ENCODING 14411
SWIDTH 960 0
DWIDTH 10 0
BBX 10 10 0 -2
BITMAP
0600
7fc0
6600
7fc0
6a80
6f80
6a80
dfc0
c600
0000
ENDCHAR
STARTCHAR 384c
ENCODING 14412
SWIDTH 960 0
DWIDTH 10 0
BBX 10 10 0 -2
BITMAP
e1c0
6f80
e980
da80
ea80
6a80
6b40
6f40
d0c0
0000
ENDCHAR
STARTCHAR 384d
ENCODING 14413
SWIDTH 960 0
DWIDTH 10 0
BBX 10 10 0 -2
BITMAP
ffc0
0000
7f80
6180
6180
7f80
6000
c000
c000
0000
ENDCHAR
STARTCHAR 384e
ENCODING 14414
SWIDTH 960 0
DWIDTH 10 0
BBX 10 10 0 -2
BITMAP
6600
6600
f7c0
6e80
6680
f680
d300
d680
f4c0
0000
ENDCHAR
STARTCHAR 384f
ENCODING 14415
SWIDTH 960 0
DWIDTH 10 0
BBX 10 10 0 -2
BITMAP
3300
3300
fbc0
3300
7300
7bc0
d6c0
36c0
37c0
0000
ENDCHAR
STARTCHAR 3850
ENCODING 14416
SWIDTH 960 0
DWIDTH 10 0
BBX 10 10 0 -2
BITMAP
dbc0
6b40
3dc0
db40
3d40
35c0
7540
dd40
c6c0
0000
ENDCHAR
STARTCHAR 3851
ENCODING 14417
SWIDTH 960 0
DWIDTH 10 0
BBX 10 10 0 -2
BITMAP
d1c0
6f80
ea80
6a80
6a80
ea80
6b40
6f40
d0c0
0000
ENDCHAR
STARTCHAR 3852
ENCODING 14418
SWIDTH 960 0
DWIDTH 10 0
BBX 10 10 0 -2
BITMAP
6dc0
f540
6fc0
f540
6f40
ebc0
fb40
ef40
60c0
0000
ENDCHAR
STARTCHAR 3853
ENCODING 14419
SWIDTH 960 0
DWIDTH 10 0
BBX 10 10 0 -2
BITMAP
6300
f7c0
3680
6cc0
6780
f600
6780
6180
6380
0000
ENDCHAR
STARTCHAR 3854
ENCODING 14420
SWIDTH 960 0
DWIDTH 10 0
BBX 10 10 0 -2
BITMAP
f780
d680
f680
d5c0
d000
f780
d680
d300
d6c0
0000
ENDCHAR
STARTCHAR 3855
ENCODING 14421
SWIDTH 960 0
DWIDTH 10 0
BBX 10 10 0 -2
BITMAP
37c0
36c0
fbc0
36c0
7bc0
6ac0
6ac0
7ac0
0dc0
0000
ENDCHAR
STARTCHAR 3856
ENCODING 14422
SWIDTH 960 0
DWIDTH 10 0
BBX 10 10 0 -2
BITMAP
3300
ffc0
3300
f7c0
3580
6d80
f540
6bc0
e8c0
0000
ENDCHAR
STARTCHAR 3857
ENCODING 14423
SWIDTH 960 0
DWIDTH 10 0
BBX 10 10 0 -2
BITMAP
0f00
0c00
7fc0
6e00
7d80
6f80
6000
dac0
d7c0
0000
ENDCHAR
STARTCHAR 3858
ENCODING 14424
SWIDTH 960 0
DWIDTH 10 0
BBX 10 10 0 -2
BITMAP
f300
0fc0
f680
0cc0
f780
0600
f780
d180
f380
0000
ENDCHAR
STARTCHAR 3859
ENCODING 14425
SWIDTH 960 0
DWIDTH 10 0
BBX 10 10 0 -2
BITMAP
f300
d7c0
f680
6cc0
6780
7600
e780
f180
e380
0000
ENDCHAR
STARTCHAR 385a
ENCODING 14426
SWIDTH 960 0
DWIDTH 10 0
BBX 10 10 0 -2
BITMAP
3300
6b00
f7c0
3300
fb00
37c0
dac0
76c0
e7c0
0000
ENDCHAR
STARTCHAR 385b
ENCODING 14427
SWIDTH 960 0
DWIDTH 10 0
BBX 10 10 0 -2
BITMAP
7fc0
0000
7fc0
60c0
7fc0
6a00
6f80
da00
dfc0
0000
ENDCHAR
STARTCHAR 385c
ENCODING 14428
SWIDTH 960 0
DWIDTH 10 0
BBX 10 10 0 -2
BITMAP
fbc0
0300
fbc0
dac0
fbc0
d6c0
fbc0
d000
bac0
0000
ENDCHAR
STARTCHAR 385d
ENCODING 14429
SWIDTH 960 0
DWIDTH 10 0
BBX 10 10 0 -2
BITMAP
6300
fbc0
6300
fbc0
dac0
fac0
d380
6b40
fac0
0000
ENDCHAR
STARTCHAR 385e
ENCODING 14430
SWIDTH 960 0
DWIDTH 10 0
BBX 10 10 0 -2
BITMAP
0000
ff80
1800
1800
7f00
3300
3300
3300
ffc0
0000
ENDCHAR
STARTCHAR 385f
ENCODING 14431
SWIDTH 960 0
DWIDTH 10 0
BBX 10 10 0 -2
BITMAP
ffc0
1800
1800
3f00
3300
7f00
6600
0600
ffc0
0000
ENDCHAR
STARTCHAR 3860
ENCODING 14432
SWIDTH 960 0
DWIDTH 10 0
BBX 10 10 0 -2
BITMAP
3000
3fc0
6600
6600
ef80
6d80
6d80
6d80
6fc0
0000
ENDCHAR
STARTCHAR 3861
ENCODING 14433
SWIDTH 960 0
DWIDTH 10 0
BBX 10 10 0 -2
BITMAP
3000
3000
7f80
cc00
0c00
ffc0
0c00
0c00
0c00
0000
ENDCHAR
STARTCHAR 3862
ENCODING 14434
SWIDTH 960 0
DWIDTH 10 0
BBX 10 10 0 -2
BITMAP
1f00
6b00
6f00
6000
7f00
0300
ffc0
6180
c0c0
0000
ENDCHAR
STARTCHAR 3863
ENCODING 14435
SWIDTH 960 0
DWIDTH 10 0
BBX 10 10 0 -2
BITMAP
7f80
1800
7f00
3300
ffc0
0000
7f80
6180
7f80
0000
ENDCHAR
STARTCHAR 3864
ENCODING 14436
SWIDTH 960 0
DWIDTH 10 0
BBX 10 10 0 -2
BITMAP
63c0
6d40
f5c0
d400
d7c0
d0c0
6fc0
7680
d4c0
0000
ENDCHAR
STARTCHAR 3865
ENCODING 14437
SWIDTH 960 0
DWIDTH 10 0
BBX 10 10 0 -2
BITMAP
6680
cd00
36c0
6fc0
e000
6780
6d80
6700
6dc0
0000
ENDCHAR
STARTCHAR 3866
ENCODING 14438
SWIDTH 960 0
DWIDTH 10 0
BBX 10 10 0 -2
BITMAP
6800
dec0
0dc0
6ec0
edc0
6ec0
6dc0
6e80
6180
0000
ENDCHAR
STARTCHAR 3867
ENCODING 14439
SWIDTH 960 0
DWIDTH 10 0
BBX 10 10 0 -2
BITMAP
6f80
6600
f780
e680
6fc0
6000
6f80
6d80
6f80
0000
ENDCHAR
STARTCHAR 3868
ENCODING 14440
SWIDTH 960 0
DWIDTH 10 0
BBX 10 10 0 -2
BITMAP
3780
3600
f780
3680
7fc0
7000
d780
3580
3780
0000
ENDCHAR
STARTCHAR 3869
ENCODING 14441
SWIDTH 960 0
DWIDTH 10 0
BBX 10 10 0 -2
BITMAP
6700
6d80
efc0
6d80
ef80
e600
efc0
6b40
69c0
0000
ENDCHAR
STARTCHAR 386a
ENCODING 14442
SWIDTH 960 0
DWIDTH 10 0
BBX 10 10 0 -2
BITMAP
0dc0
f540
6fc0
ed40
6f40
6bc0
7b40
ef40
06c0
0000
ENDCHAR
STARTCHAR 386b
ENCODING 14443
SWIDTH 960 0
DWIDTH 10 0
BBX 10 10 0 -2
BITMAP
3300
7f80
3300
3300
ffc0
6980
df40
7300
3f00
0000
ENDCHAR
STARTCHAR 386c
ENCODING 14444
SWIDTH 960 0
DWIDTH 10 0
BBX 10 10 0 -2
BITMAP
f780
0600
f780
0680
efc0
0000
f780
d580
f780
0000
ENDCHAR
STARTCHAR 386d
ENCODING 14445
SWIDTH 960 0
DWIDTH 10 0
BBX 10 10 0 -2
BITMAP
f3c0
0d40
f5c0
0c00
f7c0
00c0
ffc0
d680
f4c0
0000
ENDCHAR
STARTCHAR 386e
ENCODING 14446
SWIDTH 960 0
DWIDTH 10 0
BBX 10 10 0 -2
BITMAP
f580
1fc0
f500
1fc0
f500
0fc0
f580
d700
f5c0
0000
ENDCHAR
STARTCHAR 386f
ENCODING 14447
SWIDTH 960 0
DWIDTH 10 0
BBX 10 10 0 -2
BITMAP
f5c0
6d40
ffc0
f540
df40
dbc0
fb40
df40
f340
0000
ENDCHAR
STARTCHAR 3870
ENCODING 14448
SWIDTH 960 0
DWIDTH 10 0
BBX 10 10 0 -2
BITMAP
6000
7f80
c000
7e00
0c00
3800
6000
c0c0
7fc0
0000
ENDCHAR
STARTCHAR 3871
ENCODING 14449
SWIDTH 960 0
DWIDTH 10 0
BBX 10 10 0 -2
BITMAP
77c0
d540
6fc0
f540
d7c0
f300
0fc0
d300
d7c0
0000
ENDCHAR
STARTCHAR 3872
ENCODING 14450
SWIDTH 960 0
DWIDTH 10 0
BBX 10 10 0 -2
BITMAP
0c00
ffc0
3300
6180
d340
1a00
0c00
3b00
e1c0
0000
ENDCHAR
STARTCHAR 3873
ENCODING 14451
SWIDTH 960 0
DWIDTH 10 0
BBX 10 10 0 -2
BITMAP
3300
37c0
6680
6cc0
e680
6680
6300
6680
6cc0
0000
ENDCHAR
STARTCHAR 3874
ENCODING 14452
SWIDTH 960 0
DWIDTH 10 0
BBX 10 10 0 -2
BITMAP
3780
3180
6fc0
6600
efc0
6b00
6fc0
6680
6cc0
0000
ENDCHAR
STARTCHAR 3875
ENCODING 14453
SWIDTH 960 0
DWIDTH 10 0
BBX 10 10 0 -2
BITMAP
3780
3180
6fc0
6300
ebc0
6b00
6bc0
6b80
66c0
0000
ENDCHAR
STARTCHAR 3876
ENCODING 14454
SWIDTH 960 0
DWIDTH 10 0
BBX 10 10 0 -2
BITMAP
3600
3780
6600
6fc0
ed80
6fc0
6600
6f80
6600
0000
ENDCHAR
STARTCHAR 3877
ENCODING 14455
SWIDTH 960 0
DWIDTH 10 0
BBX 10 10 0 -2
BITMAP
0c00
6d80
3500
ffc0
1a00
1a00
3600
66c0
c7c0
0000
ENDCHAR
STARTCHAR 3878
ENCODING 14456
SWIDTH 960 0
DWIDTH 10 0
BBX 10 10 0 -2
BITMAP
0e00
3300
3300
6d80
ccc0
1800
1b00
3780
7d80
0000
ENDCHAR
STARTCHAR 3879
ENCODING 14457
SWIDTH 960 0
DWIDTH 10 0
BBX 10 10 0 -2
BITMAP
0600
0600
f7c0
66c0
66c0
66c0
74c0
ecc0
1bc0
0000
ENDCHAR
STARTCHAR 387a
ENCODING 14458
SWIDTH 960 0
DWIDTH 10 0
BBX 10 10 0 -2
BITMAP
3300
3300
ffc0
6b40
cd40
6b40
3340
6ac0
dac0
0000
ENDCHAR
STARTCHAR 387b
ENCODING 14459
SWIDTH 960 0
DWIDTH 10 0
BBX 10 10 0 -2
BITMAP
3000
3000
7fc0
60c0
d8c0
18c0
36c0
7ec0
0380
0000
ENDCHAR
STARTCHAR 387c
ENCODING 14460
SWIDTH 960 0
DWIDTH 10 0
BBX 10 10 0 -2
BITMAP
7fc0
6980
6f80
6980
6f80
6300
6fc0
c600
ce00
0000
ENDCHAR
STARTCHAR 387d
ENCODING 14461
SWIDTH 960 0
DWIDTH 10 0
BBX 10 10 0 -2
BITMAP
0000
ff80
c180
c180
c180
c180
c180
c180
ff80
0000
ENDCHAR
STARTCHAR 387e
ENCODING 14462
SWIDTH 960 0
DWIDTH 10 0
BBX 10 10 0 -2
BITMAP
1800
3000
ffc0
c0c0
df40
d340
d340
df40
c1c0
0000
ENDCHAR
STARTCHAR 3921
ENCODING 14625
SWIDTH 960 0
DWIDTH 10 0
BBX 10 10 0 -2
BITMAP
0780
7c00
6000
7fc0
6000
6f80
d980
d980
1f80
0000
ENDCHAR
STARTCHAR 3922
ENCODING 14626
SWIDTH 960 0
DWIDTH 10 0
BBX 10 10 0 -2
BITMAP
06c0
f6c0
d5c0
dc00
d5c0
d680
d5c0
f580
0d40
0000
ENDCHAR
STARTCHAR 3923
ENCODING 14627
SWIDTH 960 0
DWIDTH 10 0
BBX 10 10 0 -2
BITMAP
6600
6fc0
f000
6f00
6d00
7500
6d00
db40
33c0
0000
ENDCHAR
STARTCHAR 3924
ENCODING 14628
SWIDTH 960 0
DWIDTH 10 0
BBX 10 10 0 -2
BITMAP
6380
6e00
f400
6fc0
6c00
75c0
6d40
db40
1bc0
0000
ENDCHAR
STARTCHAR 3925
ENCODING 14629
SWIDTH 960 0
DWIDTH 10 0
BBX 10 10 0 -2
BITMAP
3000
37c0
fcc0
6980
6980
6bc0
3180
3980
6b80
0000
ENDCHAR
STARTCHAR 3926
ENCODING 14630
SWIDTH 960 0
DWIDTH 10 0
BBX 10 10 0 -2
BITMAP
0600
fa00
1a00
3600
fa00
3600
3600
36c0
77c0
0000
ENDCHAR
STARTCHAR 3927
ENCODING 14631
SWIDTH 960 0
DWIDTH 10 0
BBX 10 10 0 -2
BITMAP
0d00
7f80
0c00
ffc0
3300
6600
df80
0600
0e00
0000
ENDCHAR
STARTCHAR 3928
ENCODING 14632
SWIDTH 960 0
DWIDTH 10 0
BBX 10 10 0 -2
BITMAP
0c00
ffc0
d8c0
7f80
1800
3600
3600
6d80
df40
0000
ENDCHAR
STARTCHAR 3929
ENCODING 14633
SWIDTH 960 0
DWIDTH 10 0
BBX 10 10 0 -2
BITMAP
0000
7f80
0c00
0c00
0c00
0c00
0c00
0c00
ffc0
0000
ENDCHAR
STARTCHAR 392a
ENCODING 14634
SWIDTH 960 0
DWIDTH 10 0
BBX 10 10 0 -2
BITMAP
0fc0
f600
6600
6fc0
6cc0
60c0
70c0
e0c0
0380
0000
ENDCHAR
STARTCHAR 392b
ENCODING 14635
SWIDTH 960 0
DWIDTH 10 0
BBX 10 10 0 -2
BITMAP
3300
7f80
3300
ffc0
3300
6e80
cec0
3980
3f80
0000
ENDCHAR
STARTCHAR 392c
ENCODING 14636
SWIDTH 960 0
DWIDTH 10 0
BBX 10 10 0 -2
BITMAP
0c00
7f80
0c00
ffc0
3300
ffc0
0c00
7f80
0c00
0000
ENDCHAR
STARTCHAR 392d
ENCODING 14637
SWIDTH 960 0
DWIDTH 10 0
BBX 10 10 0 -2
BITMAP
0600
7fc0
6000
6600
6600
6c00
6d80
dbc0
dec0
0000
ENDCHAR
STARTCHAR 392e
ENCODING 14638
SWIDTH 960 0
DWIDTH 10 0
BBX 10 10 0 -2
BITMAP
0600
7fc0
6600
6f80
66c0
6f80
6600
cd00
d9c0
0000
ENDCHAR
STARTCHAR 392f
ENCODING 14639
SWIDTH 960 0
DWIDTH 10 0
BBX 10 10 0 -2
BITMAP
0600
7fc0
6600
6f80
66c0
6f80
66c0
da80
d6c0
0000
ENDCHAR
STARTCHAR 3930
ENCODING 14640
SWIDTH 960 0
DWIDTH 10 0
BBX 10 10 0 -2
BITMAP
f300
3300
f300
c600
f600
3600
3680
34c0
efc0
0000
ENDCHAR
STARTCHAR 3931
ENCODING 14641
SWIDTH 960 0
DWIDTH 10 0
BBX 10 10 0 -2
BITMAP
6fc0
6000
f780
ed80
6f80
6d80
6f80
6000
6fc0
0000
ENDCHAR
STARTCHAR 3932
ENCODING 14642
SWIDTH 960 0
DWIDTH 10 0
BBX 10 10 0 -2
BITMAP
6d80
6fc0
f580
efc0
6c00
6f80
6000
6a80
6ac0
0000
ENDCHAR
STARTCHAR 3933
ENCODING 14643
SWIDTH 960 0
DWIDTH 10 0
BBX 10 10 0 -2
BITMAP
6300
6300
f7c0
6000
7780
e680
6680
6680
edc0
0000
ENDCHAR
STARTCHAR 3934
ENCODING 14644
SWIDTH 960 0
DWIDTH 10 0
BBX 10 10 0 -2
BITMAP
6c00
6c00
efc0
68c0
6f40
ed40
6f40
60c0
e380
0000
ENDCHAR
STARTCHAR 3935
ENCODING 14645
SWIDTH 960 0
DWIDTH 10 0
BBX 10 10 0 -2
BITMAP
6600
6fc0
eb40
6d00
6bc0
e000
6f80
6600
efc0
0000
ENDCHAR
STARTCHAR 3936
ENCODING 14646
SWIDTH 960 0
DWIDTH 10 0
BBX 10 10 0 -2
BITMAP
0600
0600
f7c0
6980
6680
6680
7300
e680
1cc0
0000
ENDCHAR
STARTCHAR 3937
ENCODING 14647
SWIDTH 960 0
DWIDTH 10 0
BBX 10 10 0 -2
BITMAP
7f80
6180
7f80
6180
7f80
f7c0
c6c0
fac0
0600
0000
ENDCHAR
STARTCHAR 3938
ENCODING 14648
SWIDTH 960 0
DWIDTH 10 0
BBX 10 10 0 -2
BITMAP
7f80
6180
7f80
6180
7f80
3500
ffc0
1a00
f7c0
0000
ENDCHAR
STARTCHAR 3939
ENCODING 14649
SWIDTH 960 0
DWIDTH 10 0
BBX 10 10 0 -2
BITMAP
ffc0
0c00
7f80
7f80
6d80
7f80
3400
1c00
f7c0
0000
ENDCHAR
STARTCHAR 393a
ENCODING 14650
SWIDTH 960 0
DWIDTH 10 0
BBX 10 10 0 -2
BITMAP
3300
37c0
f800
3780
7a80
7680
d680
3680
35c0
0000
ENDCHAR
STARTCHAR 393b
ENCODING 14651
SWIDTH 960 0
DWIDTH 10 0
BBX 10 10 0 -2
BITMAP
3300
37c0
fa80
34c0
7a80
7680
d300
3680
34c0
0000
ENDCHAR
STARTCHAR 393c
ENCODING 14652
SWIDTH 960 0
DWIDTH 10 0
BBX 10 10 0 -2
BITMAP
37c0
3300
ffc0
37c0
7540
77c0
d300
3700
36c0
0000
ENDCHAR
STARTCHAR 393d
ENCODING 14653
SWIDTH 960 0
DWIDTH 10 0
BBX 10 10 0 -2
BITMAP
6d00
6fc0
f500
6fc0
f600
ef80
ea80
6fc0
6980
0000
ENDCHAR
STARTCHAR 393e
ENCODING 14654
SWIDTH 960 0
DWIDTH 10 0
BBX 10 10 0 -2
BITMAP
c000
6f80
0600
c600
6600
0600
6600
6600
dfc0
0000
ENDCHAR
STARTCHAR 393f
ENCODING 14655
SWIDTH 960 0
DWIDTH 10 0
BBX 10 10 0 -2
BITMAP
cd00
6d00
1f80
cd00
6d00
3fc0
6000
6980
d0c0
0000
ENDCHAR
STARTCHAR 3940
ENCODING 14656
SWIDTH 960 0
DWIDTH 10 0
BBX 10 10 0 -2
BITMAP
cd00
6d00
1fc0
c300
6fc0
0000
6fc0
6cc0
cfc0
0000
ENDCHAR
STARTCHAR 3941
ENCODING 14657
SWIDTH 960 0
DWIDTH 10 0
BBX 10 10 0 -2
BITMAP
cd00
6f80
0d00
dfc0
6980
3740
6f00
6980
df80
0000
ENDCHAR
STARTCHAR 3942
ENCODING 14658
SWIDTH 960 0
DWIDTH 10 0
BBX 10 10 0 -2
BITMAP
cd00
6fc0
0d00
dfc0
6600
1f80
6a80
6fc0
d980
0000
ENDCHAR
STARTCHAR 3943
ENCODING 14659
SWIDTH 960 0
DWIDTH 10 0
BBX 10 10 0 -2
BITMAP
7f80
6d80
7f80
6d80
6d80
7f80
0c00
0c00
0c00
0000
ENDCHAR
STARTCHAR 3944
ENCODING 14660
SWIDTH 960 0
DWIDTH 10 0
BBX 10 10 0 -2
BITMAP
1800
3f00
3300
3300
7f80
0c00
7f80
0c00
ffc0
0000
ENDCHAR
STARTCHAR 3945
ENCODING 14661
SWIDTH 960 0
DWIDTH 10 0
BBX 10 10 0 -2
BITMAP
0fc0
f300
6fc0
f7c0
d540
d7c0
d300
f700
0ec0
0000
ENDCHAR
STARTCHAR 3946
ENCODING 14662
SWIDTH 960 0
DWIDTH 10 0
BBX 10 10 0 -2
BITMAP
3b00
f7c0
3680
fb80
3000
77c0
7540
d740
35c0
0000
ENDCHAR
STARTCHAR 3947
ENCODING 14663
SWIDTH 960 0
DWIDTH 10 0
BBX 10 10 0 -2
BITMAP
6600
ffc0
eb00
6b80
f9c0
6b80
fb40
eb80
6b40
0000
ENDCHAR
STARTCHAR 3948
ENCODING 14664
SWIDTH 960 0
DWIDTH 10 0
BBX 10 10 0 -2
BITMAP
3000
6fc0
d300
6b00
fb00
3300
db00
d300
37c0
0000
ENDCHAR
STARTCHAR 3949
ENCODING 14665
SWIDTH 960 0
DWIDTH 10 0
BBX 10 10 0 -2
BITMAP
3600
6600
d7c0
6a00
fa80
3680
d580
d540
35c0
0000
ENDCHAR
STARTCHAR 394a
ENCODING 14666
SWIDTH 960 0
DWIDTH 10 0
BBX 10 10 0 -2
BITMAP
3300
6fc0
d680
6cc0
fa80
3680
db00
d680
34c0
0000
ENDCHAR
STARTCHAR 394b
ENCODING 14667
SWIDTH 960 0
DWIDTH 10 0
BBX 10 10 0 -2
BITMAP
6fc0
d8c0
6d40
dfc0
fac0
6ac0
eac0
efc0
68c0
0000
ENDCHAR
STARTCHAR 394c
ENCODING 14668
SWIDTH 960 0
DWIDTH 10 0
BBX 10 10 0 -2
BITMAP
3680
fa80
37c0
7a80
3680
ffc0
3680
7a80
d580
0000
ENDCHAR
STARTCHAR 394d
ENCODING 14669
SWIDTH 960 0
DWIDTH 10 0
BBX 10 10 0 -2
BITMAP
0d00
7f80
0e00
ffc0
3800
6f80
d980
0180
0700
0000
ENDCHAR
STARTCHAR 394e
ENCODING 14670
SWIDTH 960 0
DWIDTH 10 0
BBX 10 10 0 -2
BITMAP
0c00
3700
3400
ffc0
3300
3f00
3300
3f00
3300
0000
ENDCHAR
STARTCHAR 394f
ENCODING 14671
SWIDTH 960 0
DWIDTH 10 0
BBX 10 10 0 -2
BITMAP
f600
d600
f7c0
d600
d680
f580
d500
d540
d5c0
0000
ENDCHAR
STARTCHAR 3950
ENCODING 14672
SWIDTH 960 0
DWIDTH 10 0
BBX 10 10 0 -2
BITMAP
f300
d7c0
f540
d680
d5c0
f000
d780
d300
d7c0
0000
ENDCHAR
STARTCHAR 3951
ENCODING 14673
SWIDTH 960 0
DWIDTH 10 0
BBX 10 10 0 -2
BITMAP
0c00
ffc0
3300
ffc0
d340
3f00
3300
3f00
3300
0000
ENDCHAR
STARTCHAR 3952
ENCODING 14674
SWIDTH 960 0
DWIDTH 10 0
BBX 10 10 0 -2
BITMAP
6300
f300
d7c0
d000
fb80
d680
d680
d680
d5c0
0000
ENDCHAR
STARTCHAR 3953
ENCODING 14675
SWIDTH 960 0
DWIDTH 10 0
BBX 10 10 0 -2
BITMAP
3300
ffc0
3500
7f80
3000
3f00
0000
3540
edc0
0000
ENDCHAR
STARTCHAR 3954
ENCODING 14676
SWIDTH 960 0
DWIDTH 10 0
BBX 10 10 0 -2
BITMAP
6000
cf80
3000
6fc0
e300
6300
6300
6300
6700
0000
ENDCHAR
STARTCHAR 3955
ENCODING 14677
SWIDTH 960 0
DWIDTH 10 0
BBX 10 10 0 -2
BITMAP
6e00
dac0
0c00
6ec0
ea80
6d80
6e80
6d80
6a80
0000
ENDCHAR
STARTCHAR 3956
ENCODING 14678
SWIDTH 960 0
DWIDTH 10 0
BBX 10 10 0 -2
BITMAP
f680
0fc0
f680
1fc0
f300
0fc0
f540
dfc0
f4c0
0000
ENDCHAR
STARTCHAR 3957
ENCODING 14679
SWIDTH 960 0
DWIDTH 10 0
BBX 10 10 0 -2
BITMAP
3f00
0c00
ffc0
3300
3f00
3300
3300
3f00
6180
0000
ENDCHAR
STARTCHAR 3958
ENCODING 14680
SWIDTH 960 0
DWIDTH 10 0
BBX 10 10 0 -2
BITMAP
f580
dfc0
f580
dfc0
f600
d780
f680
1fc0
d580
0000
ENDCHAR
STARTCHAR 3959
ENCODING 14681
SWIDTH 960 0
DWIDTH 10 0
BBX 10 10 0 -2
BITMAP
3000
37c0
fec0
6b80
ce80
6ac0
36c0
6b80
da00
0000
ENDCHAR
STARTCHAR 395a
ENCODING 14682
SWIDTH 960 0
DWIDTH 10 0
BBX 10 10 0 -2
BITMAP
f340
6f80
f300
f7c0
d680
d500
ffc0
d300
f700
0000
ENDCHAR
STARTCHAR 395b
ENCODING 14683
SWIDTH 960 0
DWIDTH 10 0
BBX 10 10 0 -2
BITMAP
3300
6b00
f7c0
3400
fd00
3500
d500
7ac0
ebc0
0000
ENDCHAR
STARTCHAR 395c
ENCODING 14684
SWIDTH 960 0
DWIDTH 10 0
BBX 10 10 0 -2
BITMAP
0300
f300
6fc0
cc00
f500
d500
d500
fac0
1bc0
0000
ENDCHAR
STARTCHAR 395d
ENCODING 14685
SWIDTH 960 0
DWIDTH 10 0
BBX 10 10 0 -2
BITMAP
6fc0
d8c0
fd40
6fc0
fac0
6ac0
dac0
6fc0
e8c0
0000
ENDCHAR
STARTCHAR 395e
ENCODING 14686
SWIDTH 960 0
DWIDTH 10 0
BBX 10 10 0 -2
BITMAP
fbc0
dac0
fbc0
ccc0
dec0
d340
dec0
dac0
dec0
0000
ENDCHAR
STARTCHAR 395f
ENCODING 14687
SWIDTH 960 0
DWIDTH 10 0
BBX 10 10 0 -2
BITMAP
f780
d580
e700
d5c0
d300
d780
e300
cfc0
c300
0000
ENDCHAR
STARTCHAR 3960
ENCODING 14688
SWIDTH 960 0
DWIDTH 10 0
BBX 10 10 0 -2
BITMAP
1fc0
0600
f780
6d80
6f80
6d80
7580
ef80
18c0
0000
ENDCHAR
STARTCHAR 3961
ENCODING 14689
SWIDTH 960 0
DWIDTH 10 0
BBX 10 10 0 -2
BITMAP
3f00
0c00
ffc0
3500
7f80
d340
3f00
3300
3f00
0000
ENDCHAR
STARTCHAR 3962
ENCODING 14690
SWIDTH 960 0
DWIDTH 10 0
BBX 10 10 0 -2
BITMAP
0c00
ffc0
3300
3f00
0000
ffc0
d340
df40
c1c0
0000
ENDCHAR
STARTCHAR 3963
ENCODING 14691
SWIDTH 960 0
DWIDTH 10 0
BBX 10 10 0 -2
BITMAP
c600
6780
3e80
dbc0
6a00
1bc0
3cc0
6340
cd40
0000
ENDCHAR
STARTCHAR 3964
ENCODING 14692
SWIDTH 960 0
DWIDTH 10 0
BBX 10 10 0 -2
BITMAP
fcc0
cd40
ed40
fd40
d540
d540
d4c0
fcc0
cdc0
0000
ENDCHAR
STARTCHAR 3965
ENCODING 14693
SWIDTH 960 0
DWIDTH 10 0
BBX 10 10 0 -2
BITMAP
6300
6300
fbc0
6340
fb40
6340
db40
fac0
06c0
0000
ENDCHAR
STARTCHAR 3966
ENCODING 14694
SWIDTH 960 0
DWIDTH 10 0
BBX 10 10 0 -2
BITMAP
3f00
3300
3f00
0000
ffc0
1800
3f80
0180
0700
0000
ENDCHAR
STARTCHAR 3967
ENCODING 14695
SWIDTH 960 0
DWIDTH 10 0
BBX 10 10 0 -2
BITMAP
0c00
1a00
3300
6e80
c0c0
3f00
3300
3300
3f00
0000
ENDCHAR
STARTCHAR 3968
ENCODING 14696
SWIDTH 960 0
DWIDTH 10 0
BBX 10 10 0 -2
BITMAP
0300
6fc0
6780
f000
6fc0
6700
75c0
e680
1d40
0000
ENDCHAR
STARTCHAR 3969
ENCODING 14697
SWIDTH 960 0
DWIDTH 10 0
BBX 10 10 0 -2
BITMAP
6680
6f80
f700
6fc0
7600
ef80
6980
6180
e700
0000
ENDCHAR
STARTCHAR 396a
ENCODING 14698
SWIDTH 960 0
DWIDTH 10 0
BBX 10 10 0 -2
BITMAP
c300
6fc0
0f80
c000
6fc0
0700
6dc0
6680
dd40
0000
ENDCHAR
STARTCHAR 396b
ENCODING 14699
SWIDTH 960 0
DWIDTH 10 0
BBX 10 10 0 -2
BITMAP
0c00
ffc0
3f00
0000
ffc0
3400
ea80
3700
edc0
0000
ENDCHAR
STARTCHAR 396c
ENCODING 14700
SWIDTH 960 0
DWIDTH 10 0
BBX 10 10 0 -2
BITMAP
0c00
7f80
3300
3300
ffc0
6a80
6a80
ffc0
3300
0000
ENDCHAR
STARTCHAR 396d
ENCODING 14701
SWIDTH 960 0
DWIDTH 10 0
BBX 10 10 0 -2
BITMAP
6c00
f7c0
6ac0
f6c0
6f40
d6c0
76c0
6680
dfc0
0000
ENDCHAR
STARTCHAR 396e
ENCODING 14702
SWIDTH 960 0
DWIDTH 10 0
BBX 10 10 0 -2
BITMAP
0c00
ffc0
0c00
3f00
3300
3f00
1a00
36c0
e7c0
0000
ENDCHAR
STARTCHAR 396f
ENCODING 14703
SWIDTH 960 0
DWIDTH 10 0
BBX 10 10 0 -2
BITMAP
30c0
fd40
3340
6d40
3b40
3340
ed40
18c0
f5c0
0000
ENDCHAR
STARTCHAR 3970
ENCODING 14704
SWIDTH 960 0
DWIDTH 10 0
BBX 10 10 0 -2
BITMAP
0c00
3400
7f80
0c00
ffc0
0000
3f00
3300
3f00
0000
ENDCHAR
STARTCHAR 3971
ENCODING 14705
SWIDTH 960 0
DWIDTH 10 0
BBX 10 10 0 -2
BITMAP
ffc0
c0c0
df40
ccc0
dec0
cd40
df40
c0c0
ffc0
0000
ENDCHAR
STARTCHAR 3972
ENCODING 14706
SWIDTH 960 0
DWIDTH 10 0
BBX 10 10 0 -2
BITMAP
3780
fa80
36c0
f800
db80
7680
f680
7b00
d6c0
0000
ENDCHAR
STARTCHAR 3973
ENCODING 14707
SWIDTH 960 0
DWIDTH 10 0
BBX 10 10 0 -2
BITMAP
f980
6680
fbc0
e980
dbc0
d800
fbc0
dac0
fbc0
0000
ENDCHAR
STARTCHAR 3974
ENCODING 14708
SWIDTH 960 0
DWIDTH 10 0
BBX 10 10 0 -2
BITMAP
3600
d780
fa80
37c0
fa00
07c0
f8c0
dac0
f980
0000
ENDCHAR
STARTCHAR 3975
ENCODING 14709
SWIDTH 960 0
DWIDTH 10 0
BBX 10 10 0 -2
BITMAP
3f00
3500
3f00
3500
7f80
0c00
ffc0
0000
dac0
0000
ENDCHAR
STARTCHAR 3976
ENCODING 14710
SWIDTH 960 0
DWIDTH 10 0
BBX 10 10 0 -2
BITMAP
dec0
7180
edc0
6180
6e80
e180
6e80
6b40
dd40
0000
ENDCHAR
STARTCHAR 3977
ENCODING 14711
SWIDTH 960 0
DWIDTH 10 0
BBX 10 10 0 -2
BITMAP
c600
3fc0
3500
dfc0
3540
3fc0
36c0
d580
d6c0
0000
ENDCHAR
STARTCHAR 3978
ENCODING 14712
SWIDTH 960 0
DWIDTH 10 0
BBX 10 10 0 -2
BITMAP
f7c0
d680
f7c0
d540
d7c0
f300
d7c0
d680
d740
0000
ENDCHAR
STARTCHAR 3979
ENCODING 14713
SWIDTH 960 0
DWIDTH 10 0
BBX 10 10 0 -2
BITMAP
d7c0
fa00
9b80
9a80
fa80
d680
f780
d680
f5c0
0000
ENDCHAR
STARTCHAR 397a
ENCODING 14714
SWIDTH 960 0
DWIDTH 10 0
BBX 10 10 0 -2
BITMAP
6000
7f80
da80
3680
6d80
0300
0c00
d6c0
df40
0000
ENDCHAR
STARTCHAR 397b
ENCODING 14715
SWIDTH 960 0
DWIDTH 10 0
BBX 10 10 0 -2
BITMAP
6c00
6fc0
eac0
ed40
6ac0
6180
6300
6ac0
6b40
0000
ENDCHAR
STARTCHAR 397c
ENCODING 14716
SWIDTH 960 0
DWIDTH 10 0
BBX 10 10 0 -2
BITMAP
3f00
3300
3700
ffc0
d340
3f00
3300
3f00
3300
0000
ENDCHAR
STARTCHAR 397d
ENCODING 14717
SWIDTH 960 0
DWIDTH 10 0
BBX 10 10 0 -2
BITMAP
d300
6600
efc0
6cc0
6cc0
efc0
6cc0
6cc0
cfc0
0000
ENDCHAR
STARTCHAR 397e
ENCODING 14718
SWIDTH 960 0
DWIDTH 10 0
BBX 10 10 0 -2
BITMAP
ce00
6600
0600
e600
6d00
6d00
6980
6000
dfc0
0000
ENDCHAR
STARTCHAR 3a21
ENCODING 14881
SWIDTH 960 0
DWIDTH 10 0
BBX 10 10 0 -2
BITMAP
3600
3600
36c0
db80
d600
d600
da00
f6c0
c7c0
0000
ENDCHAR
STARTCHAR 3a22
ENCODING 14882
SWIDTH 960 0
DWIDTH 10 0
BBX 10 10 0 -2
BITMAP
1fc0
c600
d780
ed80
cf80
d580
f580
0f80
18c0
0000
ENDCHAR
STARTCHAR 3a23
ENCODING 14883
SWIDTH 960 0
DWIDTH 10 0
BBX 10 10 0 -2
BITMAP
0c00
1a00
3300
eec0
0000
7f00
0300
0600
0c00
0000
ENDCHAR
STARTCHAR 3a24
ENCODING 14884
SWIDTH 960 0
DWIDTH 10 0
BBX 10 10 0 -2
BITMAP
ffc0
c0c0
ccc0
df40
ccc0
dec0
d540
c0c0
ffc0
0000
ENDCHAR
STARTCHAR 3a25
ENCODING 14885
SWIDTH 960 0
DWIDTH 10 0
BBX 10 10 0 -2
BITMAP
6300
6fc0
f540
6fc0
6d40
6fc0
7300
e300
0300
0000
ENDCHAR
STARTCHAR 3a26
ENCODING 14886
SWIDTH 960 0
DWIDTH 10 0
BBX 10 10 0 -2
BITMAP
7780
ea80
7740
d680
6740
0c00
7f80
0c00
ffc0
0000
ENDCHAR
STARTCHAR 3a27
ENCODING 14887
SWIDTH 960 0
DWIDTH 10 0
BBX 10 10 0 -2
BITMAP
6f80
6d00
f7c0
d500
d780
d5c0
6f80
7580
d780
0000
ENDCHAR
STARTCHAR 3a28
ENCODING 14888
SWIDTH 960 0
DWIDTH 10 0
BBX 10 10 0 -2
BITMAP
6f80
6d80
f780
ed80
6f80
6e00
6d40
6d80
6ec0
0000
ENDCHAR
STARTCHAR 3a29
ENCODING 14889
SWIDTH 960 0
DWIDTH 10 0
BBX 10 10 0 -2
BITMAP
7780
ea80
3780
76c0
d680
6740
0c00
d6c0
df40
0000
ENDCHAR
STARTCHAR 3a2a
ENCODING 14890
SWIDTH 960 0
DWIDTH 10 0
BBX 10 10 0 -2
BITMAP
7f00
6c00
7f80
66c0
fbc0
0000
7f80
6180
7f80
0000
ENDCHAR
STARTCHAR 3a2b
ENCODING 14891
SWIDTH 960 0
DWIDTH 10 0
BBX 10 10 0 -2
BITMAP
7f80
6180
7f80
6180
7f80
c600
f780
c600
fbc0
0000
ENDCHAR
STARTCHAR 3a2c
ENCODING 14892
SWIDTH 960 0
DWIDTH 10 0
BBX 10 10 0 -2
BITMAP
3780
3580
ff80
3580
7780
7cc0
d680
3500
36c0
0000
ENDCHAR
STARTCHAR 3a2d
ENCODING 14893
SWIDTH 960 0
DWIDTH 10 0
BBX 10 10 0 -2
BITMAP
6fc0
68c0
eac0
6fc0
eac0
ef40
eac0
6ac0
6fc0
0000
ENDCHAR
STARTCHAR 3a2e
ENCODING 14894
SWIDTH 960 0
DWIDTH 10 0
BBX 10 10 0 -2
BITMAP
cf80
6d80
0f80
cd80
6f80
1980
6ec0
6980
dec0
0000
ENDCHAR
STARTCHAR 3a2f
ENCODING 14895
SWIDTH 960 0
DWIDTH 10 0
BBX 10 10 0 -2
BITMAP
0600
7fc0
6000
ef80
6980
ef80
6ac0
db80
dcc0
0000
ENDCHAR
ENDFONT
